<?xml version="1.0" encoding="UTF-8"?>
<svg id="Layer_2" data-name="Layer 2" xmlns="http://www.w3.org/2000/svg" viewBox="0 0 1049.94 1023.91">
  <defs>
    <style>
      .cls-1 {
        fill: #ff9a00;
      }

      .cls-2 {
        fill: #300;
      }
    </style>
  </defs>
  <g id="Layer_1-2" data-name="Layer 1">
    <g>
      <path class="cls-2" d="m170.95,0h709.19c8.04,3.07,16.7,2.89,25,4.83,19.7,4.59,38.27,11.71,55.51,22.26,21.14,12.93,38.95,29.5,53.63,49.41,16.06,21.78,26.22,46.14,31.88,72.54,1.41,6.57.67,13.54,3.79,19.77v685.2c-1.9,3.54-1.44,7.5-2.1,11.26-3.07,17.48-7.76,34.45-15.2,50.68-11.09,24.19-26.86,44.82-46.76,62.24-13.94,12.2-29.43,22.2-46.52,29.63-23.28,10.12-47.54,15.88-72.92,15.9-226.2.11-452.4.04-678.6.19-14.53.01-28.97-.82-42.95-4.29-38.06-9.43-70.84-28.08-97.27-57.5-15.31-17.05-27.1-36.26-35.37-57.48C3.34,881.75-.03,857.86,0,833.17c.25-216.7.2-433.41.07-650.12,0-13.07,1.38-25.96,4.34-38.47,8.27-35.01,25.22-65.56,50.71-90.99,11.74-11.72,25.02-21.72,39.62-29.82,16.75-9.29,34.47-15.86,53.2-19.88,7.63-1.64,15.54-1.42,23.01-3.88Zm253.97,260.39c-18.14,0-36.29-.02-54.43.01-5.67.01-6.83,1.14-6.73,6.68.25,15.21-2.73,29.81-7.79,44.1-5.67,16.01-11.14,32.09-16.71,48.14-8.33,24-16.64,48-25.01,71.98-7.44,21.32-15.02,42.6-22.43,63.94-6.6,18.98-13,38.02-19.59,57-7.41,21.34-14.97,42.62-22.39,63.95-6.98,20.08-13.81,40.2-20.77,60.29-4.1,11.84-8.4,23.61-12.44,35.46-2.27,6.65-.65,9.42,5.39,9.43,27.13.06,54.27.04,81.4.02,3.86,0,6.16-1.49,7.62-5.57,4.23-11.8,7.98-23.75,11.75-35.7,6.74-21.38,13.81-42.66,20.49-64.05.98-3.14,2.52-3.63,5.31-3.63,51.77.05,103.54.06,155.31-.02,2.85,0,4.03.98,4.9,3.62,3.45,10.49,7.15,20.9,10.75,31.34,7.68,22.31,15.44,44.59,22.97,66.94,1.66,4.94,4.22,7.23,9.72,7.19,29.13-.21,58.26-.09,87.39-.11,6.99,0,8.29-1.82,5.97-8.49-2.7-7.77-5.6-15.48-8.34-23.24-6.58-18.62-12.95-37.31-19.71-55.86-6.71-18.41-13.37-36.84-19.79-55.33-8.21-23.64-16.8-47.16-24.9-70.84-6.55-19.15-13.63-38.11-20.38-57.19-8.19-23.14-16.24-46.33-24.43-69.47-6.81-19.26-13.75-38.47-20.57-57.72-6.65-18.77-13.43-37.49-19.71-56.38-1.7-5.1-4.39-6.61-9.42-6.55-17.81.2-35.62.08-53.43.08Zm367.75,288.14c0-55.42,0-110.85,0-166.27,0-7.67-1.02-8.66-8.64-8.66-26.63,0-53.26,0-79.89,0-8.51,0-9.47.93-9.47,9.37,0,110.18,0,220.36,0,330.54,0,8.7,1.53,10.26,10.12,10.26,25.8.02,51.6,0,77.39,0,9.85,0,10.49-.62,10.49-10.47,0-54.92,0-109.85,0-164.77Zm6.29-267.79c.24-5.14-.69-11.06-2.49-16.73-10.05-31.61-34.63-39.94-63.14-35.59-27.84,4.26-47.63,31.31-43.13,61.98,4.81,32.71,34.09,50.47,62.4,46.34,28.21-4.11,45.95-26.32,46.36-56Z"/>
      <path class="cls-1" d="m424.91,260.39c17.81,0,35.62.12,53.43-.08,5.03-.06,7.72,1.44,9.42,6.55,6.28,18.89,13.06,37.62,19.71,56.38,6.82,19.25,13.77,38.46,20.57,57.72,8.18,23.14,16.24,46.33,24.43,69.47,6.75,19.08,13.83,38.04,20.38,57.19,8.1,23.68,16.69,47.2,24.9,70.84,6.42,18.49,13.09,36.93,19.79,55.33,6.76,18.55,13.13,37.24,19.71,55.86,2.74,7.76,5.64,15.46,8.34,23.24,2.32,6.67,1.01,8.48-5.97,8.49-29.13.02-58.26-.1-87.39.11-5.5.04-8.06-2.25-9.72-7.19-7.53-22.36-15.29-44.64-22.97-66.94-3.6-10.44-7.3-20.85-10.75-31.34-.87-2.64-2.05-3.62-4.9-3.62-51.77.08-103.54.08-155.31.02-2.79,0-4.33.49-5.31,3.63-6.68,21.4-13.74,42.68-20.49,64.05-3.77,11.95-7.52,23.9-11.75,35.7-1.46,4.08-3.76,5.57-7.62,5.57-27.13.01-54.27.04-81.4-.02-6.05-.01-7.66-2.78-5.39-9.43,4.04-11.86,8.34-23.63,12.44-35.46,6.96-20.08,13.79-40.21,20.77-60.29,7.41-21.33,14.98-42.61,22.39-63.95,6.59-18.98,12.99-38.02,19.59-57,7.41-21.33,14.99-42.61,22.43-63.94,8.37-23.98,16.68-47.98,25.01-71.98,5.57-16.05,11.04-32.13,16.71-48.14,5.05-14.28,8.04-28.89,7.79-44.1-.09-5.54,1.07-6.66,6.73-6.68,18.14-.04,36.29-.01,54.43-.01Zm-.09,81.03c-15.35,61.89-36.28,121.48-53.88,182.04-.27-.07.05.09.37.09,35.43.03,70.87.02,106.3.11,3.51,0,3.3-1.49,2.47-3.99-4.22-12.71-8.47-25.41-12.49-38.18-7.59-24.13-14.93-48.34-22.58-72.45-6.12-19.27-11.72-38.69-17.06-58.19-.85-3.1-1.34-6.34-3.13-9.43Z"/>
      <path class="cls-1" d="m792.67,548.53c0,54.92,0,109.85,0,164.77,0,9.85-.63,10.47-10.49,10.47-25.8,0-51.6.01-77.39,0-8.58,0-10.12-1.56-10.12-10.26,0-110.18,0-220.36,0-330.54,0-8.44.95-9.37,9.47-9.37,26.63,0,53.26,0,79.89,0,7.62,0,8.63.99,8.64,8.66.01,55.42,0,110.85,0,166.27Z"/>
      <path class="cls-1" d="m798.95,280.74c-.41,29.68-18.15,51.89-46.36,56-28.32,4.13-57.59-13.63-62.4-46.34-4.51-30.66,15.28-57.72,43.13-61.98,28.51-4.36,53.09,3.98,63.14,35.59,1.8,5.67,2.74,11.59,2.49,16.73Z"/>
      <path class="cls-2" d="m424.82,341.43c1.79,3.08,2.28,6.32,3.13,9.43,5.35,19.5,10.94,38.91,17.06,58.19,7.65,24.11,14.99,48.32,22.58,72.45,4.02,12.77,8.27,25.47,12.49,38.18.83,2.51,1.04,4-2.47,3.99-35.43-.1-70.87-.08-106.3-.11-.32,0-.64-.16-.37-.09,17.6-60.56,38.53-120.14,53.88-182.04Z"/>
    </g>
  </g>
</svg>