<?xml version="1.0" encoding="UTF-8"?>
<svg id="Layer_2" data-name="Layer 2" xmlns="http://www.w3.org/2000/svg" viewBox="0 0 682.69 62.32">
  <defs>
    <style>
      .cls-1 {
        fill: #fa6138;
      }

      .cls-2 {
        fill: #fdad16;
      }
    </style>
  </defs>
  <g id="Layer_1-2" data-name="Layer 1">
    <g>
      <rect class="cls-1" x="60.26" y="13.8" width="34.72" height="34.72" rx="7" ry="7" transform="translate(.7 64.01) rotate(-45)"/>
      <rect class="cls-1" y="19.92" width="22.47" height="22.47" rx="3.5" ry="3.5"/>
      <path class="cls-1" d="m681.19,32.66h-12.64c-.83,0-1.5-.67-1.5-1.5s.67-1.5,1.5-1.5h12.64c.83,0,1.5.67,1.5,1.5s-.67,1.5-1.5,1.5Z"/>
      <g>
        <path class="cls-2" d="m151.29,14.18c3.06-1.57,6.7-2.36,10.91-2.36,3.67,0,6.9.56,9.67,1.68,2.77,1.12,5.03,2.7,6.79,4.75,1.76,2.05,2.9,4.49,3.44,7.31h13.66c-.59-5.11-2.36-9.59-5.31-13.42-2.96-3.84-6.84-6.82-11.66-8.95-4.82-2.13-10.32-3.19-16.5-3.19-6.82,0-12.8,1.3-17.94,3.91-5.14,2.61-9.15,6.25-12.02,10.91-2.88,4.66-4.31,10.11-4.31,16.34s1.44,11.68,4.31,16.34c2.88,4.66,6.88,8.3,12.02,10.91,5.14,2.61,11.12,3.91,17.94,3.91,6.18,0,11.68-1.06,16.5-3.19,4.82-2.13,8.71-5.13,11.66-8.99s4.73-8.32,5.31-13.38h-13.66c-.53,2.88-1.68,5.34-3.44,7.39-1.76,2.05-4.02,3.62-6.79,4.71-2.77,1.09-5.99,1.64-9.67,1.64-4.21,0-7.84-.79-10.91-2.36-3.06-1.57-5.42-3.81-7.07-6.71-1.65-2.9-2.48-6.32-2.48-10.27s.82-7.36,2.48-10.27c1.65-2.9,4.01-5.14,7.07-6.71Z"/>
        <path class="cls-2" d="m250.03,39.83c-1.62-1.19-3.68-2.05-6.15-2.6,1.41-.56,2.65-1.26,3.72-2.11,2.56-2.05,3.83-4.73,3.83-8.03,0-3.52-1.28-6.3-3.83-8.35-2.56-2.05-6.02-3.07-10.39-3.07h-34.99l2.56,22.77-2.56,22.69h36.03c4.95,0,8.85-1.13,11.7-3.4,2.85-2.26,4.27-5.37,4.27-9.31,0-3.68-1.4-6.54-4.19-8.59Zm-13.42-14.1c.93.91,1.4,2.08,1.4,3.52,0,1.55-.52,2.77-1.56,3.68s-2.68,1.36-4.91,1.36h-14.5l-1.24-9.91h16.31c2.08,0,3.58.45,4.51,1.36Zm2.6,25.37c-1.07.93-2.75,1.4-5.03,1.4h-18.38l1.33-10.63h16.17c2.66,0,4.58.49,5.75,1.48,1.17.99,1.76,2.25,1.76,3.79,0,1.7-.53,3.02-1.6,3.95Z"/>
        <path class="cls-2" d="m268.37,17.54c-2.61,1.25-4.65,2.98-6.11,5.19-1.47,2.21-2.2,4.78-2.2,7.71s.73,5.5,2.2,7.71c1.46,2.21,3.5,3.92,6.11,5.11,1.09.5,2.28.87,3.52,1.17l-12.86,16.69h15.18l11.66-15.74h10.31v15.74h13.34V15.66h-32.04c-3.46,0-6.5.63-9.11,1.88Zm27.8,7.15v11.98h-15.5c-2.24,0-3.98-.54-5.23-1.64-1.25-1.09-1.88-2.57-1.88-4.43s.63-3.32,1.88-4.35c1.25-1.04,3-1.56,5.23-1.56h15.5Z"/>
        <path class="cls-2" d="m361.81,39.71c-1.64-.86-3.62-1.48-5.92-1.88.71-.18,1.39-.37,2.01-.6,2.74-1.01,4.74-2.37,5.99-4.07,1.25-1.7,1.88-3.57,1.88-5.59,0-2.56-.96-4.82-2.88-6.79s-4.61-3.52-8.07-4.64c-3.46-1.12-7.51-1.68-12.14-1.68-5.22,0-9.68.72-13.38,2.16-3.7,1.44-6.57,3.36-8.59,5.75-2.03,2.4-3.14,5.06-3.36,7.99h12.86c.37-2.13,1.6-3.73,3.68-4.79,2.08-1.06,4.82-1.6,8.23-1.6,3.09,0,5.55.45,7.39,1.36,1.84.91,2.76,2.24,2.76,3.99,0,1.44-.79,2.64-2.36,3.6-1.57.96-4.01,1.44-7.31,1.44h-8.23v7.99h8.47c3.67,0,6.35.39,8.03,1.16,1.68.77,2.52,1.96,2.52,3.56,0,1.97-1,3.42-3,4.35-2,.93-4.78,1.4-8.35,1.4s-6.69-.59-8.87-1.76c-2.18-1.17-3.46-2.88-3.83-5.11h-12.94c.21,3.35,1.38,6.27,3.52,8.75,2.13,2.48,5.09,4.37,8.87,5.67,3.78,1.3,8.2,1.96,13.26,1.96s9.77-.61,13.5-1.84c3.73-1.23,6.56-2.93,8.51-5.11,1.94-2.18,2.92-4.63,2.92-7.35,0-3.73-1.72-6.5-5.15-8.31Z"/>
        <path class="cls-2" d="m416.49,15.66l-1.15,10.06c-2.29-3.57-5.14-6.34-8.56-8.31-3.43-1.97-7.28-2.96-11.54-2.96s-8.34,1-11.74,3c-3.41,2-6.06,4.79-7.95,8.39-1.89,3.59-2.84,7.79-2.84,12.58s.94,8.91,2.84,12.5c1.89,3.59,4.54,6.39,7.95,8.39,3.41,2,7.32,3,11.74,3s8.11-.99,11.54-2.96c3.43-1.97,6.28-4.75,8.54-8.34l1.16,10.1h13.82l-2.64-22.69,2.64-22.77h-13.82Zm-10.43,34.55c-2.21,1.15-4.57,1.72-7.07,1.72s-4.71-.57-6.63-1.72c-1.92-1.14-3.42-2.73-4.51-4.75-1.09-2.02-1.64-4.37-1.64-7.03s.54-5.02,1.64-7.07c1.09-2.05,2.6-3.65,4.51-4.79,1.92-1.14,4.13-1.72,6.63-1.72s4.86.57,7.07,1.72c2.21,1.15,4.17,2.75,5.87,4.79,1.7,2.05,3.04,4.41,3.99,7.07-.96,2.66-2.29,5.01-3.99,7.03-1.7,2.02-3.66,3.61-5.87,4.75Z"/>
        <polygon class="cls-2" points="435.35 25.88 453.4 25.88 453.4 61.12 466.74 61.12 466.74 25.88 484.8 25.88 484.8 15.66 435.35 15.66 435.35 25.88"/>
        <path class="cls-2" d="m529.66,30.8c-2.85-1.36-6.22-2.04-10.11-2.04h-15.42v-13.1h-13.26v45.46h28.84c3.83,0,7.16-.67,9.99-2,2.82-1.33,5.03-3.22,6.63-5.67s2.4-5.27,2.4-8.47-.8-6.08-2.4-8.51c-1.6-2.42-3.82-4.31-6.67-5.67Zm-6.43,18.93c-1.33,1.2-3.22,1.8-5.67,1.8h-13.42v-13.58h13.42c2.45,0,4.34.6,5.67,1.8,1.33,1.2,2,2.89,2,5.07s-.67,3.71-2,4.91Z"/>
        <path class="cls-2" d="m562.97,26.24c2.1-1.09,4.57-1.64,7.39-1.64,3.52,0,6.51.84,8.99,2.52,2.48,1.68,4.06,4.06,4.75,7.15h13.34c-.53-3.94-2.04-7.39-4.51-10.35s-5.66-5.27-9.55-6.95c-3.89-1.68-8.23-2.52-13.02-2.52-5.43,0-10.21,1.01-14.34,3.04-4.13,2.03-7.35,4.83-9.67,8.43-2.32,3.59-3.47,7.76-3.47,12.5s1.16,8.84,3.47,12.46c2.32,3.62,5.54,6.43,9.67,8.43,4.13,2,8.91,3,14.34,3,4.79,0,9.13-.83,13.02-2.48,3.89-1.65,7.07-3.97,9.55-6.95,2.48-2.98,3.98-6.42,4.51-10.31h-13.34c-.64,2.88-2.2,5.19-4.67,6.95-2.48,1.76-5.5,2.64-9.07,2.64-2.82,0-5.29-.55-7.39-1.64-2.11-1.09-3.72-2.66-4.83-4.71s-1.68-4.51-1.68-7.39.56-5.42,1.68-7.47,2.73-3.62,4.83-4.71Z"/>
        <path class="cls-2" d="m620.3,15.66c-3.46,0-6.5.63-9.11,1.88-2.61,1.25-4.65,2.98-6.11,5.19-1.47,2.21-2.2,4.78-2.2,7.71s.73,5.5,2.2,7.71c1.46,2.21,3.5,3.92,6.11,5.11,1.09.5,2.27.87,3.52,1.17l-12.86,16.69h15.18l11.66-15.74h10.31v15.74h13.34V15.66h-32.04Zm3.2,21.01c-2.24,0-3.98-.54-5.23-1.64-1.25-1.09-1.88-2.57-1.88-4.43s.63-3.32,1.88-4.35c1.25-1.04,3-1.56,5.23-1.56h15.5v11.98h-15.5Z"/>
      </g>
    </g>
  </g>
</svg>