<?xml version="1.0" encoding="UTF-8"?>
<svg id="Layer_2" data-name="Layer 2" xmlns="http://www.w3.org/2000/svg" viewBox="0 0 311.49 353.95">
  <defs>
    <style>
      .cls-1 {
        fill: #fff;
      }

      .cls-2 {
        fill: #1d88c8;
      }

      .cls-3 {
        fill: #1b73b9;
      }
    </style>
  </defs>
  <g id="Layer_1-2" data-name="Layer 1">
    <g>
      <polygon class="cls-3" points="0 0 311.49 0 282.38 318.64 155.74 353.95 27.62 318.64 0 0"/>
      <polygon class="cls-2" points="156.22 328.9 259.06 298.68 283.96 26.01 156.22 26.01 156.22 328.9"/>
      <polygon class="cls-1" points="56.68 65.4 254.81 65.4 254.81 104.21 164.43 140.97 248.17 140.97 237.96 262.51 155.74 288.55 75.06 263.53 69.96 202.25 109.79 202.25 112.85 231.87 155.74 244.12 199.66 233.4 204.26 181.83 67.91 181.83 62.81 144.55 155.74 104.72 61.28 104.72 56.68 65.4"/>
    </g>
  </g>
</svg>