<?xml version="1.0" encoding="UTF-8"?>
<svg id="Layer_2" data-name="Layer 2" xmlns="http://www.w3.org/2000/svg" viewBox="0 0 779.3 387.69">
  <defs>
    <style>
      .cls-1 {
        fill: #fa6138;
      }

      .cls-2 {
        fill: #fdad16;
      }
    </style>
  </defs>
  <g id="Layer_1-2" data-name="Layer 1">
    <g>
      <g>
        <polygon class="cls-2" points="91.83 13.94 117.09 13.94 117.09 3.82 80.44 3.82 80.44 54.07 91.83 54.07 91.83 13.94"/>
        <path class="cls-2" d="m153.78,52.56c2.84-1.67,5.06-4.02,6.67-7.04,1.61-3.01,2.41-6.51,2.41-10.49s-.8-7.54-2.41-10.55c-1.61-3.01-3.83-5.36-6.67-7.04-2.84-1.67-6.13-2.51-9.88-2.51-3.53,0-6.73.83-9.61,2.48-2.88,1.65-5.27,3.99-7.17,7-.04.06-.06.12-.1.18v-8.66h-11.19v49.18h11.19v-19.77c.05.08.09.16.13.24,1.92,3.01,4.3,5.35,7.14,7,2.84,1.65,6.04,2.48,9.61,2.48,3.75,0,7.05-.84,9.88-2.51Zm-18.93-7.64c-1.88-.96-3.52-2.29-4.92-3.99-1.41-1.7-2.51-3.66-3.32-5.9.8-2.23,1.91-4.21,3.32-5.93,1.41-1.72,3.05-3.06,4.92-4.02,1.88-.96,3.86-1.44,5.96-1.44s3.95.48,5.56,1.44c1.61.96,2.87,2.3,3.79,4.02.92,1.72,1.37,3.7,1.37,5.93s-.46,4.2-1.37,5.9c-.92,1.7-2.18,3.03-3.79,3.99-1.61.96-3.46,1.44-5.56,1.44s-4.09-.48-5.96-1.44Z"/>
        <path class="cls-2" d="m203.35,45.6l.98,8.47h11.59l-2.21-19.03,2.21-19.09h-11.59l-.96,8.44c-1.92-3-4.31-5.32-7.18-6.96-2.88-1.65-6.11-2.48-9.68-2.48s-6.99.84-9.85,2.51c-2.86,1.68-5.08,4.02-6.67,7.04-1.59,3.02-2.38,6.53-2.38,10.55s.79,7.47,2.38,10.49c1.58,3.02,3.81,5.36,6.67,7.04,2.86,1.67,6.14,2.51,9.85,2.51s6.8-.83,9.68-2.48c2.88-1.65,5.27-3.98,7.16-6.99Zm-13.7.76c-2.1,0-3.95-.48-5.56-1.44-1.61-.96-2.87-2.29-3.79-3.99-.92-1.7-1.37-3.66-1.37-5.9s.46-4.21,1.37-5.93c.92-1.72,2.18-3.06,3.79-4.02,1.61-.96,3.46-1.44,5.56-1.44s4.08.48,5.93,1.44c1.85.96,3.49,2.3,4.92,4.02,1.43,1.72,2.55,3.7,3.35,5.93-.8,2.23-1.92,4.2-3.35,5.9-1.43,1.7-3.07,3.03-4.92,3.99-1.85.96-3.83,1.44-5.93,1.44Z"/>
        <path class="cls-2" d="m230.26,52.56c2.77,1.67,6.01,2.51,9.71,2.51s6.67-.83,9.41-2.48c2.75-1.65,5.04-3.99,6.87-7v19.53h11.06v-19.59s.02.04.03.06c1.81,3.01,4.1,5.35,6.87,7,2.77,1.65,5.92,2.48,9.45,2.48s6.88-.84,9.65-2.51c2.77-1.67,4.94-4.02,6.5-7.04,1.56-3.01,2.35-6.51,2.35-10.49s-.77-7.54-2.31-10.55c-1.54-3.01-3.7-5.36-6.47-7.04-2.77-1.67-6.01-2.51-9.72-2.51-3.48,0-6.62.83-9.41,2.48-2.79,1.65-5.09,3.99-6.9,7-.01.02-.02.04-.03.06V2.48h-11.06v21.89c-1.85-2.99-4.14-5.31-6.87-6.95-2.75-1.65-5.89-2.48-9.41-2.48-3.71,0-6.95.84-9.71,2.51-2.77,1.68-4.92,4.02-6.47,7.04-1.54,3.02-2.31,6.53-2.31,10.55s.77,7.47,2.31,10.49c1.54,3.02,3.7,5.36,6.47,7.04Zm41.98-25.73c2.43-2.12,5.21-3.18,8.34-3.18,2.05,0,3.84.48,5.36,1.44,1.52.96,2.71,2.3,3.58,4.02.87,1.72,1.31,3.7,1.31,5.93s-.44,4.2-1.31,5.9c-.87,1.7-2.07,3.04-3.58,4.02-1.52.98-3.31,1.47-5.36,1.47-3.13,0-5.91-1.07-8.34-3.22-2.44-2.14-4.23-4.87-5.39-8.17,1.16-3.35,2.96-6.08,5.39-8.21Zm-38.16,2.28c.85-1.72,2.04-3.06,3.58-4.02,1.54-.96,3.32-1.44,5.33-1.44,3.17,0,5.96,1.06,8.38,3.18,2.41,2.12,4.22,4.86,5.43,8.21-1.21,3.31-3.02,6.03-5.43,8.17-2.41,2.14-5.2,3.22-8.38,3.22-2.01,0-3.79-.49-5.33-1.47-1.54-.98-2.74-2.32-3.58-4.02-.85-1.7-1.27-3.66-1.27-5.9s.42-4.21,1.27-5.93Z"/>
        <polygon class="cls-2" points="354.41 54.07 354.41 15.95 340 15.95 319.77 43.67 319.77 15.95 308.78 15.95 308.78 54.07 322.78 54.07 343.42 25.81 343.42 54.07 354.41 54.07"/>
        <path class="cls-2" d="m402.71,54.07V15.95h-11.19v12.86c-1.32,1.58-2.78,2.83-4.39,3.73-2.12,1.18-4.37,1.78-6.73,1.78-5.54,0-8.31-2.95-8.31-8.84v-9.51h-11.12v9.98c0,5.54,1.38,9.77,4.15,12.7,2.77,2.93,6.81,4.39,12.13,4.39,3.71,0,6.98-.74,9.82-2.21,1.77-.92,3.25-2.06,4.46-3.43v16.7h11.19Z"/>
        <path class="cls-2" d="m451.96,41.88c-2.32,1.52-4.94,2.69-7.84,3.52-2.9.83-5.79,1.24-8.64,1.24-3.17,0-5.87-.49-8.11-1.47s-3.93-2.41-5.09-4.29c-.45-.72-.78-1.51-1.05-2.34h31.74c0-4.78-.86-8.93-2.58-12.46-1.72-3.53-4.17-6.26-7.34-8.21s-6.97-2.91-11.39-2.91-8.2.84-11.59,2.51c-3.4,1.68-6.06,4.01-8.01,7-1.94,2.99-2.91,6.48-2.91,10.45s1.02,7.55,3.05,10.59c2.03,3.04,4.82,5.39,8.38,7.07,3.55,1.67,7.58,2.51,12.09,2.51,3.71,0,7.22-.5,10.55-1.51,3.33-1,6.24-2.4,8.74-4.19v-7.5Zm-26.16-17.32c1.67-.92,3.65-1.37,5.93-1.37,2.1,0,3.93.43,5.49,1.27,1.56.85,2.8,2.05,3.72,3.62.52.89.91,1.91,1.19,3.01h-21.26c.23-.98.57-1.88,1.04-2.71.92-1.63,2.21-2.9,3.89-3.82Z"/>
        <path class="cls-2" d="m474.37,24.82c1.76-.92,3.83-1.37,6.2-1.37,2.95,0,5.46.7,7.54,2.11s3.41,3.41,3.99,6h11.19c-.45-3.3-1.71-6.2-3.79-8.68-2.08-2.48-4.75-4.42-8.01-5.83-3.26-1.41-6.9-2.11-10.92-2.11-4.56,0-8.57.85-12.03,2.55-3.46,1.7-6.16,4.05-8.11,7.07-1.94,3.01-2.92,6.51-2.92,10.49s.97,7.42,2.92,10.45c1.94,3.04,4.64,5.39,8.11,7.07,3.46,1.67,7.47,2.51,12.03,2.51,4.02,0,7.66-.69,10.92-2.08,3.26-1.38,5.93-3.33,8.01-5.83,2.08-2.5,3.34-5.38,3.79-8.64h-11.19c-.54,2.41-1.84,4.35-3.92,5.83-2.08,1.47-4.61,2.21-7.6,2.21-2.37,0-4.43-.46-6.2-1.37-1.76-.92-3.12-2.23-4.05-3.95-.94-1.72-1.41-3.79-1.41-6.2s.47-4.54,1.41-6.26c.94-1.72,2.29-3.04,4.05-3.95Z"/>
        <polygon class="cls-2" points="552.12 15.95 539.93 15.95 520.5 39.85 520.5 15.95 509.31 15.95 509.31 54.07 519.36 54.07 531.71 39.7 540.46 54.07 553.26 54.07 538.84 31.4 552.12 15.95"/>
        <polygon class="cls-2" points="568.07 43.67 568.07 15.95 557.08 15.95 557.08 54.07 571.08 54.07 591.72 25.81 591.72 54.07 602.71 54.07 602.71 15.95 588.3 15.95 568.07 43.67"/>
        <path class="cls-2" d="m623.21,9.28c2.63,2.12,6.12,3.18,10.45,3.18s7.76-1.06,10.42-3.18c2.66-2.12,4.28-5.21,4.86-9.28h-8.71c-.36,1.92-1.09,3.38-2.21,4.39-1.12,1-2.57,1.51-4.35,1.51s-3.25-.5-4.39-1.51c-1.14-1-1.87-2.47-2.18-4.39h-8.78c.62,4.07,2.25,7.16,4.89,9.28Z"/>
        <polygon class="cls-2" points="642.37 15.95 622.13 43.67 622.13 15.95 611.15 15.95 611.15 54.07 625.15 54.07 645.79 25.81 645.79 54.07 656.77 54.07 656.77 15.95 642.37 15.95"/>
        <path class="cls-2" d="m124.26,96.35h-39.8c.22,2.19.4,4.32.54,6.4.13,2.08.2,4.08.2,6,0,8.44-1.33,14.2-4,17.29h-4.98v17.82h9.71v-9.38h35.64v9.38h9.72v-17.82h-7.04v-29.68Zm-29.01,9.82c-.02-.47-.06-.95-.11-1.44h17.93v21.51h-20.83c.09-.15.18-.28.26-.44,1.92-3.55,2.88-8.5,2.88-14.84,0-1.47-.04-3.07-.13-4.79Z"/>
        <polygon class="cls-2" points="148.18 124.07 148.18 96.35 137.19 96.35 137.19 134.47 151.2 134.47 171.83 106.21 171.83 134.47 182.82 134.47 182.82 96.35 168.41 96.35 148.18 124.07"/>
        <path class="cls-2" d="m226.67,116.51c-1.37-.72-3.03-1.24-4.95-1.57.59-.15,1.15-.32,1.67-.51,2.3-.85,3.97-1.99,5.02-3.42,1.05-1.43,1.57-2.99,1.57-4.69,0-2.14-.8-4.04-2.41-5.7-1.61-1.65-3.86-2.95-6.77-3.89-2.9-.94-6.3-1.41-10.18-1.41-4.38,0-8.12.6-11.22,1.81-3.1,1.21-5.51,2.81-7.2,4.82-1.7,2.01-2.64,4.24-2.81,6.7h10.79c.31-1.79,1.34-3.13,3.08-4.02,1.74-.89,4.04-1.34,6.9-1.34,2.59,0,4.66.38,6.2,1.14s2.31,1.88,2.31,3.35c0,1.21-.66,2.21-1.98,3.01-1.32.8-3.36,1.21-6.13,1.21h-6.9v6.7h7.1c3.08,0,5.33.32,6.73.97,1.41.65,2.11,1.64,2.11,2.98,0,1.65-.84,2.87-2.51,3.65-1.67.78-4.01,1.17-7,1.17s-5.61-.49-7.44-1.47c-1.83-.98-2.9-2.41-3.22-4.29h-10.85c.18,2.81,1.16,5.26,2.95,7.34,1.79,2.08,4.27,3.66,7.44,4.76,3.17,1.09,6.88,1.64,11.12,1.64s8.2-.51,11.32-1.54c3.13-1.03,5.5-2.46,7.14-4.29,1.63-1.83,2.45-3.89,2.45-6.16,0-3.13-1.44-5.45-4.32-6.97Z"/>
        <path class="cls-2" d="m272.53,96.35l-.96,8.44c-1.92-3-4.31-5.32-7.18-6.96-2.88-1.65-6.11-2.48-9.68-2.48s-6.99.84-9.85,2.51c-2.86,1.68-5.08,4.02-6.67,7.04-1.59,3.01-2.38,6.53-2.38,10.55s.79,7.47,2.38,10.49c1.58,3.02,3.81,5.36,6.67,7.04,2.86,1.68,6.14,2.51,9.85,2.51s6.8-.83,9.68-2.48c2.88-1.65,5.27-3.98,7.16-6.99l.98,8.47h11.59l-2.21-19.03,2.21-19.09h-11.59Zm-8.74,28.98c-1.85.96-3.83,1.44-5.93,1.44s-3.95-.48-5.56-1.44c-1.61-.96-2.87-2.29-3.79-3.99-.92-1.7-1.37-3.66-1.37-5.9s.46-4.21,1.37-5.93c.92-1.72,2.18-3.06,3.79-4.02,1.61-.96,3.46-1.44,5.56-1.44s4.08.48,5.93,1.44c1.85.96,3.49,2.3,4.92,4.02,1.43,1.72,2.55,3.7,3.35,5.93-.8,2.23-1.92,4.2-3.35,5.9-1.43,1.7-3.07,3.03-4.92,3.99Z"/>
        <polygon class="cls-2" points="302.61 124.07 302.61 96.35 291.63 96.35 291.63 134.47 305.63 134.47 326.27 106.21 326.27 134.47 337.25 134.47 337.25 96.35 322.85 96.35 302.61 124.07"/>
        <path class="cls-2" d="m303.69,89.68c2.64,2.12,6.12,3.18,10.45,3.18s7.76-1.06,10.42-3.18c2.66-2.12,4.28-5.21,4.86-9.28h-8.71c-.36,1.92-1.09,3.38-2.21,4.39-1.12,1-2.57,1.51-4.35,1.51s-3.25-.5-4.39-1.51c-1.14-1-1.87-2.47-2.18-4.39h-8.78c.62,4.07,2.25,7.16,4.89,9.28Z"/>
        <polygon class="cls-2" points="377.65 110.82 356.82 110.82 356.82 96.35 345.69 96.35 345.69 134.47 356.82 134.47 356.82 119.26 377.65 119.26 377.65 134.47 388.78 134.47 388.78 96.35 377.65 96.35 377.65 110.82"/>
        <path class="cls-2" d="m436.45,106.46c-1.72-3.53-4.17-6.26-7.34-8.21s-6.97-2.91-11.39-2.91-8.2.84-11.59,2.51c-3.4,1.68-6.06,4.01-8.01,7-1.94,2.99-2.91,6.48-2.91,10.45s1.02,7.55,3.05,10.59c2.03,3.04,4.82,5.39,8.38,7.07,3.55,1.68,7.58,2.51,12.09,2.51,3.71,0,7.22-.5,10.55-1.51,3.33-1,6.24-2.4,8.74-4.19v-7.5c-2.32,1.52-4.94,2.69-7.84,3.52-2.9.83-5.79,1.24-8.64,1.24-3.17,0-5.87-.49-8.11-1.47-2.23-.98-3.93-2.41-5.09-4.29-.45-.72-.78-1.51-1.05-2.34h31.74c0-4.78-.86-8.93-2.58-12.46Zm-24.59-1.51c1.67-.92,3.65-1.37,5.93-1.37,2.1,0,3.93.42,5.49,1.27,1.56.85,2.8,2.06,3.72,3.62.52.89.91,1.91,1.19,3.01h-21.26c.23-.98.57-1.88,1.04-2.71.92-1.63,2.21-2.9,3.89-3.82Z"/>
        <path class="cls-2" d="m483.55,97.85c-2.84-1.67-6.13-2.51-9.88-2.51-3.53,0-6.73.83-9.61,2.48-2.88,1.65-5.27,3.99-7.17,7-.04.06-.06.12-.1.18v-8.66h-11.19v49.18h11.19v-19.77c.05.08.09.16.13.24,1.92,3.01,4.3,5.35,7.14,7,2.84,1.65,6.04,2.48,9.61,2.48,3.75,0,7.05-.84,9.88-2.51,2.84-1.67,5.06-4.02,6.67-7.04,1.61-3.01,2.41-6.51,2.41-10.49s-.8-7.54-2.41-10.55c-1.61-3.02-3.83-5.36-6.67-7.04Zm-3.62,23.48c-.92,1.7-2.18,3.03-3.79,3.99-1.61.96-3.46,1.44-5.56,1.44s-4.09-.48-5.96-1.44c-1.88-.96-3.52-2.29-4.92-3.99-1.41-1.7-2.51-3.66-3.32-5.9.8-2.23,1.91-4.21,3.32-5.93,1.41-1.72,3.05-3.06,4.92-4.02,1.88-.96,3.86-1.44,5.96-1.44s3.95.48,5.56,1.44c1.61.96,2.87,2.3,3.79,4.02.92,1.72,1.37,3.7,1.37,5.93s-.46,4.2-1.37,5.9Z"/>
      </g>
      <g>
        <path class="cls-2" d="m195.67,189.64c-1.1-.49-2.33-.88-3.68-1.17.58-.25,1.13-.53,1.63-.84,2.17-1.32,3.73-2.94,4.69-4.86.96-1.92,1.44-3.91,1.44-5.96,0-3.8-1.28-6.78-3.85-8.94-2.57-2.17-6.18-3.25-10.82-3.25h-33.97l3.89,24.46-3.89,25.79h35.24c3.71,0,6.79-.6,9.25-1.81,2.46-1.21,4.32-2.86,5.59-4.96,1.27-2.1,1.91-4.49,1.91-7.17,0-2.5-.6-4.72-1.81-6.67s-3.08-3.48-5.63-4.62Zm-9.11-15.08c1.12,1.05,1.67,2.36,1.67,3.92,0,2.05-.66,3.65-1.98,4.79-1.32,1.14-2.98,1.71-4.99,1.71h-16.02l-1.97-11.99h18.46c2.1,0,3.71.53,4.82,1.57Zm3.05,30.22c-1.32,1.14-3.18,1.71-5.59,1.71h-20.79l2.07-13.33h17.32c2.95,0,5.18.61,6.7,1.84,1.52,1.23,2.28,2.89,2.28,4.99s-.66,3.65-1.98,4.79Z"/>
        <path class="cls-2" d="m248.9,186.86c-1.72-3.53-4.17-6.26-7.34-8.21-3.17-1.94-6.97-2.91-11.39-2.91s-8.2.84-11.59,2.51c-3.4,1.67-6.06,4.01-8.01,7-1.94,2.99-2.91,6.48-2.91,10.45s1.02,7.55,3.05,10.59c2.03,3.04,4.82,5.39,8.38,7.07,3.55,1.68,7.58,2.51,12.09,2.51,3.71,0,7.22-.5,10.55-1.51,3.33-1,6.24-2.4,8.74-4.19v-7.5c-2.32,1.52-4.94,2.69-7.84,3.52-2.9.83-5.79,1.24-8.64,1.24-3.17,0-5.87-.49-8.11-1.47-2.23-.98-3.93-2.41-5.09-4.29-.45-.72-.78-1.51-1.05-2.34h31.74c0-4.78-.86-8.93-2.58-12.46Zm-24.59-1.51c1.68-.92,3.65-1.37,5.93-1.37,2.1,0,3.93.42,5.49,1.27,1.56.85,2.8,2.06,3.72,3.62.52.89.91,1.91,1.19,3.01h-21.26c.23-.98.57-1.88,1.04-2.71.92-1.63,2.21-2.9,3.89-3.82Z"/>
        <path class="cls-2" d="m294.76,182.07c-2.9-1.45-6.3-2.18-10.18-2.18-2.99,0-5.77.46-8.34,1.37-2.57.92-4.77,2.24-6.6,3.99-1.59,1.51-2.8,3.29-3.69,5.31v-.08c0-5.54,1.43-9.78,4.29-12.73,2.86-2.95,7.21-4.56,13.06-4.82,3.22-.18,5.93-.36,8.14-.54,2.21-.18,4.04-.41,5.49-.7,1.45-.29,2.65-.61,3.58-.97v-9.31c-.89.31-1.81.59-2.75.84-.94.25-2.09.47-3.45.67-1.36.2-3.09.39-5.19.57-2.1.18-4.76.4-7.97.67-7.91.67-13.98,3.28-18.22,7.84-4.24,4.56-6.36,10.79-6.36,18.69,0,5.32.98,9.85,2.95,13.6,1.97,3.75,4.8,6.62,8.51,8.61,3.71,1.99,8.17,2.98,13.4,2.98,4.56,0,8.52-.76,11.89-2.28,3.37-1.52,6-3.66,7.87-6.43,1.88-2.77,2.81-6.01,2.81-9.71s-.82-6.61-2.45-9.25c-1.63-2.63-3.9-4.68-6.8-6.13Zm-3.42,20.67c-.89,1.47-2.17,2.61-3.82,3.42-1.65.8-3.6,1.21-5.83,1.21-3.44,0-6.38-.93-8.81-2.78-2.44-1.85-4.01-4.34-4.72-7.47,1.21-2.9,2.99-5.17,5.36-6.8,2.37-1.63,5.09-2.45,8.17-2.45,2.23,0,4.18.4,5.83,1.21,1.65.8,2.92,1.93,3.82,3.38.89,1.45,1.34,3.16,1.34,5.12s-.45,3.69-1.34,5.16Z"/>
        <rect class="cls-2" x="310.17" y="186.86" width="16.55" height="9.04"/>
        <path class="cls-2" d="m376.5,176.75h-39.8c.22,2.19.4,4.32.54,6.4.13,2.08.2,4.08.2,6,0,8.44-1.33,14.2-4,17.29h-4.98v17.82h9.71v-9.38h35.64v9.38h9.72v-17.82h-7.04v-29.68Zm-29.01,9.82c-.02-.47-.06-.95-.11-1.44h17.93v21.51h-20.83c.09-.15.18-.28.26-.44,1.92-3.55,2.88-8.5,2.88-14.84,0-1.47-.04-3.07-.13-4.79Z"/>
        <polygon class="cls-2" points="400.42 204.47 400.42 176.75 389.43 176.75 389.43 214.87 403.44 214.87 424.07 186.61 424.07 214.87 435.06 214.87 435.06 176.75 420.65 176.75 400.42 204.47"/>
        <path class="cls-2" d="m478.91,196.91c-1.37-.72-3.03-1.24-4.95-1.57.59-.15,1.15-.32,1.67-.51,2.3-.85,3.97-1.99,5.02-3.42,1.05-1.43,1.57-2.99,1.57-4.69,0-2.14-.8-4.04-2.41-5.7-1.61-1.65-3.86-2.95-6.77-3.89-2.9-.94-6.3-1.41-10.18-1.41-4.38,0-8.12.6-11.22,1.81-3.11,1.21-5.51,2.81-7.2,4.82-1.7,2.01-2.64,4.24-2.81,6.7h10.79c.31-1.79,1.34-3.13,3.08-4.02,1.74-.89,4.04-1.34,6.9-1.34,2.59,0,4.66.38,6.2,1.14s2.31,1.88,2.31,3.35c0,1.21-.66,2.21-1.98,3.01-1.32.8-3.36,1.21-6.13,1.21h-6.9v6.7h7.1c3.08,0,5.33.32,6.73.97,1.41.65,2.11,1.64,2.11,2.98,0,1.65-.84,2.87-2.51,3.65-1.67.78-4.01,1.17-7,1.17s-5.61-.49-7.44-1.47c-1.83-.98-2.9-2.41-3.22-4.29h-10.85c.18,2.81,1.16,5.26,2.95,7.34s4.27,3.66,7.44,4.76c3.17,1.09,6.88,1.64,11.12,1.64s8.2-.51,11.32-1.54c3.13-1.03,5.5-2.46,7.14-4.29,1.63-1.83,2.45-3.89,2.45-6.16,0-3.13-1.44-5.45-4.32-6.97Z"/>
        <path class="cls-2" d="m524.77,176.75l-.96,8.44c-1.92-2.99-4.31-5.32-7.18-6.96-2.88-1.65-6.11-2.48-9.68-2.48s-6.99.84-9.85,2.51c-2.86,1.67-5.08,4.02-6.67,7.04-1.59,3.01-2.38,6.53-2.38,10.55s.79,7.47,2.38,10.49c1.58,3.02,3.81,5.36,6.67,7.04,2.86,1.68,6.14,2.51,9.85,2.51s6.8-.83,9.68-2.48c2.88-1.65,5.27-3.98,7.16-6.99l.98,8.47h11.59l-2.21-19.03,2.21-19.09h-11.59Zm-8.74,28.98c-1.85.96-3.83,1.44-5.93,1.44s-3.95-.48-5.56-1.44c-1.61-.96-2.87-2.29-3.79-3.99-.92-1.7-1.37-3.66-1.37-5.9s.46-4.21,1.37-5.93c.92-1.72,2.18-3.06,3.79-4.02,1.61-.96,3.46-1.44,5.56-1.44s4.08.48,5.93,1.44c1.85.96,3.49,2.3,4.92,4.02s2.55,3.7,3.35,5.93c-.8,2.23-1.92,4.2-3.35,5.9-1.43,1.7-3.07,3.03-4.92,3.99Z"/>
        <path class="cls-2" d="m555.93,170.08c2.63,2.12,6.12,3.18,10.45,3.18s7.76-1.06,10.42-3.18c2.66-2.12,4.28-5.21,4.86-9.28h-8.71c-.36,1.92-1.09,3.38-2.21,4.39-1.12,1.01-2.57,1.51-4.35,1.51s-3.25-.5-4.39-1.51c-1.14-1-1.87-2.47-2.18-4.39h-8.78c.62,4.06,2.25,7.16,4.89,9.28Z"/>
        <polygon class="cls-2" points="554.85 204.47 554.85 176.75 543.87 176.75 543.87 214.87 557.87 214.87 578.5 186.61 578.5 214.87 589.49 214.87 589.49 176.75 575.09 176.75 554.85 204.47"/>
        <polygon class="cls-2" points="629.89 191.22 609.06 191.22 609.06 176.75 597.93 176.75 597.93 214.87 609.06 214.87 609.06 199.66 629.89 199.66 629.89 214.87 641.01 214.87 641.01 176.75 629.89 176.75 629.89 191.22"/>
        <path class="cls-2" d="m688.69,186.86c-1.72-3.53-4.17-6.26-7.34-8.21-3.17-1.94-6.97-2.91-11.39-2.91s-8.2.84-11.59,2.51-6.06,4.01-8.01,7c-1.94,2.99-2.92,6.48-2.92,10.45s1.02,7.55,3.05,10.59c2.03,3.04,4.82,5.39,8.38,7.07,3.55,1.68,7.58,2.51,12.09,2.51,3.71,0,7.22-.5,10.55-1.51,3.33-1,6.24-2.4,8.74-4.19v-7.5c-2.32,1.52-4.94,2.69-7.84,3.52-2.9.83-5.78,1.24-8.64,1.24-3.17,0-5.87-.49-8.11-1.47-2.23-.98-3.93-2.41-5.09-4.29-.45-.72-.78-1.51-1.05-2.34h31.74c0-4.78-.86-8.93-2.58-12.46Zm-24.59-1.51c1.67-.92,3.65-1.37,5.93-1.37,2.1,0,3.93.42,5.49,1.27,1.56.85,2.8,2.06,3.72,3.62.52.89.91,1.91,1.19,3.01h-21.26c.23-.98.57-1.88,1.04-2.71.92-1.63,2.21-2.9,3.89-3.82Z"/>
        <path class="cls-2" d="m742.45,185.29c-1.61-3.02-3.83-5.36-6.67-7.04-2.84-1.67-6.13-2.51-9.88-2.51-3.53,0-6.73.83-9.61,2.48-2.88,1.65-5.27,3.99-7.17,7-.04.06-.06.12-.1.18v-8.66h-11.19v49.18h11.19v-19.77c.05.08.09.16.13.24,1.92,3.01,4.3,5.35,7.14,7,2.84,1.65,6.04,2.48,9.61,2.48,3.75,0,7.05-.84,9.88-2.51,2.84-1.67,5.06-4.02,6.67-7.04,1.61-3.01,2.41-6.51,2.41-10.49s-.8-7.54-2.41-10.55Zm-10.28,16.45c-.92,1.7-2.18,3.03-3.79,3.99-1.61.96-3.46,1.44-5.56,1.44s-4.09-.48-5.96-1.44c-1.88-.96-3.52-2.29-4.92-3.99-1.41-1.7-2.51-3.66-3.32-5.9.8-2.23,1.91-4.21,3.32-5.93,1.41-1.72,3.05-3.06,4.92-4.02,1.88-.96,3.86-1.44,5.96-1.44s3.95.48,5.56,1.44c1.61.96,2.87,2.3,3.79,4.02.92,1.72,1.37,3.7,1.37,5.93s-.46,4.2-1.37,5.9Z"/>
      </g>
      <g>
        <polygon class="cls-2" points="7.12 295.27 18.51 295.27 18.51 276.04 48.93 276.04 48.93 266.33 18.51 266.33 18.51 254.8 50.07 254.8 50.07 245.02 7.12 245.02 7.12 295.27"/>
        <path class="cls-2" d="m81.43,256.14c-2.59,0-4.82.53-6.7,1.57-1.88,1.05-3.45,2.48-4.72,4.29-1.11,1.58-2,3.4-2.68,5.42l-1.7-10.28h-11.32l2.41,12.53v25.59h11.19v-16.48c0-2.99.51-5.47,1.54-7.44,1.03-1.96,2.43-3.42,4.22-4.36,1.79-.94,3.8-1.41,6.03-1.41,1.03,0,2.12.07,3.28.2,1.16.13,2.32.34,3.48.6v-9.65c-.76-.18-1.57-.32-2.45-.44-.87-.11-1.73-.17-2.58-.17Z"/>
        <path class="cls-2" d="m124.71,258.65c-3.57-1.67-7.73-2.51-12.46-2.51s-8.89.84-12.46,2.51c-3.57,1.67-6.37,4.02-8.38,7.04-2.01,3.01-3.02,6.53-3.02,10.55s1,7.47,3.02,10.49c2.01,3.02,4.8,5.36,8.38,7.04,3.57,1.68,7.73,2.51,12.46,2.51s8.89-.84,12.46-2.51c3.57-1.67,6.35-4.02,8.34-7.04,1.99-3.01,2.98-6.51,2.98-10.49s-.99-7.54-2.98-10.55c-1.99-3.02-4.77-5.36-8.34-7.04Zm-1.51,23.72c-1,1.72-2.44,3.05-4.29,3.99-1.85.94-4.08,1.41-6.67,1.41s-4.76-.47-6.63-1.41c-1.88-.94-3.32-2.27-4.32-3.99-1-1.72-1.51-3.76-1.51-6.13s.5-4.48,1.51-6.2c1-1.72,2.45-3.05,4.32-3.99,1.88-.94,4.09-1.41,6.63-1.41s4.81.47,6.67,1.41c1.85.94,3.28,2.27,4.29,3.99,1,1.72,1.51,3.79,1.51,6.2s-.5,4.41-1.51,6.13Z"/>
        <path class="cls-2" d="m177.98,258.32c-2.55-1.45-5.63-2.18-9.25-2.18-3.13,0-5.99.74-8.58,2.21-2.59,1.47-4.73,3.6-6.43,6.37-.19.3-.36.62-.53.93l-1.41-8.51h-11.19l2.41,12.86v25.26h11.19v-18.42c0-2.37.44-4.4,1.31-6.1.87-1.7,2.12-3.03,3.75-3.99,1.63-.96,3.52-1.44,5.66-1.44,3.17,0,5.58.88,7.24,2.65,1.65,1.77,2.48,4.37,2.48,7.81v19.5h11.19v-21.17c0-3.71-.67-6.9-2.01-9.58s-3.28-4.75-5.83-6.2Z"/>
        <path class="cls-2" d="m216.63,287.43c-3.04,0-5.17-.59-6.4-1.78-1.23-1.18-1.84-3.25-1.84-6.2v-13.87h16.88v-8.44h-16.88v-10.05h-6.43l-4.76,10.92-7.97,2.61v4.96h7.97v15.48c0,3.04.59,5.7,1.78,7.97,1.18,2.28,3.02,4.05,5.49,5.33,2.48,1.27,5.71,1.91,9.68,1.91,2.28,0,4.49-.23,6.63-.7,2.14-.47,3.86-.97,5.16-1.51v-8.71c-1.34.67-2.75,1.18-4.22,1.54-1.47.36-3.17.54-5.09.54Z"/>
        <polygon class="cls-2" points="245.36 274.5 274.39 274.5 274.39 265.79 245.36 265.79 243.58 254.47 276.13 254.47 276.13 245.02 231.24 245.02 235.13 270.14 231.24 295.27 276.46 295.27 276.46 285.82 243.58 285.82 245.36 274.5"/>
        <path class="cls-2" d="m319.28,258.32c-2.55-1.45-5.63-2.18-9.25-2.18-3.13,0-5.99.74-8.58,2.21-2.59,1.47-4.73,3.6-6.43,6.37-.19.3-.36.62-.53.93l-1.41-8.51h-11.19l2.41,12.86v25.26h11.19v-18.42c0-2.37.44-4.4,1.31-6.1.87-1.7,2.12-3.03,3.75-3.99,1.63-.96,3.52-1.44,5.66-1.44,3.17,0,5.58.88,7.24,2.65,1.65,1.77,2.48,4.37,2.48,7.81v19.5h11.19v-21.17c0-3.71-.67-6.9-2.01-9.58s-3.28-4.75-5.83-6.2Z"/>
        <path class="cls-2" d="m371.61,243.68l-2.47,22.18c-.05-.08-.09-.16-.14-.24-1.92-3.01-4.32-5.35-7.2-7-2.88-1.65-6.11-2.48-9.68-2.48s-6.99.84-9.85,2.51c-2.86,1.67-5.08,4.02-6.67,7.04-1.59,3.01-2.38,6.53-2.38,10.55s.79,7.47,2.38,10.49c1.58,3.02,3.81,5.36,6.67,7.04,2.86,1.68,6.14,2.51,9.85,2.51s6.8-.83,9.68-2.48c2.88-1.65,5.27-3.99,7.17-7,.07-.11.12-.23.19-.34l.98,8.81h11.59l-2.21-19.83,3.69-31.76h-11.59Zm-10.42,42.44c-1.85.96-3.83,1.44-5.93,1.44s-3.95-.48-5.56-1.44c-1.61-.96-2.87-2.29-3.79-3.99-.92-1.7-1.37-3.66-1.37-5.9s.46-4.21,1.37-5.93c.92-1.72,2.18-3.06,3.79-4.02,1.61-.96,3.46-1.44,5.56-1.44s4.08.48,5.93,1.44c1.85.96,3.49,2.3,4.92,4.02,1.43,1.72,2.55,3.7,3.35,5.93-.8,2.23-1.92,4.2-3.35,5.9-1.43,1.7-3.07,3.03-4.92,3.99Z"/>
        <polygon class="cls-2" points="385.94 297.08 394.65 297.08 413.41 243.21 404.7 243.21 385.94 297.08"/>
        <path class="cls-2" d="m462.52,270.04c-1.1-.49-2.33-.88-3.68-1.17.58-.25,1.13-.53,1.63-.84,2.17-1.32,3.73-2.94,4.69-4.86.96-1.92,1.44-3.91,1.44-5.96,0-3.8-1.28-6.78-3.85-8.95-2.57-2.17-6.18-3.25-10.82-3.25h-33.97l3.89,24.46-3.89,25.79h35.24c3.71,0,6.79-.6,9.25-1.81,2.46-1.21,4.32-2.86,5.59-4.96s1.91-4.49,1.91-7.17c0-2.5-.6-4.72-1.81-6.67s-3.08-3.48-5.63-4.62Zm-9.11-15.08c1.12,1.05,1.67,2.36,1.67,3.92,0,2.05-.66,3.65-1.98,4.79-1.32,1.14-2.98,1.71-4.99,1.71h-16.02l-1.97-11.99h18.46c2.1,0,3.71.53,4.82,1.57Zm3.05,30.22c-1.32,1.14-3.18,1.71-5.59,1.71h-20.79l2.07-13.33h17.32c2.95,0,5.18.61,6.7,1.84,1.52,1.23,2.28,2.89,2.28,4.99s-.66,3.65-1.98,4.79Z"/>
        <path class="cls-2" d="m511.43,257.15l-.96,8.44c-1.92-3-4.31-5.32-7.18-6.96-2.88-1.65-6.11-2.48-9.68-2.48s-6.99.84-9.85,2.51c-2.86,1.67-5.08,4.02-6.67,7.04-1.59,3.01-2.38,6.53-2.38,10.55s.79,7.47,2.38,10.49c1.58,3.02,3.81,5.36,6.67,7.04,2.86,1.68,6.14,2.51,9.85,2.51s6.8-.83,9.68-2.48c2.88-1.65,5.26-3.98,7.16-6.99l.98,8.47h11.59l-2.21-19.03,2.21-19.09h-11.59Zm-8.74,28.98c-1.85.96-3.83,1.44-5.93,1.44s-3.95-.48-5.56-1.44c-1.61-.96-2.87-2.29-3.79-3.99-.92-1.7-1.37-3.66-1.37-5.9s.46-4.21,1.37-5.93c.92-1.72,2.18-3.06,3.79-4.02,1.61-.96,3.46-1.44,5.56-1.44s4.08.48,5.93,1.44c1.85.96,3.5,2.3,4.92,4.02,1.43,1.72,2.55,3.7,3.35,5.93-.8,2.23-1.92,4.2-3.35,5.9-1.43,1.7-3.07,3.03-4.92,3.99Z"/>
        <path class="cls-2" d="m545.23,266.02c1.76-.92,3.83-1.37,6.2-1.37,2.95,0,5.46.7,7.54,2.11,2.08,1.41,3.41,3.41,3.99,6h11.19c-.45-3.31-1.71-6.2-3.79-8.68-2.08-2.48-4.75-4.42-8.01-5.83-3.26-1.41-6.9-2.11-10.92-2.11-4.56,0-8.57.85-12.03,2.55-3.46,1.7-6.16,4.05-8.11,7.07-1.94,3.02-2.92,6.51-2.92,10.49s.97,7.42,2.92,10.45c1.94,3.04,4.64,5.39,8.11,7.07,3.46,1.68,7.47,2.51,12.03,2.51,4.02,0,7.66-.69,10.92-2.08,3.26-1.38,5.93-3.33,8.01-5.83,2.08-2.5,3.34-5.38,3.79-8.64h-11.19c-.54,2.41-1.84,4.35-3.92,5.83-2.08,1.47-4.61,2.21-7.6,2.21-2.37,0-4.43-.46-6.2-1.37-1.76-.91-3.12-2.23-4.05-3.95-.94-1.72-1.41-3.79-1.41-6.2s.47-4.54,1.41-6.26c.94-1.72,2.29-3.04,4.05-3.95Z"/>
        <polygon class="cls-2" points="623.05 257.15 610.86 257.15 591.36 281.03 591.36 243.68 580.18 243.68 580.18 295.27 590.36 295.27 602.65 280.94 611.33 295.27 624.13 295.27 609.78 272.63 623.05 257.15"/>
        <polygon class="cls-2" points="641.46 274.5 670.49 274.5 670.49 265.79 641.46 265.79 639.68 254.47 672.23 254.47 672.23 245.02 627.34 245.02 631.23 270.14 627.34 295.27 672.57 295.27 672.57 285.82 639.68 285.82 641.46 274.5"/>
        <path class="cls-2" d="m715.38,258.32c-2.55-1.45-5.63-2.18-9.25-2.18-3.13,0-5.99.74-8.58,2.21s-4.73,3.6-6.43,6.37c-.19.3-.36.62-.53.94l-1.41-8.51h-11.19l2.41,12.86v25.26h11.19v-18.42c0-2.37.44-4.4,1.31-6.1.87-1.7,2.12-3.03,3.75-3.99,1.63-.96,3.52-1.44,5.66-1.44,3.17,0,5.58.88,7.24,2.65,1.65,1.77,2.48,4.37,2.48,7.81v19.5h11.19v-21.17c0-3.71-.67-6.9-2.01-9.58s-3.28-4.75-5.83-6.2Z"/>
        <path class="cls-2" d="m779.3,243.68h-11.59l-2.47,22.18c-.05-.08-.09-.16-.14-.24-1.92-3.01-4.32-5.35-7.2-7-2.88-1.65-6.11-2.48-9.68-2.48s-6.99.84-9.85,2.51c-2.86,1.67-5.08,4.02-6.67,7.04-1.59,3.01-2.38,6.53-2.38,10.55s.79,7.47,2.38,10.49c1.58,3.02,3.81,5.36,6.67,7.04,2.86,1.68,6.14,2.51,9.85,2.51s6.8-.83,9.68-2.48c2.88-1.65,5.27-3.99,7.17-7,.07-.11.12-.23.19-.34l.98,8.81h11.59l-2.21-19.83,3.68-31.76Zm-22.01,42.44c-1.85.96-3.83,1.44-5.93,1.44s-3.95-.48-5.56-1.44c-1.61-.96-2.87-2.29-3.79-3.99-.92-1.7-1.37-3.66-1.37-5.9s.46-4.21,1.37-5.93c.92-1.72,2.18-3.06,3.79-4.02,1.61-.96,3.46-1.44,5.56-1.44s4.08.48,5.93,1.44c1.85.96,3.49,2.3,4.92,4.02s2.55,3.7,3.35,5.93c-.8,2.23-1.92,4.2-3.35,5.9-1.43,1.7-3.07,3.03-4.92,3.99Z"/>
      </g>
      <g>
        <path class="cls-2" d="m122.71,327.5c-2.9-1.38-6.34-2.08-10.32-2.08h-27.4v50.25h11.39v-17.02h16.01c3.98,0,7.41-.7,10.32-2.11,2.9-1.41,5.13-3.35,6.67-5.83,1.54-2.48,2.31-5.37,2.31-8.68s-.77-6.21-2.31-8.71c-1.54-2.5-3.76-4.44-6.67-5.83Zm-4.72,19.83c-1.5,1.3-3.56,1.94-6.2,1.94h-15.41v-14.47h15.41c2.63,0,4.7.64,6.2,1.91,1.5,1.27,2.24,3.05,2.24,5.33s-.75,4-2.24,5.29Z"/>
        <path class="cls-2" d="m171.48,337.55l-.96,8.44c-1.92-3-4.31-5.32-7.18-6.96-2.88-1.65-6.11-2.48-9.68-2.48s-6.99.84-9.85,2.51c-2.86,1.67-5.08,4.02-6.67,7.04-1.59,3.01-2.38,6.53-2.38,10.55s.79,7.47,2.38,10.49c1.58,3.02,3.81,5.36,6.67,7.04,2.86,1.68,6.14,2.51,9.85,2.51s6.8-.83,9.68-2.48c2.88-1.65,5.27-3.98,7.16-6.99l.98,8.47h11.59l-2.21-19.03,2.21-19.09h-11.59Zm-8.74,28.98c-1.85.96-3.83,1.44-5.93,1.44s-3.95-.48-5.56-1.44c-1.61-.96-2.87-2.29-3.79-3.99-.92-1.7-1.37-3.66-1.37-5.9s.46-4.21,1.37-5.93c.92-1.72,2.18-3.06,3.79-4.02,1.61-.96,3.46-1.44,5.56-1.44s4.08.48,5.93,1.44c1.85.96,3.49,2.3,4.92,4.02,1.43,1.72,2.55,3.7,3.35,5.93-.8,2.23-1.92,4.2-3.35,5.9-1.43,1.7-3.07,3.03-4.92,3.99Z"/>
        <path class="cls-2" d="m225.99,357.71c-1.37-.72-3.03-1.24-4.95-1.57.59-.15,1.15-.32,1.67-.51,2.3-.85,3.97-1.99,5.02-3.42,1.05-1.43,1.57-2.99,1.57-4.69,0-2.14-.8-4.04-2.41-5.7-1.61-1.65-3.86-2.95-6.77-3.89-2.9-.94-6.3-1.41-10.18-1.41-4.38,0-8.12.6-11.22,1.81-3.1,1.21-5.51,2.81-7.2,4.82-1.7,2.01-2.64,4.24-2.81,6.7h10.79c.31-1.79,1.34-3.13,3.08-4.02,1.74-.89,4.04-1.34,6.9-1.34,2.59,0,4.66.38,6.2,1.14s2.31,1.88,2.31,3.35c0,1.21-.66,2.21-1.98,3.01-1.32.8-3.36,1.21-6.13,1.21h-6.9v6.7h7.1c3.08,0,5.33.32,6.73.97,1.41.65,2.11,1.64,2.11,2.98,0,1.65-.84,2.87-2.51,3.65-1.67.78-4.01,1.17-7,1.17s-5.61-.49-7.44-1.47c-1.83-.98-2.9-2.41-3.22-4.29h-10.85c.18,2.81,1.16,5.26,2.95,7.34,1.79,2.08,4.27,3.66,7.44,4.76,3.17,1.09,6.88,1.64,11.12,1.64s8.2-.51,11.32-1.54c3.13-1.03,5.5-2.46,7.14-4.29,1.63-1.83,2.45-3.89,2.45-6.16,0-3.13-1.44-5.45-4.32-6.97Z"/>
        <path class="cls-2" d="m274.9,339.05c-2.84-1.67-6.13-2.51-9.88-2.51-3.53,0-6.73.83-9.61,2.48-2.88,1.65-5.27,3.99-7.17,7-.04.06-.06.12-.1.18v-8.66h-11.19v49.18h11.19v-19.77c.05.08.09.16.13.24,1.92,3.01,4.3,5.35,7.14,7,2.84,1.65,6.04,2.48,9.61,2.48,3.75,0,7.05-.84,9.88-2.51,2.84-1.67,5.06-4.02,6.67-7.04,1.61-3.01,2.41-6.51,2.41-10.49s-.8-7.54-2.41-10.55c-1.61-3.02-3.83-5.36-6.67-7.04Zm-3.62,23.48c-.92,1.7-2.18,3.03-3.79,3.99-1.61.96-3.46,1.44-5.56,1.44s-4.09-.48-5.96-1.44c-1.88-.96-3.52-2.29-4.92-3.99-1.41-1.7-2.51-3.66-3.32-5.9.8-2.23,1.91-4.21,3.32-5.93,1.41-1.72,3.05-3.06,4.92-4.02,1.88-.96,3.86-1.44,5.96-1.44s3.95.48,5.56,1.44c1.61.96,2.87,2.3,3.79,4.02.92,1.72,1.37,3.7,1.37,5.93s-.46,4.2-1.37,5.9Z"/>
        <path class="cls-2" d="m325.45,337.55l-.96,8.44c-1.92-3-4.31-5.32-7.18-6.96-2.88-1.65-6.11-2.48-9.68-2.48s-6.99.84-9.85,2.51c-2.86,1.67-5.08,4.02-6.67,7.04-1.59,3.01-2.38,6.53-2.38,10.55s.79,7.47,2.38,10.49c1.58,3.02,3.81,5.36,6.67,7.04,2.86,1.68,6.14,2.51,9.85,2.51s6.8-.83,9.68-2.48c2.88-1.65,5.27-3.98,7.16-6.99l.98,8.47h11.59l-2.21-19.03,2.21-19.09h-11.59Zm-8.74,28.98c-1.85.96-3.83,1.44-5.93,1.44s-3.95-.48-5.56-1.44c-1.61-.96-2.87-2.29-3.79-3.99-.92-1.7-1.37-3.66-1.37-5.9s.46-4.21,1.37-5.93c.92-1.72,2.18-3.06,3.79-4.02,1.61-.96,3.46-1.44,5.56-1.44s4.08.48,5.93,1.44c1.85.96,3.49,2.3,4.92,4.02,1.43,1.72,2.55,3.7,3.35,5.93-.8,2.23-1.92,4.2-3.35,5.9-1.43,1.7-3.07,3.03-4.92,3.99Z"/>
        <path class="cls-2" d="m381.19,342.87c-2.9-1.45-6.3-2.18-10.18-2.18-2.99,0-5.77.46-8.34,1.37-2.57.92-4.77,2.24-6.6,3.99-1.59,1.51-2.8,3.29-3.69,5.31v-.08c0-5.54,1.43-9.78,4.29-12.73,2.86-2.95,7.21-4.56,13.06-4.82,3.22-.18,5.93-.36,8.14-.54s4.04-.41,5.49-.7c1.45-.29,2.65-.61,3.58-.97v-9.31c-.89.31-1.81.59-2.75.84-.94.25-2.09.47-3.45.67-1.36.2-3.09.39-5.19.57-2.1.18-4.76.4-7.97.67-7.91.67-13.98,3.28-18.22,7.84-4.24,4.56-6.36,10.79-6.36,18.69,0,5.32.98,9.85,2.95,13.6,1.97,3.75,4.8,6.62,8.51,8.61,3.71,1.99,8.17,2.98,13.4,2.98,4.56,0,8.52-.76,11.89-2.28,3.37-1.52,6-3.66,7.87-6.43,1.88-2.77,2.81-6.01,2.81-9.71s-.82-6.61-2.45-9.25c-1.63-2.63-3.9-4.68-6.8-6.13Zm-3.42,20.67c-.89,1.47-2.17,2.61-3.82,3.42-1.65.8-3.6,1.21-5.83,1.21-3.44,0-6.38-.93-8.81-2.78-2.44-1.85-4.01-4.34-4.72-7.47,1.21-2.9,2.99-5.17,5.36-6.8,2.37-1.63,5.09-2.45,8.17-2.45,2.23,0,4.18.4,5.83,1.21,1.65.8,2.92,1.93,3.82,3.38.89,1.45,1.34,3.16,1.34,5.12s-.45,3.69-1.34,5.16Z"/>
        <path class="cls-2" d="m431.31,339.05c-3.57-1.67-7.73-2.51-12.46-2.51s-8.89.84-12.46,2.51c-3.57,1.67-6.37,4.02-8.38,7.04-2.01,3.01-3.02,6.53-3.02,10.55s1,7.47,3.02,10.49c2.01,3.02,4.8,5.36,8.38,7.04,3.57,1.68,7.73,2.51,12.46,2.51s8.89-.84,12.46-2.51c3.57-1.67,6.35-4.02,8.34-7.04,1.99-3.01,2.98-6.51,2.98-10.49s-1-7.54-2.98-10.55c-1.99-3.02-4.77-5.36-8.34-7.04Zm-1.51,23.72c-1,1.72-2.43,3.05-4.29,3.99-1.85.94-4.08,1.41-6.67,1.41s-4.76-.47-6.63-1.41c-1.88-.94-3.32-2.27-4.32-3.99-1-1.72-1.51-3.76-1.51-6.13s.5-4.48,1.51-6.2c1-1.72,2.45-3.05,4.32-3.99,1.88-.94,4.09-1.41,6.63-1.41s4.81.47,6.67,1.41c1.85.94,3.28,2.27,4.29,3.99,1,1.72,1.51,3.79,1.51,6.2s-.5,4.41-1.51,6.13Z"/>
        <polygon class="cls-2" points="444.44 346.12 459.58 346.12 459.58 375.67 470.77 375.67 470.77 346.12 485.91 346.12 485.91 337.55 444.44 337.55 444.44 346.12"/>
        <path class="cls-2" d="m519.68,350.4c-1.32,1.58-2.78,2.83-4.39,3.73-2.12,1.18-4.37,1.78-6.73,1.78-5.54,0-8.31-2.95-8.31-8.84v-9.51h-11.12v9.98c0,5.54,1.38,9.77,4.15,12.7,2.77,2.93,6.81,4.39,12.13,4.39,3.71,0,6.98-.74,9.82-2.21,1.77-.92,3.25-2.06,4.46-3.43v16.7h11.19v-38.12h-11.19v12.86Z"/>
        <polygon class="cls-2" points="550.3 365.27 550.3 337.55 539.31 337.55 539.31 375.67 553.31 375.67 573.95 347.41 573.95 375.67 584.94 375.67 584.94 337.55 570.53 337.55 550.3 365.27"/>
        <polygon class="cls-2" points="637.33 375.67 622.91 353 636.19 337.55 624 337.55 604.57 361.45 604.57 337.55 593.38 337.55 593.38 375.67 603.43 375.67 615.78 361.3 624.53 375.67 637.33 375.67"/>
      </g>
      <path class="cls-1" d="m123.7,196.71H1c-.55,0-1-.45-1-1s.45-1,1-1h122.7c.55,0,1,.45,1,1s-.45,1-1,1Z"/>
      <path class="cls-1" d="m735.68,116.82c-2.11-1.21-4.56-1.28-6.64-.41-2.61-5.11-5.34-10.32-10.96-10.32s-8.44,5.36-11.08,10.55c-2.48,4.86-4.82,9.45-9.3,9.45s-6.82-4.59-9.3-9.45c-2.64-5.18-5.37-10.55-11.08-10.55s-8.44,5.36-11.08,10.55c-2.48,4.86-4.82,9.45-9.3,9.45s-6.82-4.59-9.29-9.45c-2.64-5.19-5.37-10.55-11.08-10.55s-8.44,5.36-11.08,10.55c-2.48,4.86-4.82,9.45-9.3,9.45s-6.82-4.59-9.29-9.45c-2.64-5.18-5.37-10.55-11.08-10.55s-8.44,5.36-11.08,10.55c-2.48,4.86-4.82,9.45-9.29,9.45s-6.82-4.59-9.29-9.45c-2.64-5.18-5.37-10.55-11.08-10.55s-8.44,5.36-11.08,10.55c-2.48,4.86-4.81,9.45-9.29,9.45s-6.78-4.51-9.23-9.32c.74-.58,1.39-1.31,1.89-2.18,2.07-3.6.83-8.2-2.77-10.27-3.6-2.07-8.2-.83-10.27,2.77s-.83,8.2,2.77,10.27c2.11,1.21,4.56,1.28,6.64.41,2.6,5.11,5.34,10.32,10.96,10.32s8.44-5.36,11.08-10.55c2.48-4.86,4.82-9.45,9.3-9.45s6.82,4.59,9.29,9.45c2.64,5.18,5.37,10.55,11.08,10.55s8.44-5.36,11.08-10.55c2.48-4.86,4.82-9.45,9.29-9.45s6.82,4.59,9.29,9.45c2.64,5.18,5.37,10.55,11.08,10.55s8.44-5.36,11.08-10.55c2.48-4.86,4.81-9.45,9.29-9.45s6.82,4.59,9.3,9.45c2.64,5.18,5.37,10.55,11.08,10.55s8.44-5.36,11.08-10.55c2.48-4.86,4.81-9.45,9.29-9.45s6.82,4.59,9.3,9.45c2.64,5.18,5.37,10.55,11.08,10.55s8.44-5.36,11.08-10.55c2.48-4.86,4.82-9.45,9.3-9.45s6.78,4.51,9.23,9.33c-.74.58-1.39,1.31-1.89,2.18-2.07,3.6-.83,8.2,2.77,10.27,3.6,2.07,8.2.83,10.27-2.77s.83-8.2-2.77-10.27Z"/>
      <circle class="cls-1" cx="41.32" cy="28.36" r="11.88"/>
      <path class="cls-1" d="m47.41,358.61c8.4-.21,16.77-.81,25.09-2.4-8.32-1.59-16.69-2.19-25.09-2.4,5.79-6.09,11.28-12.43,16.04-19.44-7.01,4.76-13.35,10.25-19.44,16.04-.21-8.4-.81-16.77-2.4-25.09-1.59,8.31-2.19,16.67-2.4,25.07-6.21-5.94-12.68-11.57-19.86-16.43,4.86,7.17,10.48,13.63,16.42,19.84-8.59.19-17.13.78-25.64,2.42,8.5,1.64,17.05,2.23,25.64,2.42-5.94,6.21-11.56,12.67-16.42,19.84,7.17-4.86,13.63-10.48,19.84-16.42.19,8.59.78,17.13,2.42,25.64,1.64-8.51,2.23-17.07,2.42-25.66,6.08,5.79,12.42,11.27,19.42,16.03-4.76-7.01-10.25-13.35-16.04-19.44Z"/>
    </g>
  </g>
</svg>