<?xml version="1.0" encoding="UTF-8"?>
<svg id="Layer_2" data-name="Layer 2" xmlns="http://www.w3.org/2000/svg" viewBox="0 0 311.49 353.95">
  <defs>
    <style>
      .cls-1 {
        fill: #fff;
      }

      .cls-2 {
        fill: #e54d26;
      }

      .cls-3 {
        fill: #ebebeb;
      }

      .cls-4 {
        fill: none;
      }

      .cls-5 {
        fill: #f16528;
      }
    </style>
  </defs>
  <g id="Layer_1-2" data-name="Layer 1">
    <g>
      <polygon class="cls-2" points="0 0 311.49 0 282.38 318.64 155.74 353.95 27.62 318.64 0 0"/>
      <polygon class="cls-4" points="104.17 144 156.22 144 156.22 104.17 100.6 104.17 104.17 144"/>
      <polygon class="cls-3" points="104.17 144 100.6 104.17 156.22 104.17 156.22 65.36 58.21 65.36 68.43 183.83 156.22 183.83 156.22 144 104.17 144"/>
      <polygon class="cls-3" points="155.74 246.13 111.83 234.38 109.28 202.72 70.47 202.72 76.09 264.51 155.74 286.98 156.22 286.84 156.22 246 155.74 246.13"/>
      <polygon class="cls-5" points="156.22 26.01 156.22 65.36 253.28 65.36 249.7 104.17 156.22 104.17 156.22 144 246.64 144 235.4 264.51 156.22 286.84 156.22 328.9 259.06 298.68 283.96 26.01 156.22 26.01"/>
      <polygon class="cls-5" points="203.23 183.83 156.22 183.83 156.22 246 199.15 234.38 203.23 183.83"/>
      <polygon class="cls-1" points="246.64 144 156.22 144 156.22 183.83 203.23 183.83 199.15 234.38 156.22 246 156.22 286.84 235.4 264.51 246.64 144"/>
      <polygon class="cls-1" points="249.7 104.17 253.28 65.36 156.22 65.36 156.22 104.17 249.7 104.17"/>
    </g>
  </g>
</svg>