<?xml version="1.0" encoding="utf-8"?>
<!-- Generator: Adobe Illustrator 27.2.0, SVG Export Plug-In . SVG Version: 6.00 Build 0)  -->
<svg version="1.1" id="Layer_1" xmlns="http://www.w3.org/2000/svg" xmlns:xlink="http://www.w3.org/1999/xlink" x="0px" y="0px"
	 viewBox="0 0 97.9 97.9" style="enable-background:new 0 0 97.9 97.9;" xml:space="preserve">
<style type="text/css">
	.st0{fill:#F6EEE1;}
	.st1{fill:#0A250B;}
</style>
<circle class="st0" cx="48.9" cy="48.9" r="48.9"/>
<path class="st1" d="M48.9,23.7c8.2,0,9.2,0,12.5,0.2c2,0,3.9,0.4,5.7,1.1c2.7,1,4.8,3.2,5.9,5.9c0.7,1.8,1,3.8,1,5.7
	c0.2,3.2,0.2,4.2,0.2,12.5s0,9.2-0.2,12.5c0,1.9-0.3,3.9-1,5.7c-1,2.7-3.2,4.8-5.9,5.9c-1.8,0.7-3.8,1-5.7,1
	c-3.2,0.2-4.2,0.2-12.5,0.2s-9.2,0-12.5-0.2c-1.9,0-3.9-0.3-5.7-1c-2.7-1-4.8-3.2-5.9-5.8c-0.7-1.8-1-3.8-1.1-5.7
	c-0.1-3.2-0.2-4.2-0.2-12.5s0-9.2,0.2-12.5c0-2,0.4-3.9,1.1-5.7c1-2.7,3.2-4.8,5.9-5.9c1.8-0.7,3.8-1,5.7-1.1
	C39.7,23.7,40.7,23.7,48.9,23.7 M48.9,18.2c-8.4,0-9.4,0-12.7,0.2c-2.6,0-5.1,0.5-7.5,1.4c-4.1,1.6-7.4,4.9-9,9
	c-0.9,2.4-1.4,4.9-1.4,7.5c-0.1,3.3-0.2,4.3-0.2,12.7s0,9.4,0.2,12.7c0,2.6,0.5,5.1,1.4,7.5c1.6,4.1,4.9,7.4,9,9
	c2.4,0.9,4.9,1.4,7.5,1.4c3.3,0.2,4.3,0.2,12.7,0.2s9.4,0,12.7-0.2c2.6,0,5.1-0.5,7.5-1.4c4.1-1.6,7.4-4.9,9-9
	c0.9-2.4,1.4-4.9,1.4-7.5c0.2-3.3,0.2-4.3,0.2-12.7s0-9.4-0.2-12.7c0-2.6-0.5-5.1-1.4-7.5c-1.6-4.1-4.9-7.4-9-9
	c-2.4-0.9-4.9-1.4-7.5-1.4C58.4,18.2,57.3,18.2,48.9,18.2z"/>
<path class="st1" d="M48.9,33.1c-8.7,0-15.8,7.1-15.8,15.8s7.1,15.8,15.8,15.8S64.8,57.7,64.8,49c0,0,0,0,0,0
	C64.8,40.2,57.7,33.1,48.9,33.1C48.9,33.1,48.9,33.1,48.9,33.1z M48.9,59.2c-5.7,0-10.3-4.6-10.3-10.3c0-5.7,4.6-10.3,10.3-10.3
	c5.7,0,10.3,4.6,10.3,10.3C59.2,54.6,54.6,59.2,48.9,59.2C49,59.2,48.9,59.2,48.9,59.2z"/>
<circle class="st1" cx="65.4" cy="32.5" r="3.7"/>
</svg>
