<?xml version="1.0" encoding="utf-8"?>
<!-- Generator: Adobe Illustrator 27.2.0, SVG Export Plug-In . SVG Version: 6.00 Build 0)  -->
<svg version="1.1" id="Layer_1" xmlns="http://www.w3.org/2000/svg" xmlns:xlink="http://www.w3.org/1999/xlink" x="0px" y="0px"
	 viewBox="0 0 99.1 99" style="enable-background:new 0 0 99.1 99;" xml:space="preserve">
<style type="text/css">
	.st0{fill:#0A250B;}
	.st1{fill:#F6EEE1;}
</style>
<g>
	<circle class="st0" cx="49.5" cy="49.5" r="49.5"/>
	<path class="st1" d="M53.4,42.9c0.8-0.9,1.5-1.8,2.3-2.6c2.4-2.4,5.7-3.6,9.1-3.6c1.9,0,3.8,0.2,5.7,0.7c4.2,1.2,6.7,4.2,7.9,8.3
		c0.8,3.1,1.1,6.3,1,9.5c0,6.8,0,13.5,0,20.3c0,0.6-0.2,0.8-0.8,0.8c-3.5,0-7,0-10.4,0c-0.6,0-0.8-0.2-0.8-0.8c0-6.4,0-12.9,0-19.3
		c0-1.6-0.2-3.2-0.6-4.8c-0.6-2.7-3.2-4.5-5.9-4.2c-4.1,0.2-6.3,2.3-6.8,6.5c-0.1,1-0.2,2-0.2,3c0,6.3,0,12.5,0,18.8
		c0,0.6-0.2,0.8-0.8,0.8c-3.5,0-7,0-10.5,0c-0.6,0-0.7-0.1-0.7-0.7c0-12.4,0-24.8,0-37.2c0-0.6,0.2-0.8,0.8-0.8c3.3,0,6.7,0,10,0
		c0.6,0,0.8,0.2,0.8,0.8C53.4,39.9,53.4,41.4,53.4,42.9z"/>
	<path class="st1" d="M34.2,57c0,6.1,0,12.3,0,18.4c0,0.7-0.2,0.9-0.9,0.9c-3.5,0-7,0-10.5,0c-0.6,0-0.7-0.1-0.7-0.7
		c0-12.4,0-24.8,0-37.2c0-0.5,0.1-0.7,0.7-0.7c3.5,0,7.1,0,10.6,0c0.7,0,0.8,0.3,0.8,0.8C34.2,44.7,34.2,50.8,34.2,57z"/>
	<path class="st1" d="M35.2,25.4c0,3.9-3.1,7-6.9,7.1c-3.8,0.1-7-3.1-7.1-6.9s3.1-7,6.9-7.1h0.1C32.1,18.5,35.2,21.5,35.2,25.4z"/>
</g>
</svg>
