<?xml version="1.0" encoding="utf-8"?>
<!-- Generator: Adobe Illustrator 27.2.0, SVG Export Plug-In . SVG Version: 6.00 Build 0)  -->
<svg version="1.1" id="Layer_1" xmlns="http://www.w3.org/2000/svg" xmlns:xlink="http://www.w3.org/1999/xlink" x="0px" y="0px"
	 viewBox="0 0 98.1 98" style="enable-background:new 0 0 98.1 98;" xml:space="preserve">
<style type="text/css">
	.st0{fill:#F6EEE1;}
	.st1{fill:#0A250B;}
</style>
<circle class="st0" cx="49.1" cy="48.9" r="48.9"/>
<path class="st1" d="M52.9,42.3c0.8-0.9,1.5-1.8,2.3-2.6c2.4-2.4,5.7-3.6,9.1-3.6c1.9,0,3.8,0.2,5.7,0.7c4.2,1.2,6.7,4.2,7.9,8.3
	c0.8,3.1,1.1,6.3,1,9.5c0,6.8,0,13.5,0,20.3c0,0.6-0.2,0.8-0.8,0.8c-3.5,0-7,0-10.4,0c-0.6,0-0.8-0.2-0.8-0.8c0-6.4,0-12.9,0-19.3
	c0-1.6-0.2-3.2-0.6-4.8c-0.6-2.7-3.2-4.5-5.9-4.2c-4.1,0.2-6.3,2.3-6.8,6.5c-0.1,1-0.2,2-0.2,3c0,6.3,0,12.5,0,18.8
	c0,0.6-0.2,0.8-0.8,0.8c-3.5,0-7,0-10.5,0c-0.6,0-0.7-0.1-0.7-0.7c0-12.4,0-24.8,0-37.2c0-0.6,0.2-0.8,0.8-0.8c3.3,0,6.7,0,10,0
	c0.6,0,0.8,0.2,0.8,0.8C52.9,39.3,52.9,40.8,52.9,42.3z"/>
<path class="st1" d="M33.8,56.4c0,6.1,0,12.3,0,18.4c0,0.7-0.2,0.9-0.9,0.9c-3.5,0-7,0-10.5,0c-0.6,0-0.7-0.1-0.7-0.7
	c0-12.4,0-24.8,0-37.2c0-0.5,0.1-0.7,0.7-0.7c3.5,0,7.1,0,10.6,0c0.7,0,0.8,0.3,0.8,0.8C33.8,44.1,33.8,50.2,33.8,56.4z"/>
<path class="st1" d="M34.8,24.8c0,3.9-3.1,7-6.9,7.1s-7-3.1-7.1-6.9s3.1-7,6.9-7.1c0,0,0.1,0,0.1,0C31.6,17.9,34.7,20.9,34.8,24.8z"
	/>
</svg>
