<?xml version="1.0" encoding="UTF-8"?>
<svg id="Layer_2" data-name="Layer 2" xmlns="http://www.w3.org/2000/svg" viewBox="0 0 220.81 28.39">
  <defs>
    <style>
      .cls-1 {
        fill: #f6eee1;
      }
    </style>
  </defs>
  <g id="Layer_1-2" data-name="Layer 1">
    <g>
      <path class="cls-1" d="m10.03,12.1h-3.55c-.51,0-.85-.09-1.04-.27-.18-.18-.27-.5-.27-.95v-5.71c0-.48.09-.8.27-.97.18-.16.52-.25,1.04-.25h1.71c.51,0,.85.08,1.01.25.16.17.25.49.25.97v3.24h5.22v-3.96c0-1.41-.38-2.5-1.15-3.29s-2-1.17-3.71-1.17h-4.95C3.12,0,1.87.39,1.12,1.17c-.75.78-1.12,1.88-1.12,3.29v6.97c0,1.41.35,2.51,1.06,3.31.7.79,1.9,1.19,3.58,1.19h3.65c.48,0,.81.08.99.25.18.17.27.49.27.97v6.08c0,.45-.09.76-.27.95-.18.18-.51.27-.99.27h-1.71c-.51,0-.85-.09-1.04-.27-.18-.18-.27-.5-.27-.95v-3.2H.09v3.92c0,1.41.38,2.51,1.15,3.29.77.78,2.02,1.17,3.76,1.17h4.86c1.74,0,2.99-.39,3.76-1.17.77-.78,1.15-1.87,1.15-3.29v-7.42c0-1.41-.36-2.5-1.08-3.26-.72-.76-1.93-1.15-3.65-1.15Z"/>
      <polygon class="cls-1" points="29.52 12.33 23.67 12.33 23.67 0 18.49 0 18.49 28.39 23.67 28.39 23.67 16.29 29.52 16.29 29.52 28.39 34.65 28.39 34.65 0 29.52 0 29.52 12.33"/>
      <path class="cls-1" d="m49.23,0h-5.49c-1.71,0-2.96.39-3.73,1.17-.78.78-1.17,1.88-1.17,3.29v19.48c0,1.41.39,2.51,1.17,3.29.78.78,2.02,1.17,3.73,1.17h5.49c1.74,0,2.99-.39,3.76-1.17.77-.78,1.15-1.87,1.15-3.29V4.46c0-1.41-.38-2.5-1.15-3.29-.76-.78-2.02-1.17-3.76-1.17Zm-.27,17.46v5.76c0,.45-.08.76-.25.95-.17.18-.5.27-1.01.27h-2.39c-.51,0-.85-.09-1.04-.27-.18-.18-.27-.5-.27-.95V5.17c0-.48.09-.8.27-.97.18-.16.52-.25,1.04-.25h2.39c.51,0,.85.08,1.01.25.16.17.25.49.25.97v12.29Z"/>
      <polygon class="cls-1" points="69.39 0 63.72 14.13 69.34 28.39 74.92 28.39 69.12 14.13 74.97 0 69.39 0"/>
      <rect class="cls-1" x="58.32" width="5.17" height="28.39"/>
      <path class="cls-1" d="m81.4,0l-5.72,28.39h5.18l1.01-5.89h6.19l1.08,5.89h5.22L88.38,0h-6.97Zm1.14,18.58l2.33-13.59,2.48,13.59h-4.81Z"/>
      <path class="cls-1" d="m111.08,16.15c.77-.78,1.15-1.87,1.15-3.28V4.46c0-1.41-.38-2.5-1.15-3.29s-2.02-1.17-3.76-1.17h-10.44v28.39h5.17v-11.07h1.69l4.34,11.07h5.58l-4.74-11.22c.92-.18,1.65-.5,2.16-1.02Zm-9.02-12.19h3.73c.51,0,.85.08,1.01.25.16.17.25.49.25.97v7.11c0,.45-.08.76-.25.94-.17.18-.5.27-1.01.27h-3.73V3.96Z"/>
      <rect class="cls-1" x="116.5" width="5.17" height="28.39"/>
      <polygon class="cls-1" points="136.71 16.88 131.94 0 126.27 0 126.27 28.39 130.86 28.39 130.86 8.5 134.64 22.23 138.82 22.23 142.6 8.46 142.6 28.39 147.15 28.39 147.15 0 141.48 0 136.71 16.88"/>
      <path class="cls-1" d="m161.73,0h-5.49c-1.71,0-2.96.39-3.73,1.17-.78.78-1.17,1.88-1.17,3.29v19.48c0,1.41.39,2.51,1.17,3.29.78.78,2.02,1.17,3.73,1.17h5.49c1.74,0,2.99-.39,3.76-1.17.77-.78,1.15-1.87,1.15-3.29V4.46c0-1.41-.38-2.5-1.15-3.29-.76-.78-2.02-1.17-3.76-1.17Zm-.27,17.46v5.76c0,.45-.08.76-.25.95-.17.18-.5.27-1.01.27h-2.39c-.51,0-.85-.09-1.04-.27-.18-.18-.27-.5-.27-.95V5.17c0-.48.09-.8.27-.97.18-.16.52-.25,1.04-.25h2.39c.51,0,.85.08,1.01.25.16.17.25.49.25.97v12.29Z"/>
      <polygon class="cls-1" points="177.93 22.95 174.28 0 168.93 0 174.55 28.39 181.35 28.39 186.97 0 181.66 0 177.93 22.95"/>
      <path class="cls-1" d="m206.86,0h-5.49c-1.71,0-2.96.39-3.73,1.17-.78.78-1.17,1.88-1.17,3.29v19.48c0,1.41.39,2.51,1.17,3.29.78.78,2.02,1.17,3.73,1.17h5.49c1.74,0,2.99-.39,3.76-1.17.77-.78,1.15-1.87,1.15-3.29V4.46c0-1.41-.38-2.5-1.15-3.29-.76-.78-2.02-1.17-3.76-1.17Zm-.27,17.46v5.76c0,.45-.08.76-.25.95-.17.18-.5.27-1.01.27h-2.39c-.51,0-.85-.09-1.04-.27-.18-.18-.27-.5-.27-.95V5.17c0-.48.09-.8.27-.97.18-.16.52-.25,1.04-.25h2.39c.51,0,.85.08,1.01.25.16.17.25.49.25.97v12.29Z"/>
      <rect class="cls-1" x="215.32" y="22.32" width="5.49" height="6.08"/>
    </g>
  </g>
</svg>