<?xml version="1.0" encoding="UTF-8"?>
<svg id="Layer_2" data-name="Layer 2" xmlns="http://www.w3.org/2000/svg" viewBox="0 0 689.72 468.53">
  <defs>
    <style>
      .cls-1 {
        fill: #ffa519;
      }

      .cls-2 {
        fill: #5482a1;
      }
    </style>
  </defs>
  <g id="Layer_1-2" data-name="Layer 1">
    <g>
      <path class="cls-2" d="m29.58,302.13c-.5,3.08-1.56,6.24-1.4,9.33.42,8.49-.87,16.88-1.24,25.31-.75,17.2-.98,34.44-2.15,51.59-.76,11.14-.02,22.21-.51,33.3-.17,3.8-1.23,4.88-4.9,4.67-5.15-.29-10.33-.17-15.49-.04-2.59.06-3.9-.43-3.89-3.51.06-14.57.67-29.1,1.95-43.62.67-7.57.12-15.18.97-22.81,1.31-11.77,1.74-23.63,3.13-35.42,1-8.49,1.23-17.08,2.06-25.59.83-8.48,2.04-16.92,2.94-25.39.2-1.88,1.2-2.1,2.64-2.1,9.5,0,18.99.01,28.49-.01,1.68,0,2.42.47,3.02,2.35,7.28,22.53,14.75,44.99,22.16,67.48,5.02,15.22,10.03,30.45,15.08,45.78,2.11-.75,2.19-2.73,2.68-4.35,7.91-25.99,17.34-51.48,25.27-77.47,3.09-10.12,6.85-20.08,9.97-30.23.73-2.36,2.16-3.71,5.1-3.63,7.99.23,15.99.12,23.99.05,2.24-.02,3.27.3,3.81,3.06,1.5,7.76,1.4,15.7,2.86,23.42,1.75,9.25,1.48,18.67,2.8,27.96,1.09,7.64,1.8,15.37,2.1,23.09.74,19.15,3.26,38.19,3.32,57.41.02,6.71.38,13.55.72,20.32.12,2.37-.75,3.24-3.14,3.19-6.66-.11-13.33-.08-19.99-.02-2.13.02-2.98-.8-2.9-2.95.32-8.29-1.25-16.49-1.07-24.81.35-15.88-1.73-31.65-2.66-47.47-.43-7.41-1.2-14.83-1.3-22.29-.11-7.71-1.32-15.4-2.15-23.09-.09-.83-.86-1.58-1.55-2.76-2.1,5.78-4.29,11.05-5.94,16.48-4.34,14.27-9.34,28.34-13.58,42.61-5.95,20-13.28,39.57-18.69,59.73-.87,3.24-2.3,5.03-6.13,4.62-3.95-.42-7.99-.2-11.98-.06-2.92.11-4.31-.86-5.24-3.88-5.85-19.09-11.97-38.11-18.02-57.14-6.5-20.44-13.04-40.87-19.55-61.31-.23-.73,0-1.71-1.57-1.82Z"/>
      <path class="cls-1" d="m510.57,416.25c8.45,4.05,16.45,7.86,24.42,11.73,3.09,1.5,5.13,3.01,2.19,6.92-2.87,3.81-3.88,10.24-7.43,11.96-3.84,1.85-8.17-3.5-12.27-5.71-6.8-3.67-13.73-7.23-20.02-11.68-5.28-3.74-10.35-2-15.66-1.38-20.74,2.42-40.33.54-55.68-15.81-8.35-8.9-12.58-20.07-14.86-31.69-3.35-17.11-3.06-34.43-1.23-51.79,1.79-16.98,7.22-32.43,18.83-45.02,15.79-17.11,35.96-20.67,58.09-17.29,10.3,1.57,19.77,5.02,27.71,11.82,11.65,9.97,16.68,23.54,19.37,38.08,2.65,14.35,3.71,28.84,1.9,43.41-2.28,18.37-6.33,36.09-19.1,50.48-1.74,1.96-3.79,3.64-6.26,5.98Zm-38.58-131.31c-13.68-.24-23,6.28-29.21,18.24-9.19,17.71-6.61,36.97-7.51,55.71-.27,5.72,1.53,11.62,2.9,17.32,2.4,9.97,5.4,19.64,14.02,26.48,14.87,11.79,39.62,8.16,49.03-9.52,6.37-11.98,7.71-25.11,8.54-38.23.88-13.87-.36-27.76-3.9-41.21-5.18-19.65-14.02-28.07-33.87-28.79Z"/>
      <path class="cls-2" d="m524,214.91c-6.84-3.21-11.85-8.71-17.18-13.77-7.3-6.93-12.97-15.03-16.87-24.36-.69-1.64-1.72-3.14-2.96-5.35-2.97,6.28-2.59,12.59-3.89,18.51-1.12,5.14-2.99,9.24-8.88,10.5-2.46.53-4.43.5-6.6-.63-4.09-2.14-7.28-5.21-9.78-9.02-6.82-10.42-10.01-21.93-10.88-34.32-1.1-15.65,2.38-30.45,7.41-45,.75-2.16.31-3.62-.88-4.95-10.43-11.66-15.96-25.92-19.82-40.58-3.49-13.24-11.72-23.09-19.66-33.36-2.64-3.41-4.56-7.12-6.07-11.11-2.36-6.25-.77-11.71,3.49-16.47,4.13-4.61,9.37-5.77,15.38-4.55,12.96,2.64,24.82,7.49,34.66,16.6,1.23,1.13,2.69,2,4.42,1.96,21.88-.56,40.07,8.62,57.32,20.96,21.81,15.6,39.6,34.81,53.52,57.64,5.1,8.36,8.12,17.72,12.01,26.65,6.28,14.43,13.63,28.33,20.37,42.53,1.6,3.36,4.62,4.93,7.55,5.93,22.17,7.58,40.35,21.13,56.87,37.27.35.35.74.67,1.06,1.05,6.78,8.11,6.49,8.92-4.2,10.9-9.06,1.68-18.35,2.17-27.12,5.24-1.43.5-3.82.01-4.13,1.81-.32,1.84,1.53,3.15,2.85,4.42,5.23,5,11.92,7.8,17.79,11.83,6.46,4.44,12.43,9.4,17.36,15.49,2.41,2.97,4.93,5.78,7.71,8.41,1.68,1.58,3.06,3.46,3.12,6.68-6.56-4.87-12.49-9.66-19.04-13.63-4.99-3.02-10.46-4.85-15.49-7.7-9.73-5.5-19.13-11.28-26.04-20.4-2.15-2.84-3.12-6.19-4.94-9.16-1.48-2.42,1.2-2.85,2.41-3.32,9.38-3.66,18.97-6.58,29.18-6.66,3.17-.03,6.33,0,9.5.02,1,0,2.11.1,2.67-.92.72-1.31-.4-2.27-1.14-2.92-1.47-1.31-3.22-2.3-4.84-3.43-5.58-3.91-11.29-7.66-16.71-11.79-8.75-6.66-18.92-10-29.25-12.91-7.13-2.01-12.94-5.42-16.38-12.27-9.42-18.79-18.22-37.84-26.33-57.24-5.34-12.77-13.35-24.07-22.15-34.73-13.88-16.82-30.38-30.55-49.69-40.66-8.58-4.5-17.38-8.32-27.65-8.27-7.56.04-14.89-1.12-21.35-7.1-6.84-6.33-16.1-9.35-25.22-11.96-3.41-.98-6.64-1.27-8.64,1.4-2.04,2.73-1.28,6.27.34,9.34,3.13,5.9,7.54,10.91,11.67,16.05,8.51,10.59,12.35,23.12,16.24,35.77,3.25,10.58,7.52,20.72,15.98,28.54,2.63,2.43,3.35,5.65,2.18,9.54-2.48,8.27-6,16.17-7.38,24.86-1.75,10.97-.9,21.61,1.29,32.34,1.18,5.76,3.9,10.8,6.6,15.86.84,1.57,2.17,2.94,3.47,4.2.93.9,2.19,1.8,3.59,1.27,1.61-.6,1.13-2.26,1.18-3.49.26-6.58,1.53-12.97,2.94-19.39,1.44-6.58,5.18-11.68,9.41-16.58,1.52-1.76,2.62-2.26,3.67.76,6.56,18.75,16.3,35.86,27.52,52.17,2.7,3.92,5.56,7.73,8.34,11.59l.08-.07Z"/>
      <path class="cls-1" d="m347.64,265.95c14.22-.38,26.67,3.15,38.24,9.96.56.33,1.6.63,1.61.99.21,4.5-2.5,8.04-4.37,11.76-1.21,2.4-3.52,1.27-5.64.46-10.85-4.14-22.23-5.25-33.61-3.94-8.68,1-14.9,6.65-17.66,14.82-2.66,7.87,2.08,18.46,9.54,23.88,9.48,6.9,20.13,11.82,30.23,17.66,8.84,5.11,18.07,9.54,24.49,18.12,3.71,4.96,5.91,10.36,6.5,16.2,2.64,26.23-11.02,44.26-35.01,50.4-21.8,5.58-42.09,1.78-60.97-10.39-2.59-1.67-2.92-3.16-1.36-5.59.99-1.53,2.14-3.15,2.48-4.87,1.1-5.6,4.27-4.5,7.81-2.74,9.85,4.9,20.26,7.88,31.28,7.08,8.39-.61,16.33-2.54,22.76-9.14,7.22-7.41,7.81-21.85-.29-29.88-7.42-7.36-16.76-11.6-25.55-16.77-9.2-5.42-19.1-9.69-27.02-17.18-9.04-8.55-12.82-19.36-11.72-31.21,1.64-17.71,11.22-30.24,28.13-36.59,6.69-2.51,13.67-3.62,20.12-3.04Z"/>
      <path class="cls-2" d="m232.58,407.53c4.95-13.69,8.94-27.18,12.53-40.8,3.68-13.96,6.18-28.16,8.67-42.35.64-3.65,1.68-7.45,1.29-11.25-.28-2.72.71-3.57,3.29-3.53,6.33.09,12.67.17,18.99-.04,2.87-.09,3.07.98,2.71,3.39-1.68,11.54-4.41,22.86-7.23,34.14-6.44,25.83-13.62,51.45-25.93,75.25-8.31,16.07-17.95,31.23-34.31,40.4-9.91,5.55-20.34,8-31.57,3.3-3.1-1.3-4.34-2.66-4.29-6.09.14-9.2-.02-9.07,8.96-9.09,7.86-.02,14.99-1.45,21.34-7.2,7.86-7.12,8.39-15.89,6.36-24.61-3.05-13.08-7.54-25.83-11.65-38.65-7.04-21.97-14.28-43.87-21.38-65.82-1-3.09-.89-5.35,3.62-5.06,5.64.36,11.33.27,16.99,0,2.83-.13,4.29.88,5.05,3.44,4.01,13.63,7.7,27.37,12.2,40.84,2.9,8.7,5.74,17.41,8.27,26.22,2.12,7.38,4.8,14.69,4.53,22.56-.06,1.69.85,2.99,1.57,4.92Z"/>
      <path class="cls-1" d="m559.89,346.91c0-24.82.08-49.63-.08-74.45-.02-3.65.79-4.99,4.64-4.74,5.31.35,10.67.36,15.98,0,3.94-.26,4.61,1.25,4.6,4.82-.12,42.8.02,85.61-.21,128.41-.03,5.11,1.28,6.39,6.3,6.25,12.98-.38,25.98,0,38.97-.2,3.73-.06,5.62.66,5.08,4.86-.61,4.71,2.04,10.86-1.15,13.85-2.92,2.73-8.91.76-13.54.77-18.66.08-37.31-.07-55.97.12-3.77.04-4.73-1.02-4.71-4.75.17-24.98.09-49.96.09-74.95Z"/>
      <path class="cls-1" d="m678.87,419.36c1.28-3.35,2.6-6.15,3.41-9.1.81-2.96,2.68-3.39,5.25-3.12,2.98.31,2.01,2.58,2.06,4.19.12,3.65.13,7.31,0,10.96-.06,1.57,1.03,4.24-2.01,4.07-2.92-.16-1.61-2.76-1.73-4.33-.2-2.62-.05-5.27-.05-8.76-2.72,3.06-3.47,6.22-4.57,9.15-.58,1.53-.55,3.39-2.84,3.42-2.07.03-2.18-1.7-2.69-3.04-1.22-3.19-2.42-6.4-4.48-9.57,0,3.48.02,6.95,0,10.43,0,1.17-.02,2.47-1.68,2.49-1.75.02-1.61-1.35-1.62-2.49-.03-4.15-.06-8.31,0-12.46.02-1.33-.66-3.35,1.79-3.26,1.69.07,3.53-.96,4.61,2.11,1.03,2.96,1.55,6.44,4.59,9.29Z"/>
      <path class="cls-2" d="m477.99,58c0,.66.09,1.34-.02,1.98-.34,1.98-.84,4.34-2.89,4.76-1.96.4-2.26-2.1-2.78-3.45-1.59-4.08-4.6-7.11-7.21-10.44-1.52-1.94-1.35-2.67,1.3-2.87,7.25-.56,11.54,3.06,11.59,10.03Z"/>
      <path class="cls-1" d="m655.34,407.13c.83,0,1.69-.12,2.49.03,1.68.3,4.28-1.09,4.84,1.13.64,2.53-1.88,2.46-3.69,2.72-1.71.25-1.24,1.72-1.27,2.78-.07,2.83.03,5.66-.05,8.49-.04,1.51.66,3.66-2.11,3.55-2.79-.11-1.77-2.32-1.85-3.75-.15-2.49-.12-5-.02-7.49.11-2.55.06-4.78-3.51-4.38-.93.1-2.14.1-2.22-1.33-.1-1.71,1.19-1.72,2.38-1.74,1.67-.02,3.33,0,5-.02Z"/>
    </g>
  </g>
</svg>