<?xml version="1.0" encoding="UTF-8"?>
<svg id="Layer_2" data-name="Layer 2" xmlns="http://www.w3.org/2000/svg" viewBox="0 0 392.42 269.12">
  <defs>
    <style>
      .cls-1 {
        fill: #abb2df;
      }

      .cls-2 {
        fill: #7e8cc8;
      }

      .cls-3 {
        fill: #8788a9;
      }

      .cls-4 {
        fill: #7f8ec9;
      }

      .cls-5 {
        fill: #fff;
      }

      .cls-6 {
        fill: #929bd5;
      }

      .cls-7 {
        fill: #505e9b;
      }

      .cls-8 {
        fill: #f6f6fb;
      }

      .cls-9 {
        fill: #7988c3;
      }

      .cls-10 {
        fill: #9ba5cd;
      }

      .cls-11 {
        fill: #7b7da5;
      }

      .cls-12 {
        fill: #7887c2;
      }

      .cls-13 {
        fill: #4d517f;
      }

      .cls-14 {
        fill: #b5b4c0;
      }

      .cls-15 {
        fill: #bbc1e5;
      }

      .cls-16 {
        fill: #8b9dd7;
      }

      .cls-17 {
        fill: #6573af;
      }

      .cls-18 {
        fill: #97a0c6;
      }

      .cls-19 {
        fill: #8190cb;
      }

      .cls-20 {
        fill: #9e9db4;
      }

      .cls-21 {
        fill: #8894cb;
      }

      .cls-22 {
        fill: #a5bce6;
      }

      .cls-23 {
        fill: #a3a1b1;
      }

      .cls-24 {
        fill: #6f6c85;
      }

      .cls-25 {
        fill: #b3b9e2;
      }

      .cls-26 {
        fill: #606eaa;
      }

      .cls-27 {
        fill: #8c9bd6;
      }

      .cls-28 {
        fill: #363254;
      }

      .cls-29 {
        fill: #5967a4;
      }

      .cls-30 {
        fill: #89879b;
      }

      .cls-31 {
        fill: #c9cee4;
      }

      .cls-32 {
        fill: #e1e3f3;
      }

      .cls-33 {
        fill: #fdfdfd;
      }

      .cls-34 {
        fill: #a6bde6;
      }

      .cls-35 {
        fill: #52609d;
      }

      .cls-36 {
        fill: #7b788f;
      }

      .cls-37 {
        fill: #7f7c92;
      }

      .cls-38 {
        fill: #717fbb;
      }

      .cls-39 {
        fill: #6c7bb7;
      }

      .cls-40 {
        fill: #918fa1;
      }

      .cls-41 {
        fill: #d6d9ef;
      }

      .cls-42 {
        fill: #c2c7de;
      }

      .cls-43 {
        fill: #7583bf;
      }

      .cls-44 {
        fill: #a5bce5;
      }

      .cls-45 {
        fill: #8695d0;
      }

      .cls-46 {
        fill: #9fa7db;
      }

      .cls-47 {
        fill: #a9a7b6;
      }

      .cls-48 {
        fill: #6a78b4;
      }

      .cls-49 {
        fill: #7483ca;
      }

      .cls-50 {
        fill: #e8e9f6;
      }

      .cls-51 {
        fill: #5f6eac;
      }

      .cls-52 {
        fill: #bdbcc7;
      }

      .cls-53 {
        fill: #c7cbea;
      }

      .cls-54 {
        fill: #5e6ca9;
      }

      .cls-55 {
        fill: #fcfcfc;
      }
    </style>
  </defs>
  <g id="Layer_1-2" data-name="Layer 1">
    <g>
      <path class="cls-28" d="m213.07,195.25c-3.4.04-6.72-.71-10.08-1.03-.79-.26-1.17,0-1.12.85.02.35,0,.71,0,1.07,0,14.56,0,29.12,0,43.69,0,.56.09,1.12-.09,1.67-.63,9.66-5.6,16.48-13.93,21.03-6.51,3.55-13.61,5.07-20.89,5.9-1.67.19-3.36.26-5.03.38-1.13.27-2.31-.09-3.44.2-4.55.23-9.11.15-13.61-.33-8.27-.89-16.43-2.45-23.75-6.78-2.92-1.73-5.52-3.85-7.63-6.53-.52-.66-1.11-.93-1.92-1.06-6.43-1.06-12.64-2.78-18.25-6.22-7.63-4.67-11.86-11.42-12.43-20.4-.22-.6-.11-1.21-.11-1.82,0-23.3,0-46.59-.01-69.89,0-.6.18-1.22-.17-1.79-.29-.03-.58-.06-.88-.09-1.96-.2-3.92-.17-5.89-.02-9.06.67-14.98,5.51-18.05,14.71-1.76,5.27-2.29,10.74-2.77,16.23-.86,9.7-1.76,19.4-2.63,29.11-.35,3.85-.7,7.69-.99,11.54-.48,6.26-.71,12.55-1.44,18.77-.71,6.02-4.32,10.23-9.83,12.49-9.06,3.71-18.34,3.73-27.46.24-5.82-2.23-9.52-6.5-10.46-12.87-.02-.14-.14-.26-.21-.39,0-49.44,0-98.88,0-148.31.36-1.64.06-3.29.16-4.94-.12-7.57.54-15.08,2.26-22.46,1.82-7.84,4.8-15.18,9.91-21.5,5.57-6.88,12.63-11.82,20.64-15.46,8.79-4,18.03-6.56,27.52-8.18,2.48-.42,4.34-1.55,6.03-3.24,4.92-4.9,10.18-9.42,15.74-13.59,3.61-2.71,7.62-4.52,11.95-5.68,1.58-.42,3.23-.21,4.82-.56h6.44c1.05.54,2.24.44,3.35.71,3.43.83,6.69,2.06,9.7,3.91.73.45,1.29.49,2.07.12,4.34-2.05,8.82-3.62,13.68-3.86,1.96-.18,3.92-.18,5.87,0,10.89.94,19.15,6.34,25.45,15.05.3.41.59.83.89,1.24,1.85.29,3.7.19,5.55.05,1.72-.04,3.45-.07,5.17-.11,1.96-.28,3.94.1,5.9-.2,2.33-.04,4.65-.07,6.98-.11,2.57-.29,5.16.1,7.73-.2,2.63-.03,5.27-.06,7.9-.1,2.89-.23,5.78-.03,8.67-.1.6-.02,1.22.1,1.81-.1,8.04,0,16.09,0,24.13,0,1.03.3,2.1-.06,3.13.2,15.92.93,31.32,4.06,45.86,10.8,9.53,4.42,18.11,10.22,25.53,17.68.7.7,1.38,1.02,2.39,1.01,9.65-.04,19.31-.04,28.96,0,1.02,0,1.61-.35,2.29-1.11,4.5-5.06,9.65-9.23,16.25-11.27.92-.28,1.9-.37,2.85-.54,1.24-.2,2.49-.15,3.73-.03,2.39.19,4.6.9,6.52,2.35,2.31,1.75,3.6,4.08,3.28,7-.16,1.43.38,1.76,1.57,2.06,2.69.67,5.21,1.76,7.26,3.71,3.36,3.19,3.32,7.45-.11,10.56-1.73,1.57-3.79,2.57-5.99,3.26-.68.21-.89.43-.68,1.27,1.01,3.92-.44,7.25-3.96,9.36-1.87,1.12-3.91,1.7-6.07,1.91-1.24.16-2.48.15-3.72,0-2.95-.23-5.67-1.2-8.29-2.5-4.91-2.44-9.65-5.14-13.11-9.56-.27-.35-.55-.54-1.01-.54-6.26.01-12.52,0-19,0,8.29,14.44,12.26,29.87,12.96,46.22.17,3.49.17,6.99,0,10.48-.41,7.99-2.18,15.66-5.36,23.01-.28.65-.68,1.26-.45,2.02.17.5.09,1.01.09,1.52,0,31,0,62,0,92.99,0,.51.08,1.02-.1,1.52-.6,8.85-5.03,15.31-12.48,19.83-6.26,3.8-13.21,5.5-20.37,6.46-2.63.35-5.26.64-7.92.67-4.02.14-8.03.17-12.05-.01-8.66-.41-17.11-1.76-25.04-5.51-2.27-1.07-4.47-2.29-6.31-3.97-1.23-1.12-2.61-1.4-4.13-1.61-6.75-.93-13.29-2.57-19.27-5.99-8.34-4.77-12.91-11.89-13.32-21.57-.19-.55-.09-1.11-.09-1.67,0-9.84-.01-19.69,0-29.53,0-.82,0-1.54-1.09-1.54Z"/>
      <path class="cls-27" d="m129.68,7.97c5.18-1.53,10.39-1.42,15.51.12,8.6,2.58,14.07,8.73,18.09,16.39,3.98,7.58,6.09,15.76,7.45,24.14,1.57,9.64,2.19,19.36,1.84,29.13-.29,8.1-1.41,16.05-5.07,23.43-4.51,9.07-12.11,13.92-21.8,15.88-3.29.66-6.65,1.07-9.76,2.45-5.89,2.6-9.46,6.93-10.14,13.45-.12,1.13-.03,2.24.19,3.35.36,1.86,1.93,2.87,3.9,2.53,1.6-.28,2.66-1.81,2.46-3.52-.49-4.08,1.19-7.36,4.81-9.45,2.24-1.3,4.71-1.88,7.23-2.32-.49,3.59-1.38,7.1-1.99,10.66-.43,2.52-.94,5.02-1.5,7.51-.4,1.74-.46,3.43.23,5.1,0,.32-.26.54-.48.44-1.32-.63-1.78.38-2.38,1.17-2.51,3.34-5.02,6.69-7.52,10.04-.6.8-1.24,1.47-2.31,1.59-.96.11-1.46.86-1.98,1.56-2.72,3.64-5.45,7.26-8.17,10.89-.37.49-.71,1-1.11,1.46-.42.49-.83,1.21-1.58,1-.83-.24-.6-1.07-.61-1.71-.02-.66,0-1.32-.27-1.95-.02-5.77-.02-11.54-.06-17.31,0-1.77-.93-2.96-2.43-3.25-1.73-.34-3.13.39-3.78,1.86-.28.64-.13,1.31-.36,2.07-6.54-2.24-13.11-4.37-20.02-5.72,10.16-7.7,14.17-18.45,16.2-30.25.52-3.02.83-6.06.86-9.12,0-.8.29-1.15,1.01-1.43,3.6-1.43,6.05-4.06,7.7-7.5.69-1.44.44-2.57-.69-3.15-1.21-.63-2.31-.17-3.13,1.28-.48.84-.92,1.72-1.52,2.47-3.63,4.62-9.71,4.93-13.92.73-.32-.32-.6-.7-.92-1.03-.91-.95-2.27-1.1-3.17-.36-.94.78-.98,1.99-.03,3.12,2.28,2.7,5.09,4.6,8.63,5.1,1.5.21,1.85.79,1.75,2.23-.62,8.31-2.2,16.36-6.14,23.8-2.28,4.29-5.17,8.08-9.35,10.73-2.29,1.45-4.74,2.25-7.51,2.18-5.37-.15-10.6.6-15.42,3.14-6.96,3.66-10.76,9.76-13.06,17.01-1.72,5.43-2.26,11.06-2.76,16.7-.55,6.09-1.18,12.18-1.72,18.27-.48,5.43-.91,10.87-1.34,16.31-.63,8.03-1.12,16.08-1.91,24.09-.43,4.42-3.34,7.2-7.38,8.56-6.93,2.33-13.94,2.38-20.83-.23-4.68-1.77-6.97-5.29-6.97-10.27,0-12.51,0-25.02,0-37.53,0-.41.04-.81.05-1.22.94.33.68,1.16.69,1.81.01,1.48.03,2.95.61,4.35.18.44.13,1.14.82,1.11.58-.02.84-.58.94-1.08.4-2.09,1-4.17,1.02-6.31.05-7.99.6-15.96.69-23.94.02-2.13.27-4.26.26-6.4.06-4.33.24-8.66.49-12.98.18-3.15.24-6.32.33-9.47.11-4.33.53-8.65.41-12.99.38-7.27.25-14.54.27-21.81,0-2.24-.06-4.48.04-6.71.37-10.49,1.09-20.94,4.54-30.98.31-.92.68-1.81,1.04-2.71,2.39-5.88,5.84-11.07,10.36-15.53,4.81-4.74,10.44-8.29,16.56-11.09,2.27-1.04,4.57-2.02,6.93-2.86,7.84-2.72,15.88-4.62,24.07-5.93,1.81-.29,1.84-.27,2.11,1.52.18,1.16.8,1.81,2.01,1.93,1.77.18,3.23-.36,4.7-1.38,9.24-6.39,18.44-12.85,28.1-18.61,7.55-4.5,15.58-7.89,24.35-9.25,5.57-.86,11.08-.74,16.29.9-2.61-1.91-5.6-3.58-8.9-4.74-4.41-1.54-8.92-1.49-13.48-1.21-.7.04-1.41.34-2.04-.23Z"/>
      <path class="cls-7" d="m333.56,98.66c.74,2.08.67,4.3.84,6.44.8,10.17.32,20.23-3.02,29.99-1.29,3.77-2.98,7.36-5,10.8-.17.3-.29.62-.44.94.52.32.84-.07,1.17-.22,1.84-.84,1.84-.85,1.84,1.25,0,29.46,0,58.93,0,88.39,0,5.07-1.12,9.79-4.55,13.74-2.96,3.4-6.74,5.56-10.9,7.08-4.9,1.78-9.98,2.72-15.18,3.11-3.45.26-6.9.56-10.36.57-.44,0-.87,0-1.69,0,3.3-2.47,4.93-5.54,5.6-9.15.66-3.59-.1-7.08-.93-10.54-1.1-4.58-2.62-8.99-5.51-12.81-.89-1.17-1.98-2.07-3.41-2.46-.88-.24-1.26-.77-1.6-1.61-1.63-3.96-3.34-7.9-6.51-10.96-2.87-2.78-6.21-2.8-9.09-.04-1.26,1.2-2.41,2.49-3.27,4.01-.24.43-.45.99-1.11.85-4.54-.99-7.29,1.61-9.69,4.86-.86,1.17-1.63,2.41-2.66,3.96v-43.31c.99.39.63,1.27.64,1.94.03,7.3.01,14.6.03,21.89,0,.68-.35,1.71.35,1.96.73.26,1.06-.79,1.47-1.33,9.54-12.69,19.09-25.37,28.56-38.11,1.14-1.53,2.81-2.34,4.05-3.68,1.95-2.1,3.68-4.37,5.38-6.67,7.46-10.16,15.16-20.15,22.62-30.31,1.84-2.5,3.55-5.15,5.52-7.48,5.35-6.31,9.65-13.38,14.88-19.76.49-.59.85-1.27,1.07-2.02.16-.54.4-1.05.94-1.34Z"/>
      <path class="cls-38" d="m154.59,234.72c-1.1-1.88-2.07-3.84-3.72-5.34-.54-.49-1.08-1-1.78-1.14-1.45-.28-2.02-1.28-2.48-2.53-.56-1.52-1.25-2.98-1.89-4.47,1.79.44,2.54-.84,3.42-2.01,9.94-13.28,19.92-26.54,29.85-39.83.95-1.27,1.93-2.34,3.63-2.51,1.11-.11,1.71-1.01,2.33-1.84,8.22-10.88,16.28-21.86,24.48-32.75,2.33-3.1,4.7-6.17,6.96-9.33.27-.38.54-.74.98-.94.94-.39,1.96-.57,2.85-1.1,1.54-.92,2.43-2.28,2.79-4.02,1.94-9.55,3.76-19.12,5.65-28.68.1-.5.19-1,.29-1.5.2-.99.79-1.52,1.8-1.53,3.32-.04,6.64-.15,9.95.05,2.48.15,2.99.8,2.9,3.3-.08,2.25-.5,4.46-.95,6.66-1.36,6.7-2.62,13.42-3.96,20.12-.67,3.37.24,5.06,3.41,6.37.5.25,1.09.24,1.59.52.53,1.08-.32,1.72-.83,2.4-5.5,7.36-10.94,14.77-16.48,22.1-6.99,9.24-13.86,18.58-20.82,27.85-.15.2-.29.43-.46.61-.53.57-.88,1.65-1.86,1.24-.8-.33-.26-1.28-.36-1.95-.1-.7.09-1.43-.1-2.13-.6-1.45-1.57-2.32-3.26-2.23-1.37.08-2.51.43-2.94,1.91-.15.16-.22.37-.35.55-7.23,9.44-14.3,19.01-21.45,28.51-5.47,7.26-10.91,14.53-16.36,21.8-.43.57-.88,1.13-1.37,1.65-.43.45-.91.65-1.47.19Z"/>
      <path class="cls-54" d="m333.56,98.66c-1.16,3.93-4.11,6.71-6.43,9.87-2.98,4.05-5.64,8.34-8.84,12.19-2.96,3.55-5.63,7.29-8.4,10.97-7.77,10.3-15.46,20.66-23.22,30.97-1.64,2.18-3.4,4.24-5.68,5.87-1.9,1.36-2.97,3.57-4.37,5.42-8.85,11.71-17.64,23.47-26.46,35.2-.33.44-.5,1.3-1.33.94-.71-.31-.48-1.06-.48-1.64-.01-7.71,0-15.42-.02-23.13,0-.59.22-1.23-.26-1.76-.76-2.11-2.16-3.09-3.92-2.73-1.51.3-2.52,1.83-2.53,3.84,0,.61,0,1.22,0,1.83,0,.68-.34,1.01-1.03,1.04-2.53.12-5.02.71-7.57.63-.48-.75.09-1.25.47-1.76,8.7-11.6,17.39-23.21,26.06-34.83,1.28-1.71,2.66-2.57,4.87-2.48,2.53.1,5.1.32,7.63-.19,3-.99,4.7-2.97,5.15-6.16.42-2.97,1.13-5.9,1.74-8.84.17-.8.31-1.64,1.29-1.89,4.24-.16,8.48-.02,12.71-.08,2.02-.26,4.04-.46,6.05-.8,12.7-2.1,22.44-12.9,24.35-25.26.17-1.11.32-2.22.47-3.33.25-1.36.24-2.71,0-4.07-.41-3-1.13-5.89-2.57-8.58-2.75-5.12-7.31-7.59-12.74-8.87-1.93-.46-3.95-.48-5.82-1.19-.87-1.13-.12-2.01.5-2.86,2.48-3.35,4.99-6.69,7.51-10.02,1.35-1.79,2.63-3.62,3.99-5.4.58-.76,1.18-1.56,2.27-1.63,1.8,1.14,3.06,2.79,4.32,4.44.09.2.22-.11.07.03-.02.02-.06-.01-.11-.09-4.12-5.89-8.43-11.63-13.76-16.51-3.5-3.21-7.21-6.13-11.26-8.64-5.81-3.74-11.96-6.79-18.47-9.11-.47-.17-1-.26-1.28-.75-.05-.16-.02-.3.07-.44,32.86,10.76,52.85,36.74,57.06,69.8Z"/>
      <path class="cls-48" d="m154.59,234.72c1.2.24,1.61-.82,2.1-1.47,7.47-9.89,14.89-19.81,22.32-29.73,5.02-6.71,10.03-13.42,15.08-20.11.31-.41.51-1.05,1.2-1.08.25.43.14.9.14,1.35,0,18.71,0,37.43,0,56.14,0,.45.1.92-.13,1.35-.44,7.48-4.51,12.55-10.81,16.07-4.73,2.65-9.94,3.88-15.23,4.66-5.28.79-10.61,1.09-16.24.98,1.55-1.33,2.76-2.65,3.66-4.23,2.36-4.11,2.14-8.48,1.34-12.91-.69-3.82-1.88-7.48-3.43-11.03Z"/>
      <path class="cls-43" d="m216.14,132.38c-2.05,3.4-4.63,6.42-7,9.6-7.67,10.31-15.37,20.59-23.06,30.88-.73.98-1.49,1.93-2.18,2.94-.68,1.01-1.62,1.52-2.8,1.62-.88.08-1.51.46-2.04,1.17-10.49,14.03-21.01,28.04-31.47,42.09-.9,1.21-1.72,1.32-2.87.57-1.44-2.27-2.74-4.65-4.94-6.34-2.77-2.14-5.67-2.05-8.27.33-1.24,1.14-2.4,2.37-3.22,3.85-.5.91-1.01,1.4-2.15.98-.59-.22-1.31-.08-1.97-.1-.02-.16.02-.36.16-.39,2.72-.55,3.87-2.88,5.31-4.78,10.37-13.73,20.7-27.5,31-41.29.94-1.26,1.88-2.39,3.58-2.6.94-.12,1.45-.93,1.96-1.61,5.46-7.27,10.95-14.51,16.36-21.82,6.2-8.38,12.48-16.69,18.77-25,.47-.62.94-1.99,2.21-.85.2.61.03,1.21-.07,1.8-.14.8-.32,1.59-.35,2.4-.16,4.21,1.47,5.96,5.7,6.09,1.83.06,3.65,0,5.48.02.65,0,1.34-.1,1.87.43Z"/>
      <path class="cls-2" d="m203.3,121.36c-1.41.23-1.87,1.51-2.57,2.44-11.39,15.18-22.74,30.4-34.1,45.6-.76,1.01-1.58,2.01-3.01,2.09-.89.05-1.39.57-1.92,1.28-9.78,13.1-19.59,26.16-29.41,39.23-1.65,2.19-3.41,4.29-5.04,6.49-.8,1.08-2.1.88-3.07,1.48-4.75,1.13-6.97,4.98-9.47,9.04v-26.13c.74.08.53.75.71,1.17.21.49.05,1.13.58,1.53.62-.17.83-.73,1.16-1.17,8.99-11.95,17.95-23.91,26.92-35.87,1.01-1.35,1.95-2.72,3.84-3.04.81-.14,1.34-.9,1.83-1.56,7.65-10.4,15.53-20.62,23.14-31.05.21-.29.41-.58.76-.73,2.73-.32,5.47-.51,8.19-1,5.8-1.04,10.76-3.6,14.99-7.73,2.95-2.89,5.44-6.07,7.1-9.86.12-.28.24-.57.45-.79.17-.18.36-.38.65-.27.27.11.32.38.35.63.03.26-.01.51-.06.76-.42,2.15-.83,4.31-1.31,6.45-.09.41-.06.96-.7,1.03Z"/>
      <path class="cls-17" d="m271.94,149.3c-1.9.54-3.87.4-5.75.19-3.39-.38-5.41.94-7.4,3.69-7.97,11.02-16.22,21.83-24.37,32.71-.54.72-1.37,1.26-1.42,2.28-1.25.57-2.62.34-3.91.45-8.73.75-17.46.84-26.15-.67-1.03-.18-1.22-.59-1.19-1.48.06-1.37.03-2.75.04-4.12.51.96.14,2,.25,2.99.04.34-.08.78.38.89.41.11.61-.22.84-.52,2.74-3.66,5.5-7.3,8.23-10.95,5.29-7.07,10.55-14.16,15.84-21.23,4.89-6.54,9.8-13.08,14.68-19.63.33-.44.54-.98.81-1.47.49-.6,1.19-.45,1.82-.47,2.31-.07,4.63.11,6.93-.1,3.02-.55,4.72-2.41,5.35-5.37.27-1.29.41-2.62,1.05-3.81,1.05-.99,1.43-2.46,2.47-3.45.5-.48.98-1.31,1.82-.42-.26,2.84-.81,5.64-1.35,8.44-.98,5.1-1.98,10.2-2.98,15.3-.76,3.89,1.16,6.22,5.13,6.25,2.34.01,4.69-.01,7.03.01.64,0,1.35-.12,1.84.49Z"/>
      <path class="cls-27" d="m179.07,79.37c0-5.2.07-10.39-.25-15.59-.61-9.98-1.96-19.83-4.64-29.48.64-.58,1.43-.47,2.18-.46,5.56.02,11.1-.52,16.66-.33,1.17.04,2.32-.38,3.5-.26,8.23.15,16.44-.48,24.67-.34,1.64.19,3.3-.16,4.93.15,1.24.65.45,1.39.01,1.99-1.46,2.03-2.95,4.04-4.45,6.05-9.15,12.23-18.33,24.43-27.44,36.69-.61.82-1.26,1.61-1.43,2.67-.05.31-.24.56-.61.6-2.84-.32-5.63-.96-8.5-1.09-1.02-.05-2.03-.14-3.05-.16-.56,0-1.13-.01-1.58-.43Z"/>
      <path class="cls-5" d="m179.07,79.37c4.55-.1,9.03.47,13.47,1.45.44-.3.87-.12,1.31.01,5.62,1.7,9.58,5.21,11.77,10.69,1.01,2.53,1.67,5.12,1.69,7.86-.09,1.12-.09,2.23-.23,3.1-.19-.34.24-.92.16-1.51,0-2.27.6-4.45,1.03-6.65,1.72-8.72,3.37-17.45,5.14-26.15.92-4.54,3.15-6.38,7.74-6.4,2.3,0,4.6-.02,6.9,0,4.67.05,7.02,2.95,6.12,7.53-.08.4-.13.8-.16,1.21-.42,2.26-.91,4.5-1.34,6.76-.28,1.45-.14,1.63,1.32,1.64,3.77.04,7.55-.03,11.32.29,4.05.35,8.02.9,11.64,2.9,5.22,3.58,7.09,8.78,6.35,14.76-1.02,8.24-3,16.33-4.59,24.47-.1.53-.14,1.13-.66,1.49-.68,2.6-.51,5.5-2.67,7.58-.93.9-2,1.54-3.32,1.7-3.61.16-7.21.16-10.82,0-3.12-.74-4.68-3.12-4.07-6.26,1.52-7.85,3.06-15.69,4.56-23.54.3-1.55.49-3.12.53-4.71.02-1.04-.32-1.56-1.4-1.77-2.49-.48-4.99-.24-7.48-.25-1.56,0-3.48-.68-4.57.33-1.01.93-.76,2.86-1.05,4.35-1.74,8.84-3.47,17.69-5.22,26.52-.65,3.27-2.55,4.9-6.4,5.58-2.34-.02-4.68-.05-7.03-.05-5.26,0-7.48-2.86-6.27-8,.23-.97.55-1.94.46-2.97.92-2.85,1.21-5.82,1.73-8.76-1.08,1.49-1.68,3.2-2.67,4.72-4.6,7.04-10.69,12.06-19.05,13.92-3.21.72-6.47,1.21-9.78,1.13-.62.47-1.34.44-2.05.44-2.25,0-4.5,0-6.74,0-1.8.01-1.97.14-2.29,1.95-.54,3.12-1.17,6.22-1.85,9.31-.67,3.1-2.89,5.13-5.95,5.58-3.21,0-6.42,0-9.63,0-1.25.04-2.38-.31-3.36-1.08-.47-.37-.98-.75-.72-1.49-.81-1.44-.95-2.91-.61-4.55,1.21-5.87,2.33-11.76,3.45-17.64.1-.53.27-.97.62-1.35.85-.13,1.69-.26,2.76-.43-.68,3.48-1.33,6.84-1.99,10.19-.64,3.29-1.32,6.57-1.93,9.86-.25,1.32-.25,2.59,1.42,3.05,3.4.15,6.8.22,10.2-.04,1.44-.4,2.16-1.42,2.44-2.83.71-3.6,1.42-7.19,2.13-10.79.45-2.26,1.61-3.23,3.92-3.24,4.24-.01,8.48.11,12.71-.03,14.23-.49,24.16-9.45,27.17-21.79.36-1.48.64-2.99.72-4.52.17-1.55.19-3.09-.02-4.64-.83-8.66-6.1-14.01-15.1-15.28-2.11-.3-4.24-.45-6.37-.68-.54-.22-1.11-.11-1.67-.11-2-.02-2,0-1.78-2.02.03-.3.05-.59.08-.89Z"/>
      <path class="cls-19" d="m140.94,147.1c.74,1.63,2.24,1.96,3.79,2.2,3.36.14,6.73.18,10.09-.02,3.09-.72,4.93-2.61,5.51-5.76.6-3.29,1.26-6.57,1.87-9.86.15-.83.37-1.38,1.42-1.36,3.3.07,6.61.05,9.92.06-1.77,3.29-4.28,6.05-6.47,9.03-5.56,7.57-11.23,15.07-16.86,22.58-.8,1.06-1.63,2.03-3.16,2.16-.95.08-1.46,1.03-2.01,1.76-9.46,12.58-18.92,25.17-28.38,37.76-.2.26-.23.79-.71.64-.41-.12-.59-.51-.66-.95-.12-.84-.19-1.7-.57-2.48,0-10.52,0-21.05,0-31.57.63.6.56,1.37.57,2.14,0,.44-.18,1.05.31,1.25.6.24.88-.42,1.16-.77,1.98-2.58,3.92-5.18,5.86-7.79,1.3-1.75,2.58-3.52,3.91-5.25.52-.68,1.09-1.34,2.13-1.25.83.07,1.22-.61,1.64-1.19,2.58-3.46,5.16-6.92,7.76-10.36,1.28-1.69,1.31-1.68,2.89-.99Z"/>
      <path class="cls-27" d="m108.21,225.48c-.72-2.07-1.26-4.17-2.11-6.18-.83-1.98-1.78-3.9-3.32-5.46-.41-.42-.57-.94-.74-1.48-1.14-3.66-2.36-7.28-4.65-10.43-.61-.83-1.3-1.57-2.18-2.13-1.79-1.14-3.76-.97-5.46.6-.81.75-1.48,1.65-2.41,2.71,0-.68,0-1.16,0-1.64,0-14.86,0-29.72,0-44.58q0-1.81,1.72-1.41c6.16,1.44,12.18,3.37,18.14,5.46,1.09.38,1.02,1.05,1.02,1.87,0,12.67-.01,25.33-.01,38,0,8.22,0,16.44,0,24.66Z"/>
      <path class="cls-8" d="m52.43,45.34c-5.74,2.25-11.33,4.77-16.44,8.29-7.43,5.13-13.04,11.73-16.62,20.04-.08.18-.21.34-.31.51-.45.61-.94,1.17-1.58,1.6-2.64,1.8-5.22,3.68-7.91,5.41-.52.33-1.09.66-1.69.24-.57-.39-.4-.96-.24-1.51.18-1.53.37-3.07.55-4.6.68-2.42,1.1-4.89,1.83-7.3,3.78-12.55,11.7-21.64,23.02-27.99,11.18-6.27,23.39-9.27,35.88-11.36,2.21-.37,4.41-.85,6.67-.8,1.13.78,1.2,1.14.22,1.89-1.33,1.02-2.77,1.9-4.16,2.85-5.35,3.64-10.65,7.33-16.07,10.87-1.02.67-2.19,1.09-3.16,1.84Z"/>
      <path class="cls-50" d="m52.43,45.34c.28-.5.68-.89,1.17-1.18,7.57-4.48,14.58-9.78,21.92-14.61.64-.42,1.22-.77.18-1.37.28-.93,1.1-.41,1.64-.62,1.25-.49,2.6-.07,3.86-.52.38-.14.94-.13,1.01.54-.53,1.53-.24,2.86,1.14,3.77,1.44.95,2.89.69,4.29-.24,8.84-5.88,17.81-11.55,27.15-16.6,3.99-2.16,8.02-4.22,12.3-5.75.85-.3,1.73-.52,2.59-.78,2.84-.33,5.69-.48,8.54-.32,6.27.35,11.74,2.74,16.61,6.63.12.09.23.21.32.33.05.06.04.16.07.28-9.97-3.29-19.6-1.6-29.09,1.92-9.42,3.49-17.64,9.12-25.9,14.66-5.21,3.49-10.41,7-15.55,10.6-1.56,1.1-3.2,1.01-4.83.74-1.24-.2-1.8-1.35-1.62-2.59.16-1.08-.32-1.05-1.08-.92-8.23,1.42-16.39,3.16-24.28,5.97-.14.05-.3.04-.45.06Z"/>
      <path class="cls-16" d="m140.06,261.53c-4.65,2.04-10.04.52-13.4-3.74-3.32-4.23-4.43-9.08-3.85-14.37.85-7.83,2.93-15.29,6.63-22.26.91-1.72,2.03-3.31,3.55-4.56,1.89-1.57,3.85-1.61,5.68,0,3.38,2.98,4.92,7.06,6.52,11.09.13.34.07.57-.24.78-3.37,2.28-4.85,5.84-6.18,9.43-1.64,4.41-2.76,8.95-2.71,13.71.04,3.8,1.41,7.04,4.01,9.94Z"/>
      <path class="cls-16" d="m269.5,260.21c-5.19,0-9.73-3.47-11.93-8.87-1.74-4.26-1.73-8.63-.97-13.07,1.21-7.12,3.16-14,6.83-20.29.7-1.19,1.53-2.29,2.55-3.23,2.2-2.05,4.44-2.07,6.62.03.76.74,1.46,1.58,2.04,2.47,1.58,2.39,2.78,4.98,3.77,7.66.17.45.54.92-.09,1.35-3.07,2.1-4.55,5.3-5.82,8.6-1.77,4.58-3.02,9.3-3.04,14.26-.01,3.55,1.03,6.74,3.42,9.4.79.88.29,1.03-.43,1.25-1.03.32-2.09.48-2.95.43Z"/>
      <path class="cls-16" d="m271.55,248.56c.64-6.81,2.15-13.36,6.29-19.01,1.92-2.62,3.79-2.61,5.81-.04,2.71,3.43,4.05,7.51,5.1,11.67.83,3.3,1.58,6.65.96,10.1-.55,3.08-1.89,5.71-4.47,7.56-3.63,2.6-8.41,1.68-11.18-2.09-1.79-2.43-2.58-5.16-2.52-8.19Z"/>
      <path class="cls-16" d="m156.47,251.96c.1,1.69-.62,4.29-2.23,6.65-3.56,5.19-10.18,5.2-13.82.06-2.25-3.17-2.54-6.74-2.08-10.39.61-4.77,1.97-9.35,4.18-13.65.61-1.18,1.33-2.29,2.2-3.3,1.69-1.96,3.45-1.99,5.15-.05,1.84,2.1,2.98,4.6,3.94,7.2,1.47,3.98,2.54,8.05,2.67,13.48Z"/>
      <path class="cls-53" d="m196.52,33.71c-4.25.49-8.52.06-12.76.37-3.2.23-6.38.16-9.57.22-1.09-3.42-2.33-6.79-3.77-10.08.14-.85.83-.58,1.33-.62,2.58-.23,5.18-.06,7.77-.18,6.44-.29,12.9-.22,19.34-.45,2.74.05,5.48-.14,8.21.21.25.03.51,0,.76.05.64.12,1.45.13,1.64.87.17.71-.57,1-1.05,1.34-3.91,2.83-8.03,5.35-11.88,8.26Z"/>
      <path class="cls-49" d="m226.18,233.86c.32-5.5,1.62-10.75,4.21-15.65.64-1.22,1.37-2.66,2.93-2.61,1.44.05,2.16,1.43,2.77,2.61,2.72,5.29,4.26,10.92,4.23,16.88-.01,2.76-.91,5.32-2.91,7.36-2.72,2.77-6.51,2.56-8.88-.53-1.81-2.37-2.52-5.09-2.35-8.06Z"/>
      <path class="cls-49" d="m224.86,239.96c-4.12-1.38-6.04-4.46-7.14-8.16-1.31-4.4-.61-8.8.31-13.15,1-4.74,2.23-9.43,4.83-13.61,2.47-3.96,4.5-3.93,6.91.05,1.38,2.28,2.33,4.75,3.12,7.29.18.57.29,1.01-.54,1.26-1.88.57-3.06,2.02-3.91,3.68-3.07,6.01-4.67,12.37-4.3,19.14.06,1.09.44,2.17.72,3.49Z"/>
      <path class="cls-16" d="m107.03,233.22c-.16,3.23-.83,6.12-3.1,8.39-2.53,2.53-6.16,2.37-8.5-.32-1.98-2.28-2.8-5.02-2.71-7.93.16-5.14,1.45-10.07,3.56-14.77.54-1.21,1.21-2.36,2.17-3.31.94-.93,1.86-.92,2.8.01.59.58,1.08,1.22,1.46,1.95,2.65,5.05,3.9,10.47,4.31,15.98Z"/>
      <path class="cls-29" d="m241.59,226.14c-.87-1.97-1.31-4.05-2.16-6-.86-1.97-1.83-3.87-3.35-5.44-.37-.38-.53-.82-.68-1.33-1.17-3.86-2.46-7.67-5.01-10.91-2.51-3.19-5.8-3.2-8.28,0-.37.47-.75.94-1.38,1.72,0-3-.01-5.67,0-8.33,0-.66.54-.63,1-.64,5.5-.1,10.96-.77,16.44-1.25.05,0,.1,0,.15,0q3.27-.28,3.26,2.96c0,9.24,0,18.49-.01,27.73,0,.5,0,.99,0,1.49Z"/>
      <path class="cls-27" d="m112.54,8.57c-2.97,1.68-5.8,3.24-8.6,4.87-2.78,1.61-5.54,3.24-8.26,4.96-1.24.78-2.48,1.34-3.95,1.41-5.3.24-10.57.72-15.84,1.32-.19.02-.39-.01-.6-.02-.06-.55.38-.73.65-.98,3.9-3.52,7.8-7.07,12.27-9.85,7.5-4.67,15.42-5.43,23.66-2.06.17.07.33.18.66.36Z"/>
      <path class="cls-16" d="m91.59,239.03c-3.94-1.26-5.81-4.05-7.02-7.44-1.25-3.52-1.08-7.13-.53-10.72.82-5.3,2.13-10.47,4.55-15.3.48-.95,1.03-1.88,1.69-2.72,1.82-2.33,3.31-2.32,5.17-.04,1.01,1.23,1.71,2.65,2.35,4.1.37.84.7,1.69,1.01,2.55.3.81.74,1.63.77,2.46.04,1.17-1.29.8-1.92,1.31-2.03,1.64-3.18,3.85-4.09,6.18-1.73,4.44-2.8,9.04-3,13.81-.08,1.88.29,3.74,1.02,5.82Z"/>
      <path class="cls-45" d="m165.56,114.26c5.67-5.18,9.05-11.71,11.11-19,3.2-.84,6.15-.19,8.84,1.62.99.67,1.2,1.9,1.26,3.02.25,4.57-.87,8.79-3.46,12.57-.96,1.4-2.43,2.15-4.02,2.64-4.03,1.26-8.17,1.67-12.38,1.44-1.51-.08-1.64-.33-1.34-2.3Z"/>
      <path class="cls-32" d="m7.64,79.93c.21,1.66.46,1.8,1.83.86,3.21-2.19,6.39-4.41,9.59-6.61-1.65,4.65-3.07,9.37-3.85,14.26-.7,4.37-1.21,8.76-1.42,13.18-.1,2.08-.22,4.17-.33,6.25-1.45,1.6-3.32,2.63-5.14,3.71-.95.56-1.53.13-1.77-1.1-.32-1.7-.27-3.43-.26-5.15,0-1.47,0-2.94,0-4.42.06-1.88-.12-3.77.1-5.65.03-4.9.53-9.76,1.02-14.62.02-.24.15-.48.23-.71Z"/>
      <path class="cls-15" d="m13.17,136.66c.1,7.44-.51,14.86-.68,22.29-.1,4.42-.33,8.84-.54,13.26-1.29,1.15-2.71,2.1-4.17,3.01-.48.31-.97.81-1.64.36-.02-.19-.03-.39-.05-.58-.2-.55-.1-1.11-.1-1.67,0-10.71,0-21.42,0-32.13-.05-.47.2-.74.58-.98,1.69-1.04,3.26-2.26,4.95-3.31.51-.31,1.02-.75,1.66-.27Z"/>
      <path class="cls-41" d="m13.17,136.66c-1.94.47-3.27,1.95-4.89,2.93-.68.41-1.2,1.12-2.12,1.05-.26-.31-.17-.68-.17-1.03,0-7.33,0-14.66,0-21.99,0-.3-.03-.61.1-.9.03-5.19.07-10.38.1-15.57.05-.14.12-.17.23-.06.18,2.84-.25,5.7.32,8.53.45,2.25.59,2.35,2.5.97,1.36-.98,2.7-1.99,4.22-2.72,0,8.03.05,16.06-.04,24.09-.02,1.56-.2,3.13-.25,4.7Z"/>
      <path class="cls-16" d="m349.6,53.6c4.13-1.58,8.08-2.31,12.03-3,3.67-.65,7.37-1.05,11.09-1.15,3.79-.11,7.53.32,11.02,2.01.46.22.89.5,1.31.78,1.1.73,1.08,1.47.03,2.25-2.47,1.83-5.37,2.56-8.31,2.75-8.94.59-17.67-.76-26.25-3.26-.18-.05-.36-.14-.92-.37Z"/>
      <path class="cls-16" d="m123.83,228.6c-1.08,3.82-2.12,7.63-2.79,11.56-1,5.86-.64,11.47,2.41,16.75-5.27-.06-10.82-5.37-10.89-10.78-.11-8.16,2.78-15.35,7.93-21.63,1.22-1.48,2.8-2.54,4.89-2.42.83.05,1.13.29.68,1.12-.36.66-.65,1.37-.97,2.06-1.38-.84-2.53-.31-3.61.61-2.43,2.06-3.64,4.89-4.76,7.74-.98,2.5-1.62,5.11-2.25,7.24.87-3.6,3.2-6.9,5.92-9.95.92-1.02,1.83-2.21,3.42-2.29Z"/>
      <path class="cls-16" d="m257.21,226.45c-.93,3.54-1.98,7.04-2.61,10.66-1.06,6.07-1.02,11.97,2.25,17.49-3.22.19-7.4-2.51-9.36-5.92-1.97-3.42-1.87-7-1-10.67,1.24-5.26,3.12-10.23,6.43-14.57,1.22-1.6,2.64-2.97,4.69-3.51.71-.19,1.54-.41,2.03.14.44.49-.31,1.05-.47,1.6-.08.28-.28.53-.42.79-3.74-.12-5.39,2.55-6.93,5.27-1.44,2.54-2.38,5.3-3.06,8.14-.18.73-.38,1.45-.68,2.15,1.74-4.18,3.97-8.02,7.54-10.93.46-.38.9-.88,1.61-.63Z"/>
      <path class="cls-1" d="m6.14,175.59c1.67-.54,2.98-1.68,4.35-2.7.46-.34.83-.75,1.45-.68-.08,7.49-.57,14.96-.69,22.45-.04,2.38-.21,4.78-.2,7.16,0,2.46-.79,4.79-1.02,7.21-.05.5-.37.95-.8,1.27-.74.54-1.35.72-1.64-.48-.4-1.66-1.04-3.26-.87-5.03.07-.72.27-1.53-.23-2.23-.03-3.06-.06-6.11-.1-9.17-.3-2.36.1-4.74-.21-7.1-.01-3.57-.03-7.14-.04-10.71Z"/>
      <path class="cls-5" d="m165.56,114.26c.08.06.23.14.22.18-.45,2.08.97,1.75,2.2,1.76,3.18.03,6.29-.36,9.41-.96,3.79-.72,6.18-2.9,7.47-6.44.96-2.65,1.6-5.36,1.54-8.21-.05-2.78-1.02-4-3.67-4.68-1.99-.51-4.02-.62-6.06-.65.71-2.82.71-2.84,3.61-2.72,1.69.07,3.33.45,4.89,1.11,2.37.99,3.71,2.76,4.03,5.31.19,1.45.18,2.9,0,4.35-.32,2.96-1.14,5.77-2.43,8.46-2.21,4.61-6.36,6.01-10.92,6.78-3.64.61-7.3.71-10.98.66-1.08-.02-1.86-.47-2.27-1.48-.44-1.09.49-1.4,1.08-1.9.62-.53,1.25-1.04,1.88-1.56Z"/>
      <path class="cls-27" d="m82.21,27.58c-.82-.71-1.66.02-2.48.03-1.35.02-2.73.12-4.04.56-6.04.54-11.96,1.73-17.85,3.1-8.51,1.98-16.73,4.74-24.42,8.98-13.19,7.28-21.23,18.37-24.55,32.99-.16.7-.02,1.53-.68,2.09,2.29-16.78,10.56-29.36,25.87-37.08,8.77-4.42,18.13-6.97,27.7-8.82,6.4-1.24,12.87-2,19.35-2.7.48-.05,1.04-.28,1.43.1.15.15-.09.55-.35.74Z"/>
      <path class="cls-16" d="m356.84,62.03c5.4.87,10.82,1.27,16.25,1.6.6.04,1.22-.05,1.82-.14.92-.13,1.56.12,1.94,1.05.38.92.26,1.71-.46,2.36-1.06.97-2.38,1.32-3.78,1.45-2.76.25-5.36-.29-7.86-1.46-2.82-1.31-5.5-2.85-7.92-4.87Z"/>
      <path class="cls-51" d="m321.46,52.1c6.74,0,13.32,0,19.9-.01.78,0,1.05.17.65.94-.13.26-.26.63-.18.88.68,2.15-.71,1.89-2.05,1.88-4.54-.04-9.09-.1-13.62.04-1.63.05-2.7-.39-3.48-1.79-.33-.61-.93-1.06-1.22-1.93Z"/>
      <path class="cls-16" d="m357.63,44.89c3.92-3.37,7.98-6.37,13.6-5.68,2.21.27,3.58,1.42,3.45,2.95-.05.62-.22,1.07-.98,1.1-5.38.18-10.73.79-16.07,1.64Z"/>
      <path class="cls-34" d="m257.21,226.45c-3.22,1.9-5.26,4.85-7.04,8.01-.84,1.49-1.52,3.06-2.38,4.57.25-2.42.89-4.73,1.72-7,1.12-3.07,2.44-6.03,4.83-8.38,1.27-1.25,2.64-1.89,4.4-1.18-.51,1.33-1.02,2.66-1.53,3.99Z"/>
      <path class="cls-34" d="m123.83,228.6c-4.12,2.62-6.57,6.55-8.54,10.85-.4.87-.71,1.78-1.14,2.64.46-3.53,1.43-6.92,2.86-10.16,1.03-2.33,2.14-4.62,4.15-6.34.69-.59,1.44-.96,2.27-1.18.76-.2,1.43-.06,1.67.85-.42,1.12-.85,2.23-1.27,3.35Z"/>
      <path class="cls-21" d="m199.26,23.28c-8.34-.19-16.68.38-25.02.4-1.25,0-2.63-.13-3.83.55-.36-.4-.39-.75.23-.85.4-.07.82-.03,1.22-.04,7.91-.15,15.83-.25,23.74-.45,14.45-.36,28.9-.79,43.35-.43,12.8.31,25.37,2.26,37.54,6.41,0,.09,0,.17,0,.26-.57.51-1.15.21-1.73.03-2.05-.61-4.07-1.34-6.18-1.76-6.78-1.73-13.65-2.91-20.61-3.54-3.04-.27-6.08-.52-9.14-.45-.28-.03-.56-.06-.84-.13-.25-.05-.49-.14-.75-.15-6.4-.04-12.8-.03-19.2,0-.36,0-.69.15-1.04.21-3.75.3-7.5.1-11.25-.12-2.17-.13-4.35-.23-6.51.07Z"/>
      <path class="cls-35" d="m241.69,239.87c.26,2.81,1.01,5.44,2.03,7.99.2.49.54,1.07-.48.86-2.68-.57-5.31-1.27-8.23-2.42,3.45-1.15,5.28-3.53,6.68-6.43Z"/>
      <path class="cls-9" d="m101.72,245.31c3.14-1.1,4.99-3.29,6.47-6.47,0,3.21.4,5.89,1.14,8.73-2.63-.46-5.05-1.18-7.61-2.26Z"/>
      <path class="cls-13" d="m195.3,241.17c0-19.31,0-38.62,0-57.92,0-.31,0-.61,0-.92.1-.1.2-.2.31-.31,0,19.13,0,38.26-.02,57.39,0,.59.21,1.23-.28,1.75Z"/>
      <path class="cls-3" d="m6.08,116.72c.02,6.65.04,13.31.06,19.96,0,1.32,0,2.64.01,3.96,0,10.79,0,21.59,0,32.38,0,.66-.05,1.32-.07,1.98-.32-.46-.21-.99-.21-1.48-.01-18.55-.01-37.09-.01-55.64,0-.4-.1-.82.21-1.17Z"/>
      <path class="cls-24" d="m154.84,146.19c-.89.55-1.89.3-2.82.27-2.46-.09-4.94.34-7.38-.23,3.4-.01,6.8-.02,10.2-.04Z"/>
      <path class="cls-11" d="m6.18,186.3c.49,2.35.23,4.73.21,7.1-.48-2.35-.24-4.73-.21-7.1Z"/>
      <path class="cls-20" d="m6.42,101.09c-.08.02-.16.04-.23.06-.06-1.97-.21-3.94.21-5.89,0,1.94.02,3.88.03,5.82Z"/>
      <path class="cls-40" d="m179,80.26c-.26,1.61.53,2.06,2,1.88.47-.06,1-.07,1.45.24-.66,0-1.32.04-1.98.02-1.97-.05-2.01-.12-1.47-2.15Z"/>
      <path class="cls-47" d="m203.91,98.35c.44,1.54.47,3.09.02,4.64,0-1.55-.01-3.09-.02-4.64Z"/>
      <path class="cls-23" d="m189.2,103.3c0-1.45,0-2.9,0-4.35.47,1.45.45,2.9,0,4.35Z"/>
      <path class="cls-28" d="m54.2,81.41c2.87-1.24,5.57-1.5,8.25-1.03,7.12,1.24,10.5,7.96,7.43,14.52-2.83,6.02-10.3,9.63-16.79,8.05-3.2-.78-5.63-2.57-7.04-5.62-.19-.41-.38-.86-.69-1.18-4.45-4.63-3.8-14.31,2.9-18.65,4.43-2.87,9.31-4.58,14.5-5.42.62-.1,1.48-.34,1.84.34.39.75-.32,1.32-.79,1.83-2.37,2.54-5.43,4.13-8.3,5.98-.38.24-.85.36-1.31,1.18Z"/>
      <path class="cls-28" d="m54.47,53.64c3.78.1,8.06.63,12.21,2.03.48.16.98.34,1.37.64.88.66.82,1.54-.15,2.08-1.14.63-2.32.47-3.56.19-10.1-2.29-18.96.12-26.56,7.13-.56.51-.98,1.18-1.5,1.73-1.43,1.51-3.61,1.67-5.11.41-1.52-1.28-1.65-3.11-.28-4.89,3.62-4.67,8.59-7.08,14.2-8.38,2.89-.67,5.84-.94,9.38-.94Z"/>
      <path class="cls-31" d="m241.24,132.12c3.61,0,7.21,0,10.82,0-1.68.55-3.42.17-5.12.25-1.37.07-2.74.04-4.11.05-.52-.14-1.11.09-1.58-.31Z"/>
      <path class="cls-39" d="m258.05,122.84c1.51-7.78,3.03-15.56,4.53-23.34.6-3.13.68-6.27-.22-9.37-.93-3.18-2.72-5.77-5.45-7.68-.79-1.2.07-2.03.69-2.86,3.53-4.75,7.1-9.48,10.66-14.21,5.49-7.3,10.92-14.66,16.37-21.99,1.12-1.51,2.3-2.42,4.23-1.92,1.13.12,2.06.76,3.08,1.17,9.21,4.04,17.42,9.55,24.66,16.52.25.24.57.47.38.9-2.25,1.01-3.08,3.3-4.47,5.06-3.06,3.9-5.97,7.92-8.95,11.88-.59.78-1.16,1.55-.97,2.61-1.46.86-2.94-.01-4.41.05-.49-.14-1-.19-1.51-.19-6.92,0-13.85,0-20.77,0-.41,0-.81,0-1.2.15-3.41.64-5.06,2.79-5.7,6.13-1.94,10.18-3.93,20.34-5.97,30.5-.16.82-.09,1.77-.96,2.32-1.63.4-2.05,1.93-2.88,3.07-.33.45-.32,1.23-1.16,1.18Z"/>
      <path class="cls-5" d="m298.31,79.32c1.43.1,2.86.2,4.29.3,3.59.58,7.17,1.09,10.57,2.52,6.13,2.57,9.18,7.44,10.56,13.64.19.84.25,1.71.37,2.57.17,1.44.15,2.88,0,4.31-.95,13.19-9.36,24.22-21.35,27.95-2.47.77-5.01,1.23-7.59,1.44-.59.05-1.17.16-1.76.25-4.51-.11-9.01-.18-13.52.04-1.03,1.94-1.01,4.15-1.5,6.22-.43,1.8-.63,3.65-1.05,5.46-.67,2.88-2.57,4.58-5.41,5.28-3.01,0-6.01.01-9.02-.01-4.06-.03-6.21-2.61-5.45-6.57,1.23-6.43,2.48-12.86,3.72-19.28.31-1.61.6-3.23.9-4.84,1.03-5.13,2.07-10.26,3.09-15.4,1.23-6.18,2.43-12.37,3.66-18.55.61-3.04,2.49-4.79,5.54-5.31.54-.21,1.11-.11,1.66-.11,6.87,0,13.73,0,20.6,0,.55,0,1.12-.1,1.66.1Z"/>
      <path class="cls-46" d="m291.87,42.9l-3.07-1.21c-4.87-1.22-9.54-3.14-14.47-4.2-3.93-.84-7.82-1.86-11.84-2.18-.51-.04-1-.17-1.45-.42-.13-.08-.24-.2-.31-.34-.22-.81.34-1.06.93-1.32,2.54-1.12,4.59-3.01,6.92-4.46.85-.53.14-1.19.28-1.77,2.55.71,5.1,1.42,7.65,2.13,4.67,1.75,9.28,3.64,13.67,6.03,2.14,1.17,4.28,2.35,6.29,3.75,1.16,1.59,1.11,1.86-.52,2.98-1.23.85-2.5,1.56-4.08,1.01Z"/>
      <path class="cls-6" d="m291.87,42.9c1.89.06,3.36-.91,4.77-1.96.93-.69-.33-1.33-.18-2.02,2.99,1.75,5.72,3.87,8.36,6.08,6.67,5.6,12.17,12.23,16.81,19.57.07.12.12.26.05.49-1.57-1.66-3.14-3.32-4.71-4.99-5.27-5.19-11.1-9.62-17.55-13.25-2.48-1.39-5.06-2.58-7.57-3.92Z"/>
      <path class="cls-42" d="m279.89,132.34c.27-.3.64-.26.99-.26,3.9-.01,7.8-.02,11.7-.03.3,0,.61-.03.83.25-4.51.01-9.01.03-13.52.04Z"/>
      <path class="cls-18" d="m324.11,102.67c0-1.44,0-2.88,0-4.31.41,1.44.41,2.87,0,4.31Z"/>
      <path class="cls-4" d="m260.9,34.33c0,.1,0,.2,0,.29.1.21.06.44-.11.55-2.24,1.41-3.43,3.73-4.95,5.74-6.5,8.56-12.92,17.19-19.33,25.82-.67.9-1.23,1.87-1.8,2.84-.24.41-.36,1.01-1.06.9.1-.85.25-1.71.3-2.56.17-3.07-1.34-5.33-4.38-5.57-3.63-.29-7.32-.46-10.97.15-2.65.44-4.04,2.34-4.53,4.71-1.92,9.25-3.58,18.55-5.51,27.8-.42,2.01-.89,4.04-1.07,6.1-.92-.39-.06-1.27-.5-1.8-.48-5.35-2.11-10.23-6.04-14.08-2.34-2.3-5.34-3.44-8.42-4.39-.32-1.41.68-2.3,1.39-3.25,10.66-14.27,21.34-28.53,32.01-42.79.31-.41.57-.84.62-1.37,1.17-.82,2.49-.38,3.74-.46,5.05.05,10.11.03,15.16,0,4.8-.18,9.56.34,14.32.93.41.05.8.17,1.11.45Z"/>
      <path class="cls-25" d="m230.24,33.4c-1.22,0-2.45,0-3.67.01-1.74,0-3.47-.02-5.21-.03.09-.87.87-1.02,1.44-1.06,3.09-.22,5.3-2.14,7.68-3.77,2.76-1.89,5.51-3.81,8.36-5.57,9.87.07,19.58,1.39,29.14,3.85.29.08.6.11.89.16,1.19.99.81,1.64-.38,2.32-2.49,1.42-4.53,3.57-7.33,4.51-.13.04-.17.33-.26.51-5.11-.29-10.18-1.17-15.32-.94-2.48-.33-4.96-.13-7.44-.13-2.63,0-5.27-.22-7.9.13Z"/>
      <path class="cls-15" d="m238.83,22.98c-1.32,1.59-3.19,2.46-4.82,3.62-2.02,1.44-4.13,2.75-6.14,4.2-1.35.97-2.75,1.63-4.45,1.73-.72.04-1.5.26-2.06.85-8.28-.1-16.55.54-24.83.33.03-.73.59-1,1.11-1.34,3.62-2.46,7.23-4.94,10.83-7.42.29-.2.55-.44,1.05-.84-3.5-1.08-6.89-.75-10.25-.84.43-.4.96-.26,1.46-.26,5.44-.02,10.88-.04,16.32-.05.38-.22.8-.13,1.2-.13,6.26,0,12.53,0,18.79,0,.4,0,.82-.09,1.19.14.2,0,.4,0,.61,0Z"/>
      <path class="cls-28" d="m229.33,65.23c1.49.45,1.94,1.44,1.63,2.92-.74,3.62-1.42,7.25-2.13,10.87-.36,1.82,0,2.49,1.7,3.15,2.84.26,5.68.04,8.52.12.66.02,1.32-.1,1.97.09,3.83.14,7.63.42,11.36,1.42,5.58,1.51,7.33,6.28,7.6,10.13.25,3.52-.7,6.88-1.35,10.28-1.36,7.16-2.8,14.3-4.19,21.45-.53,2.75-1.58,3.65-4.36,3.65-2.4,0-4.8,0-7.2,0-2.37,0-3.2-.97-2.75-3.24,1.45-7.4,2.93-14.79,4.36-22.2.42-2.2.82-4.42.77-6.67-.05-2.36-.89-3.42-3.15-4.09-2.14-.63-4.34-.57-6.53-.57-2.04,0-4.09-.01-6.13,0-2.22.02-3.42.97-3.84,3.14-1.94,9.8-3.87,19.59-5.77,29.4-.69,3.54-1.46,4.23-5.11,4.23-2.15,0-4.29,0-6.44,0-2.26-.01-3.06-.97-2.64-3.16,3.72-19.1,7.46-38.2,11.18-57.31.35-1.78,1.03-3.2,2.97-3.63,3.18-.16,6.35-.17,9.53,0Z"/>
      <path class="cls-12" d="m233.64,70.48c1.97-3.31,4.35-6.33,6.66-9.41,5.31-7.07,10.57-14.16,15.85-21.24.82-1.1,1.68-2.17,2.42-3.32.58-.9,1.69-1.08,2.32-1.88,8.13.95,16.05,2.8,23.79,5.45,1.39.48,2.74,1.07,4.11,1.61-2.59-.51-3.55,1.52-4.75,3.1-8.78,11.7-17.54,23.43-26.3,35.14-.56.75-1.01,1.53-.85,2.52-5.06-2.57-10.58-2.81-16.08-3.07-2.6-.12-5.21-.08-7.81-.06-.81,0-1.22-.07-.98-1.08.6-2.58,1.08-5.18,1.62-7.77Z"/>
      <path class="cls-37" d="m241.02,82.38c-3.5-.01-7,.32-10.49-.21,3.5.01,7-.3,10.49.21Z"/>
      <path class="cls-27" d="m154.81,149.28c-.95.53-1.99.27-2.98.24-2.37-.07-4.76.33-7.11-.22,3.36,0,6.73-.01,10.09-.02Z"/>
      <path class="cls-52" d="m229.33,65.23c-3.18,0-6.35,0-9.53,0,2.38-.57,4.79-.15,7.19-.24.77-.03,1.61-.27,2.35.24Z"/>
      <path class="cls-27" d="m206.99,99.3c.55.49-.04,1.3.5,1.8-.12.62-.23,1.23-.35,1.85-.05,0-.1-.01-.16-.02v-3.63Z"/>
      <path class="cls-34" d="m126.2,241.45c-.06-3.1.64-6.06,1.33-9.01.94-4.02,2.09-7.98,4.07-11.63.72-1.33,1.53-2.64,3.05-3.29.85-.37,1.64-.35,2.3.2,1.29,1.07,2.53,2.21,2.96,4.06-1.86-.6-3.2.28-4.39,1.45-4.48,4.38-6.75,9.97-8.6,15.78-.22.68-.37,1.37-.56,2.06-.04.14-.11.26-.17.39Z"/>
      <path class="cls-34" d="m273.44,219.69c-1.98-.65-3.26.23-4.47,1.31-3.3,2.94-5.05,6.87-6.81,10.77-1.1,2.44-1.83,5.03-2.69,7.58.2-3.04.72-6.02,1.44-8.95,1.14-4.59,2.27-9.19,5.03-13.17,1.89-2.72,4.35-2.76,6.25-.03.49.7,1,1.4,1.24,2.49Z"/>
      <path class="cls-44" d="m275.07,240.8c.66-3.93,1.31-7.89,4.5-10.79,1.1-1,3.03-.65,3.75.65.18.33.23.58-.21.67-3.36.64-4.76,3.36-6.29,5.92-.67,1.13-1.22,2.32-1.75,3.55Z"/>
      <path class="cls-22" d="m149.93,233.27c-4.7,1.55-6.42,5.6-8.29,9.69.05-.59.06-1.19.16-1.78.11-.65.27-1.29.46-1.91.7-2.34,1.47-4.65,3.26-6.44,2.01-2,2.73-1.92,4.4.44Z"/>
      <path class="cls-22" d="m95.61,225.55c.27-3.23.9-6.39,3.24-8.88.76-.81,1.56-.93,2.37-.1.54.55,1.47.89-.24,1.44-2.09.67-3.15,2.73-4.1,4.65-.47.95-.85,1.93-1.27,2.9Z"/>
      <path class="cls-34" d="m96.01,205.97c-2.13-.17-3.33,1.01-4.36,2.45-2.5,3.48-3.95,7.44-5.18,11.49-.13.43-.24.87-.48,1.28-.24-1.48.25-2.89.49-4.3.63-3.76,1.5-7.47,3.05-10.98.06-.14.13-.28.21-.41.77-1.28,1.21-3.07,3.13-2.9,1.86.16,2.26,1.95,3.14,3.37Z"/>
      <path class="cls-25" d="m238.22,22.98c-7.06,0-14.12,0-21.18,0,.33-.33.75-.26,1.15-.26,6.3,0,12.6-.01,18.89-.01.4,0,.82-.07,1.14.28Z"/>
      <path class="cls-55" d="m67.81,91.92c-.73-3.72-3.49-6.36-6.84-6.53-2.18-.11-4.14,1-5.04,2.79-.31.61-.31.98.39,1.29,1.16.51,2.28,1.11,3.53,1.72-.89,1.01-1.97,1.66-3.01,2.32-.87.55-.84,1.04-.32,1.84,1.31,1.99,3.23,3.04,5.44,3.59.53.13,1.17-.14,1.76-.22-.94,1.61-2.66,1.98-4.21,2.32-2.31.49-4.65.38-6.83-.84-3.02-1.69-4.56-5.22-3.77-8.59,1.49-6.37,9.62-10.89,15.85-7.26,2.54,1.48,3.55,3.82,3.56,6.66,0,.36.07.86-.53.92Z"/>
      <path class="cls-27" d="m67.81,91.92c.83-2.46-.42-5.5-2.91-7.06-6.16-3.87-15.46.95-15.81,8.23-.13,2.62.95,4.78,3.09,6.32,3.17,2.27,8.54,1.92,11.55-.7.23-.1.46-.2.88-.39-.13.59-.47.79-.77,1-2.94,2.09-6.13,3.16-9.78,2.46-5.71-1.1-8.61-6.19-6.62-11.64,2.3-6.33,10.31-9.79,16.24-7.08,4.62,2.11,5.77,7.47,4.12,10.68v-1.82Z"/>
      <path class="cls-33" d="m66.25,91.42c.02.95,0,1.68-.74,1.96-.83.31-1.35-.28-1.73-.91-.64-1.04-.98-2.15-.28-3.31.28-.46.78-.52,1.22-.28,1.1.59,1.45,1.64,1.53,2.54Z"/>
      <path class="cls-10" d="m298.31,79.32c-7.98,0-15.95,0-23.93,0,.38-.37.86-.27,1.31-.27,7.1,0,14.2,0,21.3.01.45,0,.93-.11,1.32.25Z"/>
      <path class="cls-28" d="m299.27,82.38c3.76.25,7.48.67,11.09,1.84,6.71,2.18,9.84,7.1,10.68,13.8.16,1.76.16,3.53,0,5.29-.95,12.57-10.78,24.48-25.17,25.71-5.04.43-10.07.2-15.11.29-2.69.05-3.73.9-4.26,3.58-.69,3.5-1.4,6.99-2.08,10.49-.28,1.43-1.01,2.41-2.45,2.81-3.4.22-6.8.18-10.2.02-1.65-.49-1.64-1.75-1.38-3.08.95-4.85,1.93-9.69,2.88-14.54,2.8-14.3,5.59-28.6,8.37-42.9.31-1.61.95-2.9,2.7-3.32,2.09-.2,4.18-.08,6.27-.09,5.67-.02,11.33-.01,17,0,.56,0,1.12-.09,1.67.09Z"/>
      <path class="cls-36" d="m299.27,82.38c-5.92.02-11.83.04-17.75.04-2.4,0-4.79-.03-7.19-.05.33-.33.76-.25,1.15-.25,7.38,0,14.76,0,22.14.02.55,0,1.13-.05,1.64.24Z"/>
      <path class="cls-24" d="m261.76,146.21c3.4,0,6.8-.01,10.2-.02-.89.55-1.89.3-2.82.26-2.46-.09-4.94.36-7.38-.24Z"/>
      <path class="cls-30" d="m321.04,103.31c0-1.76,0-3.53,0-5.29.45,1.76.42,3.53,0,5.29Z"/>
      <path class="cls-27" d="m230.24,33.4c.31-.37.73-.29,1.13-.29,4.36,0,8.72,0,13.08,0,.4,0,.82-.07,1.13.29-5.11,0-10.23,0-15.34,0Z"/>
      <path class="cls-5" d="m296.81,92.5c.86.1,1.73.15,2.58.3,5.37,1,7.44,3.57,7.14,9.02-.17,2.96-.85,5.83-1.96,8.6-1.82,4.53-5.22,6.94-9.95,7.82-4.19.78-8.4,1.04-12.64.94-1.71-.04-2.57-1.18-2.23-2.88,1.37-7,2.76-13.99,4.12-20.98.28-1.43,1.04-2.4,2.46-2.81,3.49-.22,6.99-.18,10.49-.02Z"/>
      <path class="cls-14" d="m296.81,92.5c-3.5,0-6.99.01-10.49.02.78-.53,1.67-.3,2.5-.27,2.66.07,5.34-.29,7.98.25Z"/>
      <path class="cls-26" d="m286.44,116.17c-3.64.08-3.63.08-2.93-3.51,1.06-5.4,2.1-10.8,3.14-16.19.11-.55.12-1.18.92-1.16,4.02.12,8.07-.4,12.05.56,3.02.73,3.91,1.83,3.9,4.92-.02,3.73-.84,7.28-2.78,10.51-1.01,1.68-2.43,2.82-4.36,3.38-3.25.95-6.56,1.48-9.95,1.49Z"/>
    </g>
  </g>
</svg>