<?xml version="1.0" encoding="UTF-8"?>
<svg id="Layer_2" data-name="Layer 2" xmlns="http://www.w3.org/2000/svg" viewBox="0 0 33.73 17.86">
  <defs>
    <style>
      .cls-1 {
        fill: #fff;
      }

      .cls-2 {
        fill: #fdad16;
      }
    </style>
  </defs>
  <g id="Layer_1-2" data-name="Layer 1">
    <g>
      <path class="cls-2" d="m.4,17.84c1.05-.04,2.51-.06,4.72.02,1.02.04,1.26-.38,1.61-2.17.15-.78.74-.36,1.59-.6.76-.3.91-2.13.91-2.13,0-.41.23-.42.36-.36,2.99,1.27,6.16-.65,6.23-.32.55,1.51,2.06,1.4,2.25,1.01-.04.68,1,1.24,1.32,1.08,1.15-.61,1.18-1.05,1.98-1.34,1.47-.63,1.15-1.32,2.56-1.4,1.03-.05,1.37-.22,1.61-.44,1.06-1.04.14-2.43-.5-2.89.24-1.08-1.33-2.4-1.69-3.31.48,0,1.22-.12,2.35-.51.59-.2.45.09,1.49-.01,1.4-.12,1.93-.27,2.37-.47.26-.12,1.61-.09,2.31-.33,2.23-.32,1.88-2.33,1.83-2.52-.02-.08-.04-.08-.46-.08-.56.04-1.57-.25-2.39-.12-.32.04-.82-.1-1.61,0-.98-.17-1.69.09-2.83-.32-.17-.05-.13.11-.51.08-.2-.02-.18-.18-.77-.11-.68.08-1.54,0-2.37,0s-1.47-.17-3.47-.34c-.82-.07-1.47-.44-2.07-.14-.92.46-4.1,1.85-7.51,3.54-.07.04-.37.21-.56-.24-.38-.71-.6-.5-1.95-.46-.96-.04-.25-.78-1.3-.75-1.63.04-2.27.17-4.64.12C.28,2.3.02,2.26,0,2.94v14.45c0,.22.1.44.4.44Z"/>
      <path class="cls-1" d="m33.2,1.55c.06.64-1.12.48-1.6.39-.28-.05-.49-.5-.21-.6l1.75.16s.06.04.06.05Z"/>
      <path class="cls-1" d="m23.79,9c-.68.1-.62.38-.99.34-.48-.07-.05-.25-1.71-.21-.48,0-.74-.03-1.06.17-.16-.13-.54-.31-.8-.08-.6-.12-.39-.19-1.41.04-1.37.31-1.65-.25-2.28-.56-.17-.08-.28-.14-.62-.09-2.53.31-1.44.3-4.95.09-1.21-.23-1.69-.88-1.63-2.53.1-1.87.5-1.61,1.53-2.05,4.16-1.85,6.95-3.43,8.03-3.35,3.07.04,2.51.6,6.57.48,1.29-.16,1.25.5,1.73.42.36-.2.06-.39,1.31-.28,2.52.23,3.02-.2,3.25.2.31.54.3.87,1.94.73.13,0,.18-.01.26-.03.2-.05.21.07.02.22-.16.12-1.49.77-3.05.52-.88-.14-.42.2-1.89.2-.64-.04-1.04-.04-1.24-.08-.64.24-1.89.26-2.29.16-.49-.12-.72-.28-1.16-.04-.44.24-1.41.57-2.85.4-1.69-.2-1.6-.53-1.77-.4-.39.3.41.85-.42,1.49-.43.33-.88-.98-1.31-.96-.25.04-.3.27-.18.54.06.13.56.88.14,1.18-.68.5-1.91-1-2.85-.38-.22.17.02.41.28.38.46-.05,1.23.38,1.55.66.42.38,1.63.96,2.07,1.14,1.57.64,2.09.16,2.37.56.24.3.73-.15,1.29-.24,1.05-.17,3.46.69,3.23,1.23-.09.18-.25.16-.47.12-.23-.04-.31-.04-.61,0Z"/>
      <path class="cls-1" d="m23.2,10.3c.24-.52.27-.59.77-.7.44-.1,1.73.28,1.56.82-.13.17-.67.18-1.01.26-.36.08-1.49.21-1.32-.38Z"/>
      <path class="cls-1" d="m7.4,14.55c.52-.03.58-.34.66-.68.12-.48-.24-2.49-.28-5.02-.04-2.53.04-3.25.16-4.62.03-.34.3-.76-.16-.78-1.5-.08-1.97-.2-2.21.98-.28,1.39-.32,6.77.04,9.6.12.22-.18.67,1.79.52Z"/>
    </g>
  </g>
</svg>