<?xml version="1.0" encoding="UTF-8"?>
<svg id="Layer_2" data-name="Layer 2" xmlns="http://www.w3.org/2000/svg" viewBox="0 0 683.27 73.75">
  <defs>
    <style>
      .cls-1 {
        fill: #fa6138;
      }

      .cls-2 {
        fill: #fdad16;
      }
    </style>
  </defs>
  <g id="Layer_1-2" data-name="Layer 1">
    <g>
      <rect class="cls-1" x="60.26" y="19.51" width="34.72" height="34.72" rx="7" ry="7" transform="translate(-3.34 65.68) rotate(-45)"/>
      <rect class="cls-1" y="25.64" width="22.47" height="22.47" rx="3.5" ry="3.5"/>
      <path class="cls-1" d="m681.77,38.37h-88.75c-.83,0-1.5-.67-1.5-1.5s.67-1.5,1.5-1.5h88.75c.83,0,1.5.67,1.5,1.5s-.67,1.5-1.5,1.5Z"/>
      <g>
        <polygon class="cls-2" points="128 60.45 141.7 60.45 141.7 12.09 176.12 12.09 176.12 60.45 189.74 60.45 189.74 0 128 0 128 60.45"/>
        <path class="cls-2" d="m246.2,16.4c-3.41-2.02-7.38-3.02-11.89-3.02-4.25,0-8.1,1-11.57,2.98-3.47,1.99-6.34,4.8-8.62,8.42-.04.07-.08.15-.12.22v-10.41h-13.46v59.16h13.46v-23.78c.06.09.1.19.16.29,2.31,3.63,5.17,6.44,8.58,8.42,3.41,1.99,7.27,2.98,11.57,2.98,4.51,0,8.47-1.01,11.89-3.02,3.41-2.02,6.09-4.84,8.02-8.46,1.93-3.63,2.9-7.83,2.9-12.61s-.97-9.07-2.9-12.69c-1.93-3.63-4.61-6.45-8.02-8.46Zm-4.35,28.25c-1.1,2.04-2.62,3.64-4.55,4.8-1.93,1.16-4.17,1.73-6.69,1.73s-4.92-.58-7.17-1.73c-2.26-1.15-4.23-2.75-5.93-4.8-1.69-2.04-3.02-4.4-3.99-7.09.97-2.69,2.3-5.06,3.99-7.13,1.69-2.07,3.67-3.68,5.93-4.84,2.26-1.15,4.65-1.73,7.17-1.73s4.76.58,6.69,1.73c1.93,1.16,3.45,2.77,4.55,4.84,1.1,2.07,1.65,4.45,1.65,7.13s-.55,5.05-1.65,7.09Z"/>
        <path class="cls-2" d="m306.29,16.4c-4.3-2.02-9.3-3.02-14.99-3.02s-10.69,1.01-14.99,3.02c-4.3,2.01-7.66,4.83-10.08,8.46-2.42,3.63-3.63,7.86-3.63,12.69s1.21,8.99,3.63,12.61c2.42,3.63,5.78,6.45,10.08,8.46,4.3,2.01,9.3,3.02,14.99,3.02s10.69-1.01,14.99-3.02c4.3-2.02,7.64-4.84,10.04-8.46,2.39-3.63,3.59-7.83,3.59-12.61s-1.2-9.07-3.59-12.69c-2.39-3.63-5.74-6.45-10.04-8.46Zm-1.81,28.53c-1.21,2.07-2.93,3.67-5.16,4.8-2.23,1.13-4.9,1.69-8.02,1.69s-5.72-.56-7.98-1.69c-2.26-1.13-3.99-2.73-5.2-4.8-1.21-2.07-1.81-4.53-1.81-7.38s.6-5.39,1.81-7.46c1.21-2.07,2.94-3.67,5.2-4.8s4.92-1.69,7.98-1.69,5.79.56,8.02,1.69c2.23,1.13,3.95,2.73,5.16,4.8,1.21,2.07,1.81,4.55,1.81,7.46s-.6,5.31-1.81,7.38Z"/>
        <path class="cls-2" d="m374.92,26.76c-2.07-4.24-5.01-7.54-8.82-9.87-3.82-2.34-8.38-3.51-13.7-3.51s-9.86,1.01-13.94,3.02c-4.08,2.01-7.29,4.82-9.63,8.42-2.34,3.6-3.51,7.79-3.51,12.57s1.22,9.08,3.67,12.74c2.44,3.65,5.8,6.49,10.08,8.5,4.27,2.01,9.12,3.02,14.55,3.02,4.46,0,8.69-.6,12.69-1.81,4-1.21,7.51-2.89,10.52-5.04v-9.03c-2.79,1.83-5.94,3.24-9.43,4.23-3.49,1-6.96,1.49-10.4,1.49-3.82,0-7.07-.59-9.75-1.77s-4.73-2.9-6.12-5.16c-.54-.87-.94-1.82-1.27-2.82h38.18c0-5.75-1.03-10.75-3.1-14.99Zm-29.58-1.81c2.01-1.1,4.39-1.65,7.13-1.65,2.52,0,4.73.51,6.61,1.53,1.88,1.02,3.37,2.47,4.47,4.35.63,1.07,1.09,2.29,1.43,3.63h-25.58c.28-1.17.69-2.26,1.25-3.26,1.1-1.96,2.66-3.49,4.67-4.59Z"/>
        <polygon class="cls-2" points="437.42 14.59 422.75 14.59 399.38 43.34 399.38 14.59 385.92 14.59 385.92 60.45 398.01 60.45 412.86 43.16 423.4 60.45 438.79 60.45 421.44 33.18 437.42 14.59"/>
        <polygon class="cls-2" points="439.44 24.9 457.65 24.9 457.65 60.45 471.11 60.45 471.11 24.9 489.33 24.9 489.33 14.59 439.44 14.59 439.44 24.9"/>
        <rect class="cls-2" x="548.41" y="14.59" width="13.46" height="45.86"/>
        <path class="cls-2" d="m534.58,29.86c-2.88-1.37-6.28-2.06-10.2-2.06h-15.56v-13.22h-13.38v45.86h29.1c3.87,0,7.23-.67,10.08-2.01,2.85-1.34,5.08-3.25,6.69-5.72s2.42-5.32,2.42-8.54-.81-6.14-2.42-8.58c-1.61-2.44-3.86-4.35-6.73-5.72Zm-6.49,19.1c-1.34,1.21-3.25,1.81-5.72,1.81h-13.54v-13.7h13.54c2.47,0,4.38.6,5.72,1.81,1.34,1.21,2.01,2.92,2.01,5.12s-.67,3.75-2.01,4.96Z"/>
      </g>
    </g>
  </g>
</svg>