<?xml version="1.0" encoding="UTF-8"?>
<svg id="Layer_2" data-name="Layer 2" xmlns="http://www.w3.org/2000/svg" viewBox="0 0 569.84 78.08">
  <defs>
    <style>
      .cls-1 {
        fill: #fa6138;
      }

      .cls-2 {
        fill: #fdad16;
      }
    </style>
  </defs>
  <g id="Layer_1-2" data-name="Layer 1">
    <g>
      <rect class="cls-1" x="60.26" y="19.04" width="34.72" height="34.72" rx="7" ry="7" transform="translate(-3.01 65.55) rotate(-45)"/>
      <rect class="cls-1" y="25.17" width="22.47" height="22.47" rx="3.5" ry="3.5"/>
      <g>
        <path class="cls-2" d="m161.94,4.25h-19.81v60.49h8.7v-23.38h11.11c3.16,0,5.46-.72,6.91-2.17,1.45-1.45,2.17-3.56,2.17-6.33V12.76c0-2.77-.72-4.88-2.17-6.33-1.45-1.45-3.75-2.17-6.91-2.17Zm.29,27.25c0,1.16-.18,1.93-.53,2.32s-1.14.58-2.37.58h-8.5V11.31h8.5c1.22,0,2.01.18,2.37.53.35.36.53,1.11.53,2.27v17.39Z"/>
        <path class="cls-2" d="m189.92,18.75c-1.19.84-2.09,1.92-2.71,3.24-.22.48-.39.96-.53,1.44v-5.84h-8.7v47.16h8.7v-32.56c0-4.7,2.03-7.05,6.09-7.05h3.48v-7.63h-1.93c-1.74,0-3.21.42-4.4,1.26Z"/>
        <path class="cls-2" d="m219.73,17.59h-10.34c-3.09,0-5.35.72-6.76,2.17-1.42,1.45-2.13,3.59-2.13,6.43v30.05c0,2.77.71,4.88,2.13,6.33,1.42,1.45,3.67,2.17,6.76,2.17h10.34c3.16,0,5.44-.72,6.86-2.17,1.42-1.45,2.12-3.56,2.12-6.33v-30.05c0-2.83-.71-4.98-2.12-6.43-1.42-1.45-3.71-2.17-6.86-2.17Zm.39,31.7v5.7c0,1.16-.18,1.93-.53,2.32-.36.39-1.14.58-2.37.58h-5.22c-1.16,0-1.93-.19-2.32-.58-.39-.39-.58-1.16-.58-2.32v-27.64c0-1.22.19-2.01.58-2.37.38-.35,1.16-.53,2.32-.53h5.22c1.22,0,2.01.18,2.37.53.35.35.53,1.14.53,2.37v21.94Z"/>
        <rect class="cls-2" x="236.54" width="9.08" height="8.6"/>
        <path class="cls-2" d="m236.73,68.42c0,1.1-.18,1.84-.53,2.22-.36.39-1.14.58-2.37.58h-1.74v6.86h4.35c3.09,0,5.36-.72,6.81-2.17,1.45-1.45,2.18-3.56,2.18-6.33V17.59h-8.7v50.83Z"/>
        <path class="cls-2" d="m272.2,17.59h-9.47c-3.09,0-5.36.72-6.81,2.17-1.45,1.45-2.17,3.59-2.17,6.43v30.05c0,2.77.72,4.88,2.17,6.33,1.45,1.45,3.72,2.17,6.81,2.17h9.28c3.16,0,5.44-.72,6.86-2.17,1.42-1.45,2.12-3.56,2.12-6.33v-5.12h-8.5v3.87c0,1.16-.18,1.93-.53,2.32-.35.39-1.14.58-2.37.58h-4.45c-1.16,0-1.93-.19-2.32-.58-.39-.39-.58-1.13-.58-2.22v-11.21h19.04v-17.68c0-2.83-.72-4.98-2.17-6.43s-3.75-2.17-6.91-2.17Zm-9.95,19.91v-10.24c0-1.16.19-1.92.58-2.27.39-.35,1.16-.53,2.32-.53h4.74c1.16,0,1.92.18,2.27.53.35.35.53,1.11.53,2.27v10.24h-10.44Z"/>
        <path class="cls-2" d="m306.31,17.59h-9.18c-3.09,0-5.36.72-6.81,2.17s-2.17,3.59-2.17,6.43v30.05c0,2.77.72,4.88,2.17,6.33s3.72,2.17,6.81,2.17h9.18c3.16,0,5.46-.72,6.91-2.17s2.17-3.56,2.17-6.33v-6.38h-8.6v5.03c0,1.1-.19,1.84-.58,2.22-.39.39-1.16.58-2.32.58h-4.15c-1.16,0-1.93-.19-2.32-.58-.39-.39-.58-1.13-.58-2.22v-27.44c0-1.16.19-1.92.58-2.27.38-.35,1.16-.53,2.32-.53h4.15c1.16,0,1.93.18,2.32.53.39.35.58,1.11.58,2.27v5.02h8.6v-6.28c0-2.83-.72-4.98-2.17-6.43s-3.75-2.17-6.91-2.17Z"/>
        <path class="cls-2" d="m332.2,9.57h-8.79v8.02h-4.45v7.05h4.45v31.6c0,2.77.72,4.88,2.17,6.33s3.75,2.17,6.91,2.17h6.18v-7.44h-3.67c-1.1,0-1.84-.19-2.22-.58s-.58-1.13-.58-2.22v-29.86h6.47v-7.05h-6.47v-8.02Z"/>
        <path class="cls-2" d="m366.02,40.15c-1.42-1.45-3.67-2.17-6.77-2.17h-5.02c-1.16,0-1.93-.18-2.32-.53-.39-.35-.58-1.11-.58-2.27v-8.12c0-1.16.19-1.92.58-2.27.39-.35,1.16-.53,2.32-.53h2.32c1.22,0,2.01.18,2.37.53.35.35.53,1.11.53,2.27v3.67h8.5v-4.54c0-2.83-.72-4.98-2.17-6.43s-3.75-2.17-6.91-2.17h-7.05c-3.09,0-5.36.72-6.81,2.17s-2.18,3.59-2.18,6.43v9.95c0,2.77.71,4.88,2.13,6.33,1.42,1.45,3.7,2.17,6.86,2.17h4.93c1.22,0,2.01.18,2.37.53.35.36.53,1.11.53,2.27v7.83c0,1.1-.18,1.84-.53,2.22-.36.39-1.14.58-2.37.58h-2.32c-1.1,0-1.84-.19-2.22-.58-.39-.39-.58-1.13-.58-2.22v-3.67h-8.6v4.64c0,2.77.72,4.88,2.18,6.33,1.45,1.45,3.72,2.17,6.81,2.17h7.15c3.09,0,5.36-.72,6.81-2.17s2.17-3.56,2.17-6.33v-9.66c0-2.83-.71-4.98-2.12-6.43Z"/>
      </g>
      <path class="cls-1" d="m568.34,37.9h-156.26c-.83,0-1.5-.67-1.5-1.5s.67-1.5,1.5-1.5h156.26c.83,0,1.5.67,1.5,1.5s-.67,1.5-1.5,1.5Z"/>
    </g>
  </g>
</svg>