<?xml version="1.0" encoding="UTF-8"?>
<svg id="Layer_2" data-name="Layer 2" xmlns="http://www.w3.org/2000/svg" viewBox="0 0 1050 1024.22">
  <defs>
    <style>
      .cls-1 {
        fill: #001e36;
      }

      .cls-2 {
        fill: #31a8ff;
      }
    </style>
  </defs>
  <g id="Layer_1-2" data-name="Layer 1">
    <g>
      <path class="cls-1" d="m0,173.85c1.01-6.88,1.94-13.77,3.05-20.63C14.55,81.92,72.88,20.31,143.48,5.1c10.02-2.16,20.23-3.42,30.35-5.1,234.11,0,468.23,0,702.34,0,9.49,1.51,19.11,2.46,28.46,4.62,85.98,19.87,145.14,93.53,145.23,181.74.22,217.11.09,434.22.06,651.33,0,25.94-4.42,51.21-15.56,74.65-34.52,72.62-92.36,111.16-172.75,111.44-224.41.78-448.83.32-673.25.15-11.59,0-23.29-1.08-34.74-2.91-71.65-11.43-132.66-68.98-148.43-139.83-2.27-10.18-3.49-20.6-5.2-30.91V173.85Z"/>
      <g>
        <path class="cls-2" d="m223.95,494.16c0-73.6,0-147.19,0-220.79q0-9.13,9.08-9.29c47.27-.76,94.54-2.04,141.81-2.12,34.27-.06,67.64,5.87,98.56,21.56,47.01,23.86,73.23,62.52,79.27,114.63,3.8,32.81.57,65-14.48,94.88-19.09,37.91-50.35,61.61-90.43,74.17-29.7,9.31-60.32,11.61-91.22,11.47-10.99-.05-21.98-.22-32.95-.72-4.56-.21-5.55,1.47-5.54,5.71.13,43.79.08,87.58.08,131.37,0,8.92-.45,9.39-9.28,9.39-25.47,0-50.95.01-76.42,0-8.07,0-8.46-.39-8.46-8.5,0-73.93,0-147.86,0-221.78Zm95.16-145.9v148.35c14.11,0,27.88.06,41.66-.01,18.12-.1,35.8-3.12,52.82-9.24,16.14-5.8,29.46-15.57,37.85-30.85,7.73-14.09,8.9-29.67,7.36-45.19-2.57-25.89-15.49-44.88-40.04-55.04-13.83-5.72-28.28-8.7-43.24-8.81-16.48-.13-32.96.02-49.44.12-2.28.01-4.56.44-6.96.68Z"/>
        <path class="cls-2" d="m601.5,668.65c0-12.32-.07-24.64.03-36.96.05-6.34,1.57-7.13,7.15-4.03,35.05,19.46,72.73,28.17,112.64,26.53,9.12-.37,18.57-2.44,27.07-5.78,14.01-5.5,17.02-21.69,6.22-32.17-5.26-5.1-11.79-9.37-18.48-12.41-16.78-7.64-34.16-13.95-50.95-21.56-19.74-8.95-38.62-19.42-54.41-34.73-44.83-43.48-34.4-117.05,13.65-151.16,20.9-14.84,44.28-22.5,69.61-24.83,31.86-2.93,63.48-1.15,94.8,5.25,6.64,1.36,13.1,3.71,19.52,5.95,7.85,2.75,8.84,4.36,8.86,12.85.04,14.32.01,28.63.01,42.95,0,7.49.02,14.98,0,22.47-.03,7.73-3.74,9.95-10.95,6.95-9.19-3.83-18.26-8.19-27.78-10.93-23.94-6.9-48.44-10.47-73.44-8.61-5.92.44-11.92,1.6-17.56,3.41-15.19,4.86-19.58,22.17-8.32,33.41,4.51,4.49,9.98,8.51,15.74,11.16,17.05,7.83,34.69,14.4,51.67,22.36,15.03,7.04,30.09,14.35,44.09,23.2,32.63,20.63,47.44,50.93,44,89.38-4.32,48.26-32.5,77.36-76.83,92.6-22.93,7.88-46.77,9.92-70.84,9.67-28.41-.29-56.4-3.7-83.51-12.61-5.36-1.76-10.53-4.1-15.76-6.22-4.34-1.75-6.35-4.89-6.29-9.69.15-12.15.05-24.31.06-36.46Z"/>
      </g>
    </g>
  </g>
</svg>