<?xml version="1.0" encoding="UTF-8"?>
<svg id="Layer_2" data-name="Layer 2" xmlns="http://www.w3.org/2000/svg" viewBox="0 0 569.84 78.08">
  <defs>
    <style>
      .cls-1 {
        fill: #fa6138;
      }

      .cls-2 {
        fill: #fdad16;
      }
    </style>
  </defs>
  <g id="Layer_1-2" data-name="Layer 1">
    <g>
      <rect class="cls-1" x="60.26" y="19.04" width="34.72" height="34.72" rx="7" ry="7" transform="translate(-3.01 65.55) rotate(-45)"/>
      <rect class="cls-1" y="25.17" width="22.47" height="22.47" rx="3.5" ry="3.5"/>
      <g>
        <polygon class="cls-2" points="162.04 41.75 151.7 4.25 142.13 4.25 142.13 64.74 149.76 64.74 149.76 20.58 158.08 51.6 166 51.6 174.31 20.49 174.31 64.74 181.94 64.74 181.94 4.25 172.38 4.25 162.04 41.75"/>
        <path class="cls-2" d="m203.78,57.11l-7.15-39.52h-8.89l9.86,46.38h4.73l-.97,3.96c-.26,1.29-.82,2.14-1.69,2.56-.87.42-1.98.63-3.33.63h-3.96v6.96h5.8c3.22,0,5.72-.76,7.49-2.27,1.77-1.51,2.98-3.69,3.62-6.52l9.95-51.7h-8.79l-6.67,39.52Z"/>
        <path class="cls-2" d="m256.44,30.34h-7.05c-1.16,0-1.93-.19-2.32-.58s-.58-1.13-.58-2.22v-13.43c0-1.16.19-1.92.58-2.27.39-.35,1.16-.53,2.32-.53h4.06c1.22,0,2.01.18,2.37.53.35.35.53,1.11.53,2.27v7.54h8.79v-8.89c0-2.77-.71-4.88-2.13-6.33-1.42-1.45-3.71-2.17-6.86-2.17h-9.47c-3.09,0-5.36.72-6.81,2.17-1.45,1.45-2.17,3.56-2.17,6.33v15.94c0,2.77.69,4.9,2.08,6.38,1.38,1.48,3.62,2.22,6.72,2.22h7.15c1.16,0,1.92.18,2.27.53.35.35.53,1.11.53,2.27v14.79c0,1.1-.18,1.84-.53,2.22-.36.39-1.11.58-2.27.58h-4.06c-1.16,0-1.93-.19-2.32-.58-.39-.39-.58-1.13-.58-2.22v-7.54h-8.79v8.89c0,2.77.72,4.88,2.17,6.33,1.45,1.45,3.72,2.17,6.81,2.17h9.47c3.09,0,5.36-.72,6.81-2.17s2.17-3.56,2.17-6.33v-17.39c0-2.77-.71-4.88-2.13-6.33-1.42-1.45-3.67-2.17-6.76-2.17Z"/>
        <rect class="cls-2" x="273.26" y=".1" width="8.7" height="64.65"/>
        <polygon class="cls-2" points="293.94 17.59 283.5 40.1 293.94 64.74 303.21 64.74 292.39 40.1 303.21 17.59 293.94 17.59"/>
        <rect class="cls-2" x="307.56" width="9.08" height="8.6"/>
        <rect class="cls-2" x="307.76" y="17.59" width="8.7" height="47.16"/>
        <rect class="cls-2" x="324.96" y=".1" width="8.7" height="64.65"/>
        <rect class="cls-2" x="342.16" y=".1" width="8.7" height="64.65"/>
        <path class="cls-2" d="m381.49,40.15c-1.42-1.45-3.67-2.17-6.76-2.17h-5.02c-1.16,0-1.93-.18-2.32-.53-.39-.35-.58-1.11-.58-2.27v-8.12c0-1.16.19-1.92.58-2.27.39-.35,1.16-.53,2.32-.53h2.32c1.22,0,2.01.18,2.37.53.35.35.53,1.11.53,2.27v3.67h8.5v-4.54c0-2.83-.72-4.98-2.17-6.43-1.45-1.45-3.75-2.17-6.91-2.17h-7.05c-3.09,0-5.36.72-6.81,2.17s-2.17,3.59-2.17,6.43v9.95c0,2.77.71,4.88,2.13,6.33s3.7,2.17,6.86,2.17h4.93c1.22,0,2.01.18,2.37.53.35.36.53,1.11.53,2.27v7.83c0,1.1-.18,1.84-.53,2.22-.36.39-1.14.58-2.37.58h-2.32c-1.1,0-1.84-.19-2.22-.58s-.58-1.13-.58-2.22v-3.67h-8.6v4.64c0,2.77.72,4.88,2.17,6.33,1.45,1.45,3.72,2.17,6.81,2.17h7.15c3.09,0,5.36-.72,6.81-2.17,1.45-1.45,2.17-3.56,2.17-6.33v-9.66c0-2.83-.71-4.98-2.13-6.43Z"/>
      </g>
      <path class="cls-1" d="m568.34,37.9h-156.26c-.83,0-1.5-.67-1.5-1.5s.67-1.5,1.5-1.5h156.26c.83,0,1.5.67,1.5,1.5s-.67,1.5-1.5,1.5Z"/>
    </g>
  </g>
</svg>