<?xml version="1.0" encoding="UTF-8"?>
<svg id="Layer_2" data-name="Layer 2" xmlns="http://www.w3.org/2000/svg" viewBox="0 0 831.52 61.09">
  <defs>
    <style>
      .cls-1 {
        fill: #fa6138;
      }

      .cls-2 {
        fill: #fdad16;
      }
    </style>
  </defs>
  <g id="Layer_1-2" data-name="Layer 1">
    <g>
      <rect class="cls-1" x="60.26" y="13.18" width="34.72" height="34.72" rx="7" ry="7" transform="translate(1.14 63.83) rotate(-45)"/>
      <rect class="cls-1" y="19.31" width="22.47" height="22.47" rx="3.5" ry="3.5"/>
      <path class="cls-1" d="m830.02,32.04h-60.22c-.83,0-1.5-.67-1.5-1.5s.67-1.5,1.5-1.5h60.22c.83,0,1.5.67,1.5,1.5s-.67,1.5-1.5,1.5Z"/>
      <g>
        <polygon class="cls-2" points="170.96 46.9 149.76 0 128.91 0 128.91 59.89 141.77 59.89 141.77 12.16 163.97 59.89 177.94 59.89 200.06 12.19 200.06 59.89 213 59.89 213 0 192.16 0 170.96 46.9"/>
        <path class="cls-2" d="m264.26,16.25c-4.26-2-9.21-3-14.85-3s-10.59,1-14.85,3c-4.26,2-7.59,4.79-9.98,8.38-2.4,3.59-3.59,7.79-3.59,12.58s1.2,8.9,3.59,12.5c2.4,3.59,5.72,6.39,9.98,8.38,4.26,2,9.21,2.99,14.85,2.99s10.59-1,14.85-2.99c4.26-2,7.57-4.79,9.94-8.38,2.37-3.59,3.55-7.76,3.55-12.5s-1.19-8.98-3.55-12.58c-2.37-3.59-5.68-6.39-9.94-8.38Zm-1.8,28.27c-1.2,2.05-2.9,3.63-5.11,4.75-2.21,1.12-4.86,1.68-7.95,1.68s-5.67-.56-7.9-1.68c-2.24-1.12-3.95-2.7-5.15-4.75-1.2-2.05-1.8-4.49-1.8-7.31s.6-5.34,1.8-7.39c1.2-2.05,2.92-3.63,5.15-4.75,2.24-1.12,4.87-1.68,7.9-1.68s5.74.56,7.95,1.68c2.21,1.12,3.91,2.7,5.11,4.75,1.2,2.05,1.8,4.51,1.8,7.39s-.6,5.26-1.8,7.31Z"/>
        <polygon class="cls-2" points="298.6 47.5 298.6 14.45 285.5 14.45 285.5 59.89 302.19 59.89 326.79 26.2 326.79 59.89 339.88 59.89 339.88 14.45 322.72 14.45 298.6 47.5"/>
        <polygon class="cls-2" points="408.48 31.7 383.64 31.7 383.64 14.45 370.39 14.45 370.39 59.89 383.64 59.89 383.64 41.76 408.48 41.76 408.48 59.89 421.73 59.89 421.73 14.45 408.48 14.45 408.48 31.7"/>
        <path class="cls-2" d="m473.4,14.45l-1.15,10.06c-2.29-3.57-5.13-6.34-8.55-8.3-3.43-1.97-7.28-2.95-11.54-2.95s-8.33,1-11.74,3c-3.41,2-6.06,4.79-7.95,8.38-1.89,3.59-2.83,7.79-2.83,12.58s.94,8.9,2.83,12.5c1.89,3.59,4.54,6.39,7.95,8.38,3.41,2,7.32,2.99,11.74,2.99s8.11-.98,11.54-2.95c3.43-1.97,6.28-4.75,8.54-8.34l1.16,10.09h13.81l-2.64-22.68,2.64-22.76h-13.81Zm-10.42,34.54c-2.21,1.15-4.57,1.72-7.07,1.72s-4.71-.57-6.63-1.72c-1.92-1.14-3.42-2.73-4.51-4.75-1.09-2.02-1.64-4.36-1.64-7.03s.54-5.02,1.64-7.07c1.09-2.05,2.6-3.64,4.51-4.79,1.92-1.14,4.13-1.72,6.63-1.72s4.86.57,7.07,1.72c2.21,1.15,4.16,2.74,5.87,4.79,1.7,2.05,3.03,4.41,3.99,7.07-.96,2.66-2.29,5-3.99,7.03-1.7,2.02-3.66,3.61-5.87,4.75Z"/>
        <path class="cls-2" d="m542.83,38.61c-1.62-1.19-3.68-2.05-6.15-2.6,1.41-.56,2.65-1.26,3.71-2.11,2.55-2.05,3.83-4.72,3.83-8.02,0-3.51-1.28-6.29-3.83-8.35-2.56-2.05-6.02-3.07-10.38-3.07h-34.97l2.55,22.76-2.55,22.68h36.01c4.95,0,8.85-1.13,11.7-3.39,2.85-2.26,4.27-5.36,4.27-9.3,0-3.67-1.4-6.53-4.19-8.58Zm-13.42-14.09c.93.91,1.4,2.08,1.4,3.51,0,1.55-.52,2.77-1.56,3.67s-2.68,1.36-4.91,1.36h-14.5l-1.24-9.9h16.3c2.08,0,3.58.45,4.51,1.36Zm2.6,25.35c-1.07.93-2.74,1.4-5.03,1.4h-18.37l1.33-10.62h16.16c2.66,0,4.58.49,5.75,1.48,1.17.98,1.76,2.25,1.76,3.79,0,1.7-.53,3.02-1.6,3.95Z"/>
        <path class="cls-2" d="m593.37,29.59c-2.85-1.36-6.22-2.04-10.1-2.04h-15.41v-13.09h-13.26v45.44h28.83c3.83,0,7.16-.67,9.98-2,2.82-1.33,5.03-3.22,6.63-5.67s2.4-5.27,2.4-8.47-.8-6.08-2.4-8.5c-1.6-2.42-3.82-4.31-6.67-5.67Zm-6.43,18.92c-1.33,1.2-3.22,1.8-5.67,1.8h-13.42v-13.57h13.42c2.45,0,4.34.6,5.67,1.8,1.33,1.2,2,2.89,2,5.07s-.67,3.71-2,4.91Z"/>
        <rect class="cls-2" x="607.07" y="14.45" width="13.34" height="45.44"/>
        <polygon class="cls-2" points="681.49 14.45 666.96 14.45 643.8 42.94 643.8 14.45 630.46 14.45 630.46 59.89 642.44 59.89 657.16 42.76 667.59 59.89 682.85 59.89 665.66 32.88 681.49 14.45"/>
        <polygon class="cls-2" points="724.61 14.45 700.49 47.5 700.49 14.45 687.4 14.45 687.4 59.89 704.09 59.89 728.68 26.2 728.68 59.89 741.78 59.89 741.78 14.45 724.61 14.45"/>
      </g>
    </g>
  </g>
</svg>