<?xml version="1.0" encoding="utf-8"?>
<!-- Generator: Adobe Illustrator 27.2.0, SVG Export Plug-In . SVG Version: 6.00 Build 0)  -->
<svg version="1.1" id="Layer_1" xmlns="http://www.w3.org/2000/svg" xmlns:xlink="http://www.w3.org/1999/xlink" x="0px" y="0px"
	 viewBox="0 0 98.1 98" style="enable-background:new 0 0 98.1 98;" xml:space="preserve">
<style type="text/css">
	.st0{fill:#0A250B;}
	.st1{fill:#F6EEE1;}
</style>
<circle class="st0" cx="49.1" cy="48.9" r="48.9"/>
<path class="st1" d="M39.2,77.1c23.9,0,37-19.8,37-37c0-0.6,0-1.1,0-1.7c2.5-1.8,4.7-4.1,6.5-6.7c-2.4,1-4.9,1.7-7.5,2
	c2.7-1.6,4.8-4.2,5.7-7.2c-2.6,1.5-5.3,2.6-8.2,3.2c-4.9-5.2-13.1-5.5-18.4-0.6c-2.6,2.5-4.1,5.9-4.1,9.5c0,1,0.1,2,0.3,3
	C40.1,41.1,30.3,36.1,23.7,28c-3.5,5.9-1.7,13.5,4,17.3c-2.1-0.1-4.1-0.6-5.9-1.6c0,0.1,0,0.1,0,0.2c0,6.2,4.4,11.5,10.4,12.8
	c-1.1,0.3-2.3,0.5-3.4,0.5c-0.8,0-1.6-0.1-2.4-0.2c1.7,5.3,6.6,8.9,12.1,9c-4.6,3.6-10.3,5.6-16.1,5.6c-1,0-2.1-0.1-3.1-0.2
	C25.2,75.1,32.1,77.1,39.2,77.1"/>
</svg>
