<?xml version="1.0" encoding="UTF-8"?>
<svg id="Layer_2" data-name="Layer 2" xmlns="http://www.w3.org/2000/svg" viewBox="0 0 198.3 49.57">
  <defs>
    <style>
      .cls-1 {
        fill: #f6f6f6;
      }

      .cls-2 {
        fill: #515151;
      }
    </style>
  </defs>
  <g id="Layer_1-2" data-name="Layer 1">
    <g>
      <rect class="cls-1" x="0" width="198.3" height="49.57" rx="12.68" ry="12.68"/>
      <g>
        <g>
          <path class="cls-2" d="m41.07,35.6c-.51.23-1.04.43-1.59.6.53-.47,1.02-.99,1.47-1.53l-.28-2.22c-1.06,1.6-2.43,2.96-4.05,3.96v-6.06c1.35.08,2.66.37,3.9.86l-.21-1.64c-1.18-.39-2.42-.62-3.69-.69v-4.21h6.55c-.05,1.2-.24,2.37-.55,3.49l1.3,1.07c.46-1.45.74-2.98.8-4.56h3.9c-.14,2.43-.96,4.68-2.27,6.56l1.14.94c1.65-2.33,2.62-5.17,2.62-8.24,0-3.69-1.4-7.05-3.71-9.59l.02-.02-.53-.52c-2.33-2.32-5.32-3.73-8.54-4.07-.02,0-.05,0-.07,0-.2-.02-.39-.03-.59-.05-.04,0-.09,0-.13,0-.08,0-.17,0-.25,0-.32-.03-.65-.04-.99-.05-.1,0-.2.02-.29.06-.02,0-.03,0-.05,0-.2.01-.4.03-.59.05-.02,0-.05,0-.07,0-3.22.34-6.21,1.75-8.54,4.07l-.53.52.02.02c-2.3,2.54-3.71,5.9-3.71,9.59s1.4,7.05,3.71,9.59l-.02.02.53.52c2.33,2.32,5.32,3.73,8.54,4.07.02,0,.05,0,.07,0,.2.02.39.03.59.05.02,0,.03,0,.05,0,.09.04.19.06.28.06h0c.34,0,.67-.02.99-.05.08,0,.17,0,.25,0,.04,0,.09,0,.13,0,.2-.01.4-.03.59-.05.02,0,.05,0,.07,0,1.35-.14,2.66-.48,3.9-.99l-.19-1.53Zm7.55-12.42h-3.9c-.09-2.22-.6-4.35-1.45-6.28.73-.45,1.43-.96,2.08-1.55,1.89,2.1,3.1,4.83,3.27,7.82Zm-4.32-8.86c-.53.47-1.1.89-1.69,1.26-.83-1.49-1.89-2.82-3.13-3.94,1.81.54,3.45,1.46,4.82,2.68Zm-7.69-2.89c1.93,1.2,3.5,2.89,4.63,4.89-1.44.67-3.01,1.07-4.63,1.17v-6.06Zm0,7.54c1.85-.1,3.64-.55,5.29-1.32.74,1.7,1.18,3.58,1.27,5.54h-6.55v-4.21Zm-4.42-7.32c-1.25,1.12-2.3,2.45-3.13,3.93-.59-.37-1.16-.79-1.69-1.26,1.38-1.22,3.02-2.14,4.82-2.68Zm-5.87,3.71c.65.58,1.34,1.1,2.08,1.54-.86,1.92-1.36,4.05-1.45,6.28h-3.9c.17-3,1.38-5.73,3.27-7.82Zm-3.27,9.3h3.9c.09,2.23.59,4.36,1.45,6.28-.73.45-1.43.96-2.08,1.54-1.89-2.1-3.1-4.83-3.27-7.82Zm4.32,8.86c.53-.47,1.1-.89,1.69-1.26.83,1.48,1.89,2.81,3.13,3.93-1.8-.54-3.44-1.46-4.82-2.68Zm7.69,2.89c-1.93-1.2-3.51-2.89-4.63-4.89,1.44-.67,3.01-1.07,4.63-1.17v6.06Zm0-7.54c-1.85.1-3.64.55-5.29,1.32-.74-1.7-1.18-3.58-1.26-5.54h6.55v4.21Zm0-5.69h-6.55c.09-1.96.53-3.84,1.26-5.54,1.65.77,3.44,1.22,5.29,1.32v4.21Zm0-5.69c-1.62-.1-3.19-.5-4.63-1.17,1.13-2.01,2.7-3.7,4.63-4.89v6.06Z"/>
          <polygon class="cls-2" points="48.39 34.16 41.12 28.18 42.31 37.52 44.45 36.34 46.44 39.96 48.25 38.97 46.25 35.35 48.39 34.16"/>
        </g>
        <g>
          <polygon points="67.61 28.2 65.91 17.49 63.41 17.49 66.04 30.75 69.21 30.75 71.84 17.49 69.36 17.49 67.61 28.2"/>
          <rect x="72.8" y="16.67" width="2.5" height="2.08"/>
          <rect x="72.86" y="20.43" width="2.37" height="10.31"/>
          <path d="m80.85,24.78h-1.13c-.24,0-.4-.04-.48-.12-.08-.08-.13-.23-.13-.45v-1.51c0-.22.04-.37.13-.45.08-.08.24-.12.48-.12h.42c.24,0,.4.04.47.12.08.08.12.23.12.45v.78h2.29v-.97c0-.66-.18-1.17-.54-1.53-.36-.36-.93-.55-1.73-.55h-1.66c-.81,0-1.4.18-1.75.55-.36.36-.54.88-.54,1.53v1.89c0,.66.17,1.17.52,1.52.35.36.92.54,1.72.54h1.13c.24,0,.4.04.48.12.08.08.13.23.13.45v1.45c0,.22-.04.38-.13.45-.08.08-.25.12-.48.12h-.42c-.22,0-.38-.04-.46-.12-.08-.08-.13-.23-.13-.45v-.76h-2.33v.95c0,.66.18,1.17.54,1.53.36.36.94.55,1.75.55h1.7c.8,0,1.38-.18,1.73-.55s.54-.88.54-1.53v-1.83c0-.66-.18-1.17-.52-1.52-.35-.36-.92-.54-1.72-.54Z"/>
          <rect x="84.65" y="20.43" width="2.37" height="10.31"/>
          <rect x="84.59" y="16.67" width="2.5" height="2.08"/>
          <path d="m91.43,18.58h-2.37v1.85h-1.03v1.85h1.03v6.39c0,.66.18,1.17.54,1.53s.94.55,1.75.55h1.47v-1.91h-.78c-.24,0-.4-.04-.48-.12-.08-.08-.13-.23-.13-.45v-5.99h1.41v-1.85h-1.41v-1.85Z"/>
          <path d="m99.94,18.58h-2.37v1.85h-1.03v1.85h1.03v6.39c0,.66.18,1.17.54,1.53s.94.55,1.75.55h1.47v-1.91h-.78c-.24,0-.4-.04-.48-.12-.08-.08-.13-.23-.13-.45v-5.99h1.41v-1.85h-1.41v-1.85Z"/>
          <path d="m106.93,20.43h-.63c-.49,0-.88.13-1.16.39-.14.13-.25.29-.32.49v-4.62h-2.37v14.05h2.37v-7.77c0-.25.05-.43.16-.54.1-.1.27-.16.49-.16h.63c.24,0,.39.04.47.12.08.08.12.23.12.45v7.9h2.39v-8.23c0-.66-.17-1.17-.51-1.53-.34-.36-.89-.55-1.65-.55Z"/>
          <path d="m115.25,20.43h-2.23c-.8,0-1.38.18-1.74.55-.36.36-.55.88-.55,1.53v6.15c0,.66.18,1.17.55,1.53.36.36.95.55,1.74.55h2.18c.8,0,1.38-.18,1.74-.55s.55-.88.55-1.53v-1.05h-2.31v.78c0,.21-.04.36-.12.44s-.23.13-.47.13h-.97c-.22,0-.38-.04-.46-.12-.08-.08-.13-.23-.13-.45v-2.12h4.47v-3.76c0-.66-.18-1.17-.54-1.53-.36-.36-.93-.55-1.73-.55Zm-2.21,4.31v-1.97c0-.22.04-.37.13-.45.08-.08.24-.12.46-.12h1.01c.24,0,.4.04.47.12.08.08.12.23.12.45v1.97h-2.18Z"/>
          <polygon points="131.64 28.25 129.91 17.49 127.37 17.49 125.63 28.25 124.26 17.49 121.76 17.49 124.1 30.75 127.16 30.75 128.63 21.4 130.12 30.75 133.19 30.75 135.52 17.49 133.11 17.49 131.64 28.25"/>
          <path d="m141.05,20.43h-2.23c-.8,0-1.38.18-1.74.55-.36.36-.55.88-.55,1.53v6.15c0,.66.18,1.17.55,1.53.36.36.95.55,1.74.55h2.18c.8,0,1.38-.18,1.74-.55s.55-.88.55-1.53v-1.05h-2.31v.78c0,.21-.04.36-.12.44s-.23.13-.47.13h-.97c-.22,0-.38-.04-.46-.12-.08-.08-.13-.23-.13-.45v-2.12h4.47v-3.76c0-.66-.18-1.17-.54-1.53-.36-.36-.93-.55-1.73-.55Zm-2.21,4.31v-1.97c0-.22.04-.37.13-.45.08-.08.24-.12.46-.12h1.01c.24,0,.4.04.47.12.08.08.12.23.12.45v1.97h-2.18Z"/>
          <path d="m149.34,20.41h-.63c-.49,0-.88.13-1.16.39-.14.13-.25.29-.32.49v-4.6h-2.37v14.05h2.35v-1.02c.07.25.17.47.34.63.28.26.67.39,1.16.39h.63c.76,0,1.31-.18,1.65-.55.34-.36.51-.88.51-1.53v-6.18c0-.66-.17-1.17-.51-1.53-.34-.36-.89-.55-1.65-.55Zm-.23,5.46v2.46c0,.21-.04.36-.12.44s-.23.13-.47.13h-.63c-.22,0-.39-.05-.49-.16s-.16-.28-.16-.54v-5.23c0-.27.05-.45.16-.56.1-.1.27-.16.49-.16h.63c.24,0,.39.04.47.12.08.08.12.23.12.45v3.05Z"/>
          <path d="m156.95,24.78h-1.13c-.24,0-.4-.04-.48-.12-.08-.08-.13-.23-.13-.45v-1.51c0-.22.04-.37.13-.45.08-.08.25-.12.48-.12h.42c.24,0,.4.04.47.12.08.08.12.23.12.45v.78h2.29v-.97c0-.66-.18-1.17-.54-1.53-.36-.36-.93-.55-1.73-.55h-1.66c-.81,0-1.4.18-1.75.55-.36.36-.54.88-.54,1.53v1.89c0,.66.17,1.17.53,1.52.35.36.92.54,1.72.54h1.13c.24,0,.4.04.48.12.08.08.13.23.13.45v1.45c0,.22-.04.38-.13.45-.08.08-.25.12-.48.12h-.42c-.22,0-.38-.04-.46-.12-.08-.08-.13-.23-.13-.45v-.76h-2.33v.95c0,.66.18,1.17.54,1.53.36.36.94.55,1.75.55h1.7c.8,0,1.38-.18,1.73-.55s.54-.88.54-1.53v-1.83c0-.66-.18-1.17-.53-1.52-.35-.36-.92-.54-1.72-.54Z"/>
          <rect x="160.75" y="20.43" width="2.37" height="10.31"/>
          <rect x="160.69" y="16.67" width="2.5" height="2.08"/>
          <path d="m167.53,18.58h-2.37v1.85h-1.03v1.85h1.03v6.39c0,.66.18,1.17.54,1.53s.94.55,1.75.55h1.47v-1.91h-.78c-.24,0-.4-.04-.48-.12-.08-.08-.13-.23-.13-.45v-5.99h1.41v-1.85h-1.41v-1.85Z"/>
          <path d="m176.2,20.98c-.36-.36-.93-.55-1.73-.55h-2.23c-.8,0-1.38.18-1.74.55-.36.36-.55.88-.55,1.53v6.15c0,.66.18,1.17.55,1.53.36.36.95.55,1.74.55h2.18c.8,0,1.38-.18,1.74-.55s.55-.88.55-1.53v-1.05h-2.31v.78c0,.21-.04.36-.12.44s-.23.13-.47.13h-.97c-.22,0-.38-.04-.46-.12-.08-.08-.13-.23-.13-.45v-2.12h4.47v-3.76c0-.66-.18-1.17-.54-1.53Zm-3.94,3.76v-1.97c0-.22.04-.37.13-.45.08-.08.24-.12.46-.12h1.01c.24,0,.4.04.47.12.08.08.12.23.12.45v1.97h-2.18Z"/>
        </g>
      </g>
    </g>
  </g>
</svg>